ExpletusSans-MediumItalic.ufo
<glyph name="exclam" format="1">
  <advance width="264"/>
  <unicode hex="0021"/>
  <outline>
    <contour>
      <point x="71" y="51" type="curve" name="hr00"/>
      <point x="75" y="89"/>
      <point x="107" y="119"/>
      <point x="145" y="119" type="curve" smooth="yes"/>
      <point x="183" y="119"/>
      <point x="208" y="89"/>
      <point x="204" y="51" type="curve" smooth="yes"/>
      <point x="199" y="13"/>
      <point x="167" y="-15"/>
      <point x="129" y="-15" type="curve" smooth="yes"/>
      <point x="91" y="-15"/>
      <point x="65" y="13"/>
    </contour>
    <contour>
      <point x="168" y="727" type="line"/>
      <point x="276" y="727" type="line"/>
      <point x="195" y="198" type="line"/>
      <point x="117" y="198" type="line"/>
    </contour>
  </outline>
</glyph>
<glyph name="numbersign" format="1">
  <advance width="761"/>
  <unicode hex="0023"/>
  <outline>
    <contour>
      <point x="425" y="0" type="line"/>
      <point x="437" y="43"/>
      <point x="451" y="86"/>
      <point x="464" y="129" type="curve" smooth="yes"/>
      <point x="476" y="162" type="line" name="hr01"/>
      <point x="288" y="162" type="line"/>
      <point x="313" y="212"/>
      <point x="341" y="233"/>
      <point x="419" y="233" type="curve" smooth="yes"/>
      <point x="496" y="233" type="line"/>
      <point x="559" y="432" type="line"/>
      <point x="572" y="471" type="line"/>
      <point x="351" y="471" type="line"/>
      <point x="204" y="0" type="line" name="hr02"/>
      <point x="118" y="0" type="line"/>
      <point x="131" y="43"/>
      <point x="144" y="87"/>
      <point x="158" y="130" type="curve" smooth="yes"/>
      <point x="169" y="162" type="line" name="hr03"/>
      <point x="56" y="162" type="line"/>
      <point x="65" y="233" type="line"/>
      <point x="189" y="233" type="line"/>
      <point x="253" y="433" type="line"/>
      <point x="265" y="471" type="line"/>
      <point x="153" y="471" type="line"/>
      <point x="162" y="542" type="line"/>
      <point x="287" y="542" type="line"/>
      <point x="337" y="702" type="line" name="hr04"/>
      <point x="423" y="702" type="line"/>
      <point x="373" y="542" type="line" name="hr05"/>
      <point x="593" y="542" type="line"/>
      <point x="644" y="702" type="line" name="hr06"/>
      <point x="730" y="702" type="line"/>
      <point x="680" y="542" type="line" name="hr07"/>
      <point x="790" y="542" type="line"/>
      <point x="781" y="471" type="line"/>
      <point x="657" y="471" type="line"/>
      <point x="583" y="233" type="line"/>
      <point x="693" y="233" type="line"/>
      <point x="684" y="162" type="line" name="hr08"/>
      <point x="561" y="162" type="line"/>
      <point x="511" y="0" type="line" name="hr09"/>
    </contour>
  </outline>
</glyph>
<glyph name="dollar" format="1">
  <advance width="518"/>
  <unicode hex="0024"/>
  <outline>
    <contour>
      <point x="338" y="630" type="curve" smooth="yes"/>
      <point x="273" y="630"/>
      <point x="228" y="590"/>
      <point x="222" y="542" type="curve" smooth="yes"/>
      <point x="204" y="396"/>
      <point x="531" y="398"/>
      <point x="504" y="177" type="curve" smooth="yes"/>
      <point x="494" y="90"/>
      <point x="419" y="13"/>
      <point x="303" y="-7" type="curve"/>
      <point x="290" y="-107" type="line"/>
      <point x="208" y="-107" type="line"/>
      <point x="220" y="-11" type="line" name="hr01"/>
      <point x="167" y="-7"/>
      <point x="104" y="6"/>
      <point x="43" y="37" type="curve"/>
      <point x="82" y="111" type="line"/>
      <point x="143" y="81"/>
      <point x="199" y="70"/>
      <point x="248" y="70" type="curve" smooth="yes"/>
      <point x="329" y="70"/>
      <point x="389" y="122"/>
      <point x="396" y="179" type="curve" smooth="yes"/>
      <point x="416" y="338"/>
      <point x="90" y="324"/>
      <point x="117" y="540" type="curve" smooth="yes"/>
      <point x="128" y="632"/>
      <point x="207" y="700"/>
      <point x="309" y="710" type="curve"/>
      <point x="321" y="810" type="line"/>
      <point x="403" y="810" type="line"/>
      <point x="391" y="709" type="line"/>
      <point x="428" y="705"/>
      <point x="465" y="696"/>
      <point x="515" y="681" type="curve"/>
      <point x="475" y="608" type="line"/>
      <point x="419" y="625"/>
      <point x="378" y="630"/>
    </contour>
  </outline>
</glyph>
<glyph name="percent" format="1">
  <advance width="853"/>
  <unicode hex="0025"/>
  <outline>
    <contour>
      <point x="747" y="191" type="curve" smooth="yes"/>
      <point x="758" y="283"/>
      <point x="737" y="329"/>
      <point x="692" y="329" type="curve" smooth="yes"/>
      <point x="649" y="329"/>
      <point x="615" y="283"/>
      <point x="604" y="191" type="curve" smooth="yes"/>
      <point x="592" y="97"/>
      <point x="615" y="52"/>
      <point x="658" y="52" type="curve" smooth="yes"/>
      <point x="703" y="52"/>
      <point x="735" y="97"/>
    </contour>
    <contour>
      <point x="840" y="191" type="curve" smooth="yes"/>
      <point x="824" y="62"/>
      <point x="747" y="-13"/>
      <point x="650" y="-13" type="curve" smooth="yes"/>
      <point x="552" y="-13"/>
      <point x="495" y="61"/>
      <point x="511" y="191" type="curve" smooth="yes"/>
      <point x="527" y="319"/>
      <point x="602" y="394"/>
      <point x="700" y="394" type="curve" smooth="yes"/>
      <point x="797" y="394"/>
      <point x="856" y="319"/>
    </contour>
    <contour>
      <point x="334" y="513" type="curve" smooth="yes"/>
      <point x="346" y="606"/>
      <point x="324" y="651"/>
      <point x="280" y="651" type="curve" smooth="yes"/>
      <point x="236" y="651"/>
      <point x="203" y="606"/>
      <point x="191" y="513" type="curve" smooth="yes"/>
      <point x="180" y="420"/>
      <point x="203" y="375"/>
      <point x="247" y="375" type="curve" smooth="yes" name="hr01"/>
      <point x="291" y="375"/>
      <point x="323" y="420"/>
    </contour>
    <contour>
      <point x="427" y="513" type="curve" smooth="yes"/>
      <point x="412" y="384"/>
      <point x="334" y="309"/>
      <point x="238" y="309" type="curve" smooth="yes"/>
      <point x="139" y="309"/>
      <point x="83" y="383"/>
      <point x="98" y="513" type="curve" smooth="yes"/>
      <point x="114" y="642"/>
      <point x="190" y="717"/>
      <point x="289" y="717" type="curve" smooth="yes"/>
      <point x="385" y="717"/>
      <point x="443" y="642"/>
    </contour>
    <contour>
      <point x="166" y="0" type="line"/>
      <point x="690" y="702" type="line"/>
      <point x="772" y="702" type="line"/>
      <point x="248" y="0" type="line"/>
    </contour>
  </outline>
</glyph>
<glyph name="ampersand" format="1">
  <advance width="642"/>
  <unicode hex="0026"/>
  <outline>
    <contour>
      <point x="322" y="78" type="curve" smooth="yes"/>
      <point x="367" y="89"/>
      <point x="401" y="76"/>
      <point x="427" y="48" type="curve"/>
      <point x="376" y="11"/>
      <point x="322" y="-11"/>
      <point x="253" y="-11" type="curve" smooth="yes"/>
      <point x="118" y="-11"/>
      <point x="50" y="91"/>
      <point x="64" y="209" type="curve" smooth="yes"/>
      <point x="75" y="300"/>
      <point x="138" y="367"/>
      <point x="209" y="416" type="curve"/>
      <point x="177" y="471"/>
      <point x="167" y="515"/>
      <point x="172" y="559" type="curve" smooth="yes"/>
      <point x="185" y="664"/>
      <point x="273" y="737"/>
      <point x="397" y="737" type="curve" smooth="yes"/>
      <point x="441" y="737"/>
      <point x="497" y="726"/>
      <point x="540" y="703" type="curve"/>
      <point x="505" y="632" type="line"/>
      <point x="470" y="648"/>
      <point x="421" y="656"/>
      <point x="385" y="656" type="curve" smooth="yes"/>
      <point x="325" y="656"/>
      <point x="278" y="619"/>
      <point x="271" y="568" type="curve" smooth="yes"/>
      <point x="264" y="510"/>
      <point x="293" y="469"/>
      <point x="341" y="404" type="curve" smooth="yes"/>
      <point x="481" y="212" type="line"/>
      <point x="514" y="268"/>
      <point x="539" y="316"/>
      <point x="557" y="379" type="curve"/>
      <point x="641" y="379" type="line"/>
      <point x="612" y="291"/>
      <point x="579" y="213"/>
      <point x="529" y="146" type="curve"/>
      <point x="639" y="0" type="line" name="hr01"/>
      <point x="509" y="0" type="line"/>
      <point x="276" y="316" type="line"/>
      <point x="252" y="353" type="line"/>
      <point x="212" y="316"/>
      <point x="181" y="280"/>
      <point x="174" y="222" type="curve" smooth="yes"/>
      <point x="163" y="133"/>
      <point x="198" y="70"/>
      <point x="278" y="70" type="curve" smooth="yes" name="hr02"/>
      <point x="292" y="70"/>
      <point x="304" y="73"/>
    </contour>
  </outline>
</glyph>
<glyph name="quotesingle" format="1">
  <advance width="195"/>
  <unicode hex="0027"/>
  <outline>
    <contour>
      <point x="120" y="522" type="curve" name="hr00"/>
      <point x="145" y="727" type="line"/>
      <point x="239" y="727" type="line"/>
      <point x="229" y="649" type="line" smooth="yes"/>
      <point x="221" y="585"/>
      <point x="194" y="505"/>
    </contour>
  </outline>
</glyph>
<glyph name="parenleft" format="1">
  <advance width="296"/>
  <unicode hex="0028"/>
  <outline>
    <contour>
      <point x="177" y="296" type="curve" smooth="yes" name="hr00"/>
      <point x="150" y="74"/>
      <point x="145" y="-18"/>
      <point x="262" y="-121" type="curve"/>
      <point x="208" y="-176" type="line"/>
      <point x="67" y="-72"/>
      <point x="52" y="46"/>
      <point x="83" y="296" type="curve" smooth="yes"/>
      <point x="113" y="545"/>
      <point x="157" y="663"/>
      <point x="324" y="767" type="curve"/>
      <point x="364" y="713" type="line"/>
      <point x="222" y="608"/>
      <point x="204" y="517"/>
    </contour>
  </outline>
</glyph>
<glyph name="parenright" format="1">
  <advance width="295"/>
  <unicode hex="0029"/>
  <outline>
    <contour>
      <point x="191" y="296" type="curve" smooth="yes" name="hr00"/>
      <point x="218" y="517"/>
      <point x="221" y="608"/>
      <point x="106" y="713" type="curve"/>
      <point x="160" y="767" type="line"/>
      <point x="301" y="663"/>
      <point x="314" y="545"/>
      <point x="284" y="296" type="curve" smooth="yes"/>
      <point x="253" y="46"/>
      <point x="211" y="-72"/>
      <point x="44" y="-176" type="curve"/>
      <point x="4" y="-121" type="line"/>
      <point x="144" y="-18"/>
      <point x="164" y="74"/>
    </contour>
  </outline>
</glyph>
<glyph name="asterisk" format="1">
  <advance width="479"/>
  <unicode hex="002A"/>
  <outline>
    <contour>
      <point x="311" y="590" type="line" name="hr00"/>
      <point x="393" y="740" type="line"/>
      <point x="462" y="697" type="line"/>
      <point x="381" y="607"/>
      <point x="360" y="581"/>
      <point x="347" y="568" type="curve"/>
      <point x="511" y="588" type="line"/>
      <point x="500" y="503" type="line"/>
      <point x="387" y="517"/>
      <point x="357" y="520"/>
      <point x="341" y="523" type="curve"/>
      <point x="424" y="394" type="line"/>
      <point x="345" y="352" type="line"/>
      <point x="301" y="502" type="line"/>
      <point x="220" y="352" type="line"/>
      <point x="151" y="394" type="line"/>
      <point x="265" y="524" type="line"/>
      <point x="101" y="503" type="line"/>
      <point x="112" y="589" type="line"/>
      <point x="270" y="569" type="line"/>
      <point x="186" y="697" type="line"/>
      <point x="265" y="740" type="line"/>
    </contour>
  </outline>
</glyph>
<glyph name="plus" format="1">
  <advance width="539"/>
  <unicode hex="002B"/>
  <outline>
    <contour>
      <point x="67" y="268" type="line" name="hr00"/>
      <point x="76" y="342" type="line"/>
      <point x="268" y="342" type="line"/>
      <point x="294" y="546" type="line"/>
      <point x="377" y="546" type="line"/>
      <point x="351" y="342" type="line"/>
      <point x="544" y="342" type="line"/>
      <point x="535" y="268" type="line"/>
      <point x="342" y="268" type="line"/>
      <point x="317" y="62" type="line"/>
      <point x="234" y="62" type="line"/>
      <point x="259" y="268" type="line"/>
    </contour>
  </outline>
</glyph>
<glyph name="comma" format="1">
  <advance width="225"/>
  <unicode hex="002C"/>
  <outline>
    <contour>
      <point x="50" y="-107" type="curve" name="hr00"/>
      <point x="76" y="98" type="line"/>
      <point x="173" y="98" type="line"/>
      <point x="163" y="20" type="line" smooth="yes"/>
      <point x="155" y="-44"/>
      <point x="124" y="-124"/>
    </contour>
  </outline>
</glyph>
<glyph name="hyphen" format="1">
  <advance width="430"/>
  <unicode hex="002D"/>
  <outline>
    <contour>
      <point x="398" y="268" type="line" name="hr00"/>
      <point x="96" y="268" type="line"/>
      <point x="105" y="342" type="line"/>
      <point x="407" y="342" type="line"/>
    </contour>
  </outline>
</glyph>
<glyph name="period" format="1">
  <advance width="238"/>
  <unicode hex="002E"/>
  <outline>
    <contour>
      <point x="59" y="51" type="curve" smooth="yes" name="hr00"/>
      <point x="63" y="89"/>
      <point x="95" y="118"/>
      <point x="133" y="118" type="curve" smooth="yes"/>
      <point x="171" y="118"/>
      <point x="196" y="89"/>
      <point x="192" y="51" type="curve" smooth="yes"/>
      <point x="187" y="13"/>
      <point x="155" y="-15"/>
      <point x="117" y="-15" type="curve" smooth="yes"/>
      <point x="79" y="-15"/>
      <point x="54" y="13"/>
    </contour>
  </outline>
</glyph>
<glyph name="slash" format="1">
  <advance width="408"/>
  <unicode hex="002F"/>
  <outline>
    <contour>
      <point x="119" y="-62" type="line" name="hr00"/>
      <point x="27" y="-62" type="line"/>
      <point x="367" y="727" type="line"/>
      <point x="459" y="727" type="line"/>
    </contour>
  </outline>
</glyph>
<glyph name="zero" format="1">
  <advance width="656"/>
  <unicode hex="0030"/>
  <outline>
    <contour>
      <point x="534" y="349" type="curve" smooth="yes" name="hr00"/>
      <point x="556" y="527"/>
      <point x="510" y="636"/>
      <point x="406" y="636" type="curve" smooth="yes"/>
      <point x="301" y="636"/>
      <point x="227" y="527"/>
      <point x="205" y="349" type="curve" smooth="yes"/>
      <point x="183" y="171"/>
      <point x="230" y="64"/>
      <point x="335" y="64" type="curve" smooth="yes"/>
      <point x="439" y="64"/>
      <point x="512" y="171"/>
    </contour>
    <contour>
      <point x="325" y="-17" type="curve" smooth="yes"/>
      <point x="158" y="-17"/>
      <point x="65" y="124"/>
      <point x="92" y="349" type="curve" smooth="yes"/>
      <point x="120" y="571"/>
      <point x="245" y="717"/>
      <point x="415" y="717" type="curve" smooth="yes"/>
      <point x="593" y="717"/>
      <point x="674" y="559"/>
      <point x="648" y="349" type="curve" smooth="yes"/>
      <point x="620" y="121"/>
      <point x="487" y="-17"/>
    </contour>
  </outline>
</glyph>
<glyph name="one" format="1">
  <advance width="353"/>
  <unicode hex="0031"/>
  <outline>
    <contour>
      <point x="262" y="0" type="line" name="hr00"/>
      <point x="157" y="0" type="line"/>
      <point x="227" y="578" type="line"/>
      <point x="108" y="519" type="line"/>
      <point x="80" y="587" type="line"/>
      <point x="306" y="701" type="line"/>
      <point x="348" y="701" type="line"/>
    </contour>
  </outline>
</glyph>
<glyph name="two" format="1">
  <advance width="505"/>
  <unicode hex="0032"/>
  <outline>
    <contour>
      <point x="512" y="528" type="curve" smooth="yes" name="hr00"/>
      <point x="494" y="376"/>
      <point x="281" y="226"/>
      <point x="182" y="102" type="curve"/>
      <point x="165" y="85" type="line"/>
      <point x="187" y="88" type="line"/>
      <point x="470" y="88" type="line"/>
      <point x="460" y="0" type="line"/>
      <point x="24" y="0" type="line"/>
      <point x="29" y="44" type="line"/>
      <point x="162" y="235"/>
      <point x="383" y="386"/>
      <point x="399" y="517" type="curve" smooth="yes"/>
      <point x="408" y="588"/>
      <point x="356" y="630"/>
      <point x="288" y="630" type="curve" smooth="yes"/>
      <point x="253" y="630"/>
      <point x="209" y="623"/>
      <point x="153" y="596" type="curve"/>
      <point x="134" y="670" type="line"/>
      <point x="200" y="702"/>
      <point x="257" y="711"/>
      <point x="309" y="711" type="curve" smooth="yes"/>
      <point x="439" y="711"/>
      <point x="527" y="644"/>
    </contour>
  </outline>
</glyph>
<glyph name="three" format="1">
  <advance width="508"/>
  <unicode hex="0033"/>
  <outline>
    <contour>
      <point x="502" y="552" type="curve" smooth="yes" name="hr00"/>
      <point x="495" y="489"/>
      <point x="451" y="432"/>
      <point x="382" y="396" type="curve"/>
      <point x="356" y="387" type="line"/>
      <point x="377" y="382" type="line"/>
      <point x="441" y="357"/>
      <point x="494" y="293"/>
      <point x="483" y="203" type="curve" smooth="yes"/>
      <point x="469" y="85"/>
      <point x="348" y="-11"/>
      <point x="204" y="-11" type="curve" smooth="yes"/>
      <point x="129" y="-11"/>
      <point x="69" y="13"/>
      <point x="30" y="36" type="curve"/>
      <point x="65" y="108" type="line"/>
      <point x="99" y="88"/>
      <point x="151" y="70"/>
      <point x="207" y="70" type="curve" smooth="yes"/>
      <point x="298" y="70"/>
      <point x="363" y="141"/>
      <point x="371" y="205" type="curve" smooth="yes"/>
      <point x="383" y="302"/>
      <point x="305" y="330"/>
      <point x="192" y="330" type="curve"/>
      <point x="191" y="393" type="line"/>
      <point x="274" y="426"/>
      <point x="379" y="457"/>
      <point x="389" y="538" type="curve" smooth="yes"/>
      <point x="396" y="595"/>
      <point x="355" y="631"/>
      <point x="297" y="631" type="curve" smooth="yes"/>
      <point x="259" y="631"/>
      <point x="213" y="624"/>
      <point x="154" y="596" type="curve"/>
      <point x="135" y="670" type="line"/>
      <point x="205" y="703"/>
      <point x="266" y="712"/>
      <point x="320" y="712" type="curve" smooth="yes"/>
      <point x="438" y="712"/>
      <point x="514" y="647"/>
    </contour>
  </outline>
</glyph>
<glyph name="four" format="1">
  <advance width="563"/>
  <unicode hex="0034"/>
  <outline>
    <contour>
      <point x="44" y="223" type="line" name="hr00"/>
      <point x="419" y="701" type="line"/>
      <point x="530" y="701" type="line"/>
      <point x="472" y="231" type="line"/>
      <point x="552" y="231" type="line"/>
      <point x="542" y="152" type="line"/>
      <point x="462" y="152" type="line"/>
      <point x="444" y="0" type="line"/>
      <point x="344" y="0" type="line"/>
      <point x="410" y="538" type="line"/>
      <point x="415" y="567" type="line"/>
      <point x="397" y="541" type="line"/>
      <point x="185" y="276" type="line" smooth="yes"/>
      <point x="177" y="265"/>
      <point x="169" y="255"/>
      <point x="159" y="244" type="curve"/>
      <point x="146" y="230" type="line"/>
      <point x="152" y="231"/>
      <point x="158" y="231"/>
      <point x="163" y="232" type="curve"/>
      <point x="239" y="232" type="line" smooth="yes"/>
      <point x="294" y="232"/>
      <point x="319" y="180"/>
      <point x="326" y="152" type="curve"/>
      <point x="35" y="152" type="line"/>
    </contour>
  </outline>
</glyph>
<glyph name="five" format="1">
  <advance width="515"/>
  <unicode hex="0035"/>
  <outline>
    <contour>
      <point x="251" y="613" type="line" name="hr00"/>
      <point x="242" y="565"/>
      <point x="231" y="518"/>
      <point x="222" y="471" type="curve" smooth="yes"/>
      <point x="212" y="417" type="line"/>
      <point x="235" y="420"/>
      <point x="255" y="423"/>
      <point x="277" y="423" type="curve" smooth="yes"/>
      <point x="441" y="423"/>
      <point x="511" y="320"/>
      <point x="497" y="209" type="curve" smooth="yes"/>
      <point x="482" y="88"/>
      <point x="372" y="-11"/>
      <point x="212" y="-11" type="curve" smooth="yes"/>
      <point x="161" y="-11"/>
      <point x="91" y="5"/>
      <point x="42" y="37" type="curve"/>
      <point x="77" y="110" type="line"/>
      <point x="130" y="80"/>
      <point x="183" y="70"/>
      <point x="221" y="70" type="curve" smooth="yes"/>
      <point x="328" y="70"/>
      <point x="378" y="148"/>
      <point x="385" y="211" type="curve" smooth="yes"/>
      <point x="396" y="301"/>
      <point x="336" y="343"/>
      <point x="243" y="343" type="curve" smooth="yes"/>
      <point x="209" y="343"/>
      <point x="156" y="337"/>
      <point x="109" y="325" type="curve"/>
      <point x="181" y="701" type="line"/>
      <point x="528" y="701" type="line"/>
      <point x="517" y="613" type="line"/>
    </contour>
  </outline>
</glyph>
<glyph name="six" format="1">
  <advance width="590"/>
  <unicode hex="0036"/>
  <outline>
    <contour>
      <point x="468" y="626" type="curve" smooth="yes" name="hr00"/>
      <point x="327" y="626"/>
      <point x="222" y="500"/>
      <point x="201" y="328" type="curve" smooth="yes"/>
      <point x="187" y="219"/>
      <point x="199" y="66"/>
      <point x="324" y="66" type="curve" smooth="yes"/>
      <point x="396" y="66"/>
      <point x="456" y="131"/>
      <point x="466" y="218" type="curve" smooth="yes"/>
      <point x="477" y="306"/>
      <point x="438" y="351"/>
      <point x="383" y="351" type="curve" smooth="yes"/>
      <point x="374" y="351"/>
      <point x="363" y="350"/>
      <point x="348" y="346" type="curve" smooth="yes"/>
      <point x="299" y="336"/>
      <point x="263" y="365"/>
      <point x="248" y="387" type="curve"/>
      <point x="317" y="421"/>
      <point x="354" y="431"/>
      <point x="397" y="431" type="curve" smooth="yes"/>
      <point x="515" y="431"/>
      <point x="596" y="357"/>
      <point x="579" y="218" type="curve" smooth="yes"/>
      <point x="565" y="103"/>
      <point x="459" y="-15"/>
      <point x="316" y="-15" type="curve" smooth="yes"/>
      <point x="115" y="-15"/>
      <point x="68" y="156"/>
      <point x="89" y="326" type="curve" smooth="yes"/>
      <point x="112" y="515"/>
      <point x="261" y="707"/>
      <point x="478" y="707" type="curve" smooth="yes"/>
      <point x="511" y="707"/>
      <point x="550" y="700"/>
      <point x="588" y="684" type="curve"/>
      <point x="554" y="610" type="line"/>
      <point x="523" y="623"/>
      <point x="494" y="626"/>
    </contour>
  </outline>
</glyph>
<glyph name="seven" format="1">
  <advance width="462"/>
  <unicode hex="0037"/>
  <outline>
    <contour>
      <point x="218" y="0" type="curve" name="hr00"/>
      <point x="107" y="0" type="line"/>
      <point x="160" y="208"/>
      <point x="239" y="380"/>
      <point x="363" y="548" type="curve" smooth="yes"/>
      <point x="378" y="568"/>
      <point x="395" y="589"/>
      <point x="412" y="610" type="curve"/>
      <point x="96" y="609" type="line"/>
      <point x="108" y="701" type="line"/>
      <point x="538" y="701" type="line"/>
      <point x="528" y="619" type="line"/>
      <point x="401" y="479"/>
      <point x="286" y="318"/>
    </contour>
  </outline>
</glyph>
<glyph name="eight" format="1">
  <advance width="579"/>
  <unicode hex="0038"/>
  <outline>
    <contour>
      <point x="296" y="67" type="curve" smooth="yes" name="hr00"/>
      <point x="378" y="67"/>
      <point x="438" y="114"/>
      <point x="446" y="178" type="curve" smooth="yes"/>
      <point x="467" y="346"/>
      <point x="109" y="295"/>
      <point x="138" y="531" type="curve" smooth="yes"/>
      <point x="152" y="645"/>
      <point x="264" y="713"/>
      <point x="378" y="713" type="curve" smooth="yes"/>
      <point x="496" y="713"/>
      <point x="585" y="645"/>
      <point x="571" y="531" type="curve" smooth="yes"/>
      <point x="563" y="471"/>
      <point x="518" y="410"/>
      <point x="460" y="359" type="curve"/>
      <point x="519" y="324"/>
      <point x="562" y="272"/>
      <point x="550" y="178" type="curve" smooth="yes"/>
      <point x="535" y="55"/>
      <point x="417" y="-14"/>
      <point x="286" y="-14" type="curve" smooth="yes"/>
      <point x="151" y="-14"/>
      <point x="55" y="55"/>
      <point x="70" y="178" type="curve" smooth="yes"/>
      <point x="76" y="223"/>
      <point x="98" y="273"/>
      <point x="175" y="345" type="curve"/>
      <point x="197" y="313"/>
      <point x="211" y="272"/>
      <point x="190" y="234" type="curve" smooth="yes"/>
      <point x="179" y="216"/>
      <point x="173" y="201"/>
      <point x="171" y="187" type="curve" smooth="yes"/>
      <point x="162" y="111"/>
      <point x="216" y="67"/>
    </contour>
    <contour>
      <point x="242" y="531" type="curve" smooth="yes"/>
      <point x="233" y="459"/>
      <point x="310" y="432"/>
      <point x="388" y="396" type="curve"/>
      <point x="433" y="436"/>
      <point x="462" y="474"/>
      <point x="468" y="519" type="curve" smooth="yes"/>
      <point x="478" y="596"/>
      <point x="424" y="631"/>
      <point x="368" y="631" type="curve" smooth="yes"/>
      <point x="309" y="631"/>
      <point x="250" y="595"/>
    </contour>
  </outline>
</glyph>
<glyph name="nine" format="1">
  <advance width="589"/>
  <unicode hex="0039"/>
  <outline>
    <contour>
      <point x="204" y="71" type="curve" smooth="yes" name="hr00"/>
      <point x="346" y="71"/>
      <point x="451" y="198"/>
      <point x="472" y="370" type="curve" smooth="yes"/>
      <point x="485" y="479"/>
      <point x="475" y="631"/>
      <point x="350" y="631" type="curve" smooth="yes"/>
      <point x="276" y="631"/>
      <point x="218" y="566"/>
      <point x="207" y="480" type="curve" smooth="yes"/>
      <point x="197" y="392"/>
      <point x="235" y="347"/>
      <point x="290" y="347" type="curve" smooth="yes"/>
      <point x="298" y="347"/>
      <point x="310" y="348"/>
      <point x="325" y="351" type="curve" smooth="yes"/>
      <point x="375" y="362"/>
      <point x="409" y="333"/>
      <point x="425" y="310" type="curve"/>
      <point x="355" y="276"/>
      <point x="317" y="267"/>
      <point x="276" y="267" type="curve" smooth="yes"/>
      <point x="158" y="267"/>
      <point x="76" y="341"/>
      <point x="93" y="480" type="curve" smooth="yes"/>
      <point x="108" y="596"/>
      <point x="214" y="712"/>
      <point x="357" y="712" type="curve" smooth="yes"/>
      <point x="558" y="712"/>
      <point x="606" y="541"/>
      <point x="585" y="372" type="curve" smooth="yes"/>
      <point x="562" y="182"/>
      <point x="411" y="-10"/>
      <point x="194" y="-10" type="curve" smooth="yes"/>
      <point x="161" y="-10"/>
      <point x="122" y="-2"/>
      <point x="84" y="15" type="curve"/>
      <point x="119" y="88" type="line"/>
      <point x="150" y="76"/>
      <point x="179" y="71"/>
    </contour>
  </outline>
</glyph>
<glyph name="colon" format="1">
  <advance width="261"/>
  <unicode hex="003A"/>
  <outline>
    <contour>
      <point x="116" y="425" type="curve" smooth="yes" name="hr00"/>
      <point x="120" y="463"/>
      <point x="152" y="493"/>
      <point x="190" y="493" type="curve" smooth="yes"/>
      <point x="228" y="493"/>
      <point x="253" y="463"/>
      <point x="249" y="425" type="curve" smooth="yes"/>
      <point x="244" y="388"/>
      <point x="212" y="360"/>
      <point x="174" y="360" type="curve" smooth="yes"/>
      <point x="136" y="360"/>
      <point x="111" y="388"/>
    </contour>
    <contour>
      <point x="70" y="51" type="curve" smooth="yes"/>
      <point x="74" y="89"/>
      <point x="106" y="118"/>
      <point x="144" y="118" type="curve" smooth="yes"/>
      <point x="182" y="118"/>
      <point x="207" y="89"/>
      <point x="203" y="51" type="curve" smooth="yes"/>
      <point x="198" y="13"/>
      <point x="166" y="-15"/>
      <point x="128" y="-15" type="curve" smooth="yes"/>
      <point x="90" y="-15"/>
      <point x="65" y="13"/>
    </contour>
  </outline>
</glyph>
<glyph name="semicolon" format="1">
  <advance width="261"/>
  <unicode hex="003B"/>
  <outline>
    <contour>
      <point x="68" y="-107" type="curve" name="hr00"/>
      <point x="94" y="98" type="line"/>
      <point x="192" y="98" type="line"/>
      <point x="182" y="20" type="line" smooth="yes"/>
      <point x="174" y="-44"/>
      <point x="142" y="-124"/>
    </contour>
    <contour>
      <point x="116" y="425" type="curve" smooth="yes"/>
      <point x="120" y="463"/>
      <point x="152" y="493"/>
      <point x="190" y="493" type="curve" smooth="yes"/>
      <point x="228" y="493"/>
      <point x="253" y="463"/>
      <point x="249" y="425" type="curve" smooth="yes"/>
      <point x="244" y="388"/>
      <point x="212" y="360"/>
      <point x="174" y="360" type="curve" smooth="yes"/>
      <point x="136" y="360"/>
      <point x="111" y="388"/>
    </contour>
  </outline>
</glyph>
<glyph name="less" format="1">
  <advance width="610"/>
  <unicode hex="003C"/>
  <outline>
    <contour>
      <point x="193" y="270" type="line" name="hr00"/>
      <point x="561" y="95" type="line"/>
      <point x="550" y="0" type="line"/>
      <point x="63" y="245" type="line"/>
      <point x="70" y="307" type="line"/>
      <point x="617" y="552" type="line"/>
      <point x="606" y="457" type="line"/>
      <point x="468" y="399"/>
      <point x="332" y="338"/>
      <point x="194" y="283" type="curve"/>
      <point x="167" y="276" type="line"/>
    </contour>
  </outline>
</glyph>
<glyph name="equal" format="1">
  <advance width="608"/>
  <unicode hex="003D"/>
  <outline>
    <contour>
      <point x="116" y="393" type="line" name="hr00"/>
      <point x="125" y="469" type="line"/>
      <point x="597" y="469" type="line"/>
      <point x="588" y="393" type="line"/>
    </contour>
    <contour>
      <point x="89" y="172" type="line"/>
      <point x="98" y="248" type="line"/>
      <point x="570" y="248" type="line"/>
      <point x="561" y="172" type="line"/>
    </contour>
  </outline>
</glyph>
<glyph name="greater" format="1">
  <advance width="611"/>
  <unicode hex="003E"/>
  <outline>
    <contour>
      <point x="72" y="95" type="line" name="hr00"/>
      <point x="209" y="153"/>
      <point x="346" y="211"/>
      <point x="484" y="270" type="curve"/>
      <point x="510" y="276" type="line"/>
      <point x="485" y="283" type="line"/>
      <point x="117" y="457" type="line"/>
      <point x="128" y="552" type="line"/>
      <point x="615" y="307" type="line"/>
      <point x="608" y="245" type="line"/>
      <point x="61" y="0" type="line"/>
    </contour>
  </outline>
</glyph>
<glyph name="question" format="1">
  <advance width="447"/>
  <unicode hex="003F"/>
  <outline>
    <contour>
      <point x="113" y="51" type="curve" smooth="yes" name="hr00"/>
      <point x="117" y="89"/>
      <point x="150" y="119"/>
      <point x="187" y="119" type="curve" smooth="yes"/>
      <point x="225" y="119"/>
      <point x="250" y="89"/>
      <point x="246" y="51" type="curve" smooth="yes"/>
      <point x="241" y="13"/>
      <point x="209" y="-15"/>
      <point x="171" y="-15" type="curve" smooth="yes"/>
      <point x="134" y="-15"/>
      <point x="108" y="13"/>
    </contour>
    <contour>
      <point x="297" y="737" type="curve" smooth="yes"/>
      <point x="417" y="737"/>
      <point x="492" y="673"/>
      <point x="481" y="583" type="curve" smooth="yes"/>
      <point x="462" y="424"/>
      <point x="261" y="366"/>
      <point x="241" y="198" type="curve"/>
      <point x="155" y="198" type="line"/>
      <point x="180" y="405"/>
      <point x="353" y="444"/>
      <point x="368" y="568" type="curve" smooth="yes"/>
      <point x="375" y="619"/>
      <point x="337" y="656"/>
      <point x="277" y="656" type="curve" smooth="yes"/>
      <point x="239" y="656"/>
      <point x="198" y="650"/>
      <point x="139" y="621" type="curve"/>
      <point x="119" y="696" type="line"/>
      <point x="188" y="729"/>
      <point x="242" y="737"/>
    </contour>
  </outline>
</glyph>
<glyph name="at" format="1">
  <advance width="831"/>
  <unicode hex="0040"/>
  <outline>
    <contour>
      <point x="605" y="149" type="curve" smooth="yes" name="hr00"/>
      <point x="603" y="141"/>
      <point x="602" y="133"/>
      <point x="600" y="126" type="curve"/>
      <point x="605" y="128"/>
      <point x="612" y="135"/>
      <point x="616" y="138" type="curve" smooth="yes"/>
      <point x="696" y="186"/>
      <point x="733" y="247"/>
      <point x="741" y="317" type="curve" smooth="yes"/>
      <point x="761" y="479"/>
      <point x="663" y="575"/>
      <point x="495" y="575" type="curve" smooth="yes"/>
      <point x="324" y="575"/>
      <point x="185" y="466"/>
      <point x="159" y="257" type="curve" smooth="yes"/>
      <point x="134" y="49"/>
      <point x="246" y="-59"/>
      <point x="403" y="-59" type="curve" smooth="yes"/>
      <point x="461" y="-59"/>
      <point x="508" y="-55"/>
      <point x="593" y="-28" type="curve"/>
      <point x="608" y="-90" type="line"/>
      <point x="510" y="-119"/>
      <point x="461" y="-125"/>
      <point x="395" y="-125" type="curve" smooth="yes"/>
      <point x="191" y="-125"/>
      <point x="44" y="-11"/>
      <point x="77" y="257" type="curve" smooth="yes"/>
      <point x="108" y="506"/>
      <point x="302" y="641"/>
      <point x="504" y="641" type="curve" smooth="yes"/>
      <point x="706" y="641"/>
      <point x="848" y="523"/>
      <point x="822" y="317" type="curve" smooth="yes"/>
      <point x="805" y="178"/>
      <point x="693" y="82"/>
      <point x="545" y="56" type="curve"/>
      <point x="531" y="64"/>
      <point x="527" y="77"/>
      <point x="523" y="94" type="curve"/>
      <point x="523" y="113" type="line"/>
      <point x="511" y="93" type="line"/>
      <point x="467" y="54"/>
      <point x="432" y="47"/>
      <point x="396" y="47" type="curve" smooth="yes"/>
      <point x="312" y="47"/>
      <point x="266" y="92"/>
      <point x="274" y="158" type="curve" smooth="yes"/>
      <point x="284" y="238"/>
      <point x="349" y="275"/>
      <point x="503" y="291" type="curve"/>
      <point x="499" y="273"/>
      <point x="480" y="229"/>
      <point x="439" y="223" type="curve" smooth="yes"/>
      <point x="380" y="215"/>
      <point x="358" y="191"/>
      <point x="354" y="162" type="curve" smooth="yes"/>
      <point x="351" y="131"/>
      <point x="375" y="109"/>
      <point x="416" y="109" type="curve" smooth="yes"/>
      <point x="450" y="109"/>
      <point x="491" y="123"/>
      <point x="527" y="164" type="curve"/>
      <point x="544" y="305" type="line" smooth="yes"/>
      <point x="551" y="366"/>
      <point x="527" y="402"/>
      <point x="460" y="402" type="curve" smooth="yes"/>
      <point x="432" y="402"/>
      <point x="400" y="397"/>
      <point x="361" y="383" type="curve"/>
      <point x="346" y="439" type="line"/>
      <point x="400" y="460"/>
      <point x="440" y="466"/>
      <point x="482" y="466" type="curve" smooth="yes"/>
      <point x="584" y="466"/>
      <point x="635" y="406"/>
      <point x="622" y="300" type="curve" smooth="yes"/>
      <point x="610" y="201" type="line" smooth="yes"/>
      <point x="608" y="183"/>
      <point x="606" y="165"/>
    </contour>
  </outline>
</glyph>
<glyph name="A" format="1">
  <advance width="634"/>
  <unicode hex="0041"/>
  <outline>
    <contour>
      <point x="352" y="727" type="line" name="hr00"/>
      <point x="459" y="727" type="line"/>
      <point x="632" y="0" type="line"/>
      <point x="516" y="0" type="line"/>
      <point x="390" y="573" type="line"/>
      <point x="387" y="604" type="line"/>
      <point x="375" y="572" type="line"/>
      <point x="234" y="269" type="line"/>
      <point x="220" y="249" type="line"/>
      <point x="232" y="251" type="line"/>
      <point x="350" y="251" type="line" smooth="yes"/>
      <point x="401" y="251"/>
      <point x="421" y="209"/>
      <point x="430" y="170" type="curve"/>
      <point x="188" y="170" type="line"/>
      <point x="110" y="0" type="line"/>
      <point x="2" y="0" type="line"/>
    </contour>
  </outline>
</glyph>
<glyph name="B" format="1">
  <advance width="647"/>
  <unicode hex="0042"/>
  <outline>
    <contour>
      <point x="342" y="72" type="curve"/>
      <point x="354" y="70"/>
      <point x="362" y="69"/>
      <point x="374" y="69" type="curve" smooth="yes"/>
      <point x="445" y="69"/>
      <point x="509" y="126"/>
      <point x="518" y="202" type="curve" smooth="yes"/>
      <point x="530" y="296"/>
      <point x="453" y="343"/>
      <point x="348" y="343" type="curve" smooth="yes"/>
      <point x="240" y="343" type="line"/>
      <point x="198" y="0" type="line" name="hr01"/>
      <point x="90" y="0" type="line"/>
      <point x="178" y="717" type="line"/>
      <point x="265" y="733"/>
      <point x="324" y="740"/>
      <point x="396" y="740" type="curve" smooth="yes"/>
      <point x="569" y="740"/>
      <point x="646" y="656"/>
      <point x="632" y="544" type="curve" smooth="yes"/>
      <point x="626" y="495"/>
      <point x="590" y="433"/>
      <point x="537" y="402" type="curve"/>
      <point x="506" y="388" type="line"/>
      <point x="533" y="381" type="line"/>
      <point x="604" y="348"/>
      <point x="643" y="283"/>
      <point x="634" y="205" type="curve" smooth="yes"/>
      <point x="621" y="102"/>
      <point x="518" y="-12"/>
      <point x="369" y="-12" type="curve" smooth="yes" name="hr02"/>
      <point x="331" y="-12"/>
      <point x="296" y="-8"/>
      <point x="238" y="6" type="curve"/>
      <point x="262" y="41"/>
      <point x="296" y="77"/>
    </contour>
    <contour>
      <point x="249" y="419" type="line"/>
      <point x="357" y="419" type="line" smooth="yes"/>
      <point x="448" y="419"/>
      <point x="511" y="472"/>
      <point x="520" y="543" type="curve" smooth="yes"/>
      <point x="528" y="605"/>
      <point x="485" y="658"/>
      <point x="386" y="658" type="curve" smooth="yes"/>
      <point x="350" y="658"/>
      <point x="314" y="656"/>
      <point x="278" y="652" type="curve"/>
    </contour>
  </outline>
</glyph>
<glyph name="C" format="1">
  <advance width="620"/>
  <unicode hex="0043"/>
  <outline>
    <contour>
      <point x="410" y="-12" type="curve" smooth="yes" name="hr00"/>
      <point x="193" y="-12"/>
      <point x="59" y="137"/>
      <point x="87" y="363" type="curve" smooth="yes"/>
      <point x="114" y="582"/>
      <point x="287" y="740"/>
      <point x="502" y="740" type="curve" smooth="yes"/>
      <point x="558" y="740"/>
      <point x="616" y="729"/>
      <point x="675" y="706" type="curve"/>
      <point x="637" y="633" type="line"/>
      <point x="582" y="652"/>
      <point x="538" y="658"/>
      <point x="492" y="658" type="curve" smooth="yes"/>
      <point x="348" y="658"/>
      <point x="227" y="547"/>
      <point x="204" y="363" type="curve" smooth="yes"/>
      <point x="183" y="194"/>
      <point x="276" y="69"/>
      <point x="420" y="69" type="curve" smooth="yes"/>
      <point x="466" y="69"/>
      <point x="516" y="80"/>
      <point x="573" y="107" type="curve"/>
      <point x="593" y="34" type="line"/>
      <point x="528" y="2"/>
      <point x="466" y="-12"/>
    </contour>
  </outline>
</glyph>
<glyph name="D" format="1">
  <advance width="752"/>
  <unicode hex="0044"/>
  <outline>
    <contour>
      <point x="369" y="-12" type="curve" smooth="yes"/>
      <point x="326" y="-12"/>
      <point x="294" y="-9"/>
      <point x="238" y="5" type="curve"/>
      <point x="260" y="40"/>
      <point x="294" y="73"/>
      <point x="342" y="70" type="curve" smooth="yes"/>
      <point x="357" y="69"/>
      <point x="363" y="69"/>
      <point x="374" y="69" type="curve" smooth="yes"/>
      <point x="509" y="69"/>
      <point x="616" y="208"/>
      <point x="635" y="365" type="curve" smooth="yes"/>
      <point x="658" y="548"/>
      <point x="579" y="658"/>
      <point x="383" y="658" type="curve" smooth="yes"/>
      <point x="347" y="658"/>
      <point x="310" y="655"/>
      <point x="278" y="651" type="curve"/>
      <point x="199" y="0" type="line" name="hr01"/>
      <point x="90" y="0" type="line"/>
      <point x="177" y="715" type="line"/>
      <point x="250" y="732"/>
      <point x="335" y="740"/>
      <point x="393" y="740" type="curve" smooth="yes"/>
      <point x="651" y="740"/>
      <point x="781" y="600"/>
      <point x="752" y="365" type="curve" smooth="yes"/>
      <point x="726" y="149"/>
      <point x="555" y="-12"/>
    </contour>
  </outline>
</glyph>
<glyph name="E" format="1">
  <advance width="572"/>
  <unicode hex="0045"/>
  <outline>
    <contour>
      <point x="379" y="421" type="curve" name="hr00"/>
      <point x="529" y="421" type="line"/>
      <point x="519" y="342" type="line"/>
      <point x="279" y="342" type="line"/>
      <point x="298" y="381"/>
      <point x="328" y="421"/>
    </contour>
    <contour>
      <point x="91" y="0" type="line"/>
      <point x="180" y="727" type="line"/>
      <point x="601" y="727" type="line"/>
      <point x="591" y="646" type="line"/>
      <point x="279" y="646" type="line"/>
      <point x="209" y="81" type="line"/>
      <point x="536" y="81" type="line"/>
      <point x="527" y="0" type="line"/>
    </contour>
  </outline>
</glyph>
<glyph name="F" format="1">
  <advance width="544"/>
  <unicode hex="0046"/>
  <outline>
    <contour>
      <point x="379" y="421" type="curve" name="hr00"/>
      <point x="529" y="421" type="line"/>
      <point x="519" y="342" type="line"/>
      <point x="279" y="342" type="line"/>
      <point x="298" y="381"/>
      <point x="328" y="421"/>
    </contour>
    <contour>
      <point x="91" y="0" type="line"/>
      <point x="180" y="727" type="line"/>
      <point x="601" y="727" type="line"/>
      <point x="591" y="646" type="line"/>
      <point x="279" y="646" type="line"/>
      <point x="200" y="0" type="line"/>
    </contour>
  </outline>
</glyph>
<glyph name="G" format="1">
  <advance width="690"/>
  <unicode hex="0047"/>
  <outline>
    <contour>
      <point x="503" y="658" type="curve" smooth="yes" name="hr00"/>
      <point x="359" y="658"/>
      <point x="225" y="551"/>
      <point x="202" y="363" type="curve" smooth="yes"/>
      <point x="179" y="178"/>
      <point x="286" y="69"/>
      <point x="430" y="69" type="curve" smooth="yes"/>
      <point x="459" y="69"/>
      <point x="494" y="71"/>
      <point x="539" y="84" type="curve"/>
      <point x="570" y="337" type="line"/>
      <point x="673" y="337" type="line"/>
      <point x="636" y="37" type="line"/>
      <point x="560" y="0"/>
      <point x="477" y="-12"/>
      <point x="420" y="-12" type="curve" smooth="yes"/>
      <point x="203" y="-12"/>
      <point x="57" y="136"/>
      <point x="85" y="363" type="curve" smooth="yes"/>
      <point x="112" y="584"/>
      <point x="297" y="740"/>
      <point x="513" y="740" type="curve" smooth="yes"/>
      <point x="570" y="740"/>
      <point x="642" y="729"/>
      <point x="710" y="696" type="curve"/>
      <point x="672" y="622" type="line"/>
      <point x="603" y="652"/>
      <point x="549" y="658"/>
    </contour>
  </outline>
</glyph>
<glyph name="H" format="1">
  <advance width="749"/>
  <unicode hex="0048"/>
  <outline>
    <contour>
      <point x="91" y="0" type="line" name="hr00"/>
      <point x="180" y="727" type="line"/>
      <point x="289" y="727" type="line"/>
      <point x="200" y="0" type="line"/>
    </contour>
    <contour>
      <point x="379" y="421" type="curve"/>
      <point x="601" y="421" type="line"/>
      <point x="639" y="727" type="line"/>
      <point x="747" y="727" type="line"/>
      <point x="658" y="0" type="line"/>
      <point x="550" y="0" type="line"/>
      <point x="591" y="341" type="line"/>
      <point x="279" y="341" type="line"/>
      <point x="298" y="381"/>
      <point x="328" y="421"/>
    </contour>
  </outline>
</glyph>
<glyph name="I" format="1">
  <advance width="288"/>
  <unicode hex="0049"/>
  <outline>
    <contour>
      <point x="286" y="727" type="line" name="hr00"/>
      <point x="197" y="0" type="line"/>
      <point x="91" y="0" type="line"/>
      <point x="180" y="727" type="line"/>
    </contour>
  </outline>
</glyph>
<glyph name="J" format="1">
  <advance width="292"/>
  <unicode hex="004A"/>
  <outline>
    <contour>
      <point x="291" y="727" type="line" name="hr00"/>
      <point x="217" y="128" type="line" smooth="yes"/>
      <point x="195" y="-50"/>
      <point x="102" y="-115"/>
      <point x="-52" y="-212" type="curve"/>
      <point x="-91" y="-152" type="line"/>
      <point x="18" y="-69"/>
      <point x="90" y="-23"/>
      <point x="108" y="128" type="curve" smooth="yes"/>
      <point x="182" y="727" type="line"/>
    </contour>
  </outline>
</glyph>
<glyph name="K" format="1">
  <advance width="660"/>
  <unicode hex="004B"/>
  <outline>
    <contour>
      <point x="200" y="0" type="line" name="hr00"/>
      <point x="91" y="0" type="line"/>
      <point x="180" y="727" type="line"/>
      <point x="289" y="727" type="line"/>
    </contour>
    <contour>
      <point x="715" y="727" type="line"/>
      <point x="454" y="434" type="line"/>
      <point x="660" y="0" type="line"/>
      <point x="531" y="0" type="line"/>
      <point x="387" y="340" type="line"/>
      <point x="383" y="359" type="line"/>
      <point x="370" y="340" type="line"/>
      <point x="283" y="243" type="line"/>
      <point x="272" y="290"/>
      <point x="289" y="365"/>
      <point x="333" y="421" type="curve" smooth="yes"/>
      <point x="413" y="521"/>
      <point x="506" y="626"/>
      <point x="593" y="727" type="curve"/>
    </contour>
  </outline>
</glyph>
<glyph name="L" format="1">
  <advance width="511"/>
  <unicode hex="004C"/>
  <outline>
    <contour>
      <point x="91" y="0" type="line" name="hr00"/>
      <point x="180" y="727" type="line"/>
      <point x="290" y="727" type="line"/>
      <point x="211" y="82" type="line"/>
      <point x="503" y="82" type="line"/>
      <point x="499" y="55"/>
      <point x="495" y="27"/>
      <point x="492" y="0" type="curve"/>
    </contour>
  </outline>
</glyph>
<glyph name="M" format="1">
  <advance width="937"/>
  <unicode hex="004D"/>
  <outline>
    <contour>
      <point x="59" y="0" type="line" name="hr00"/>
      <point x="226" y="727" type="line"/>
      <point x="366" y="727" type="line"/>
      <point x="480" y="150" type="line"/>
      <point x="483" y="117" type="line"/>
      <point x="494" y="150" type="line"/>
      <point x="749" y="727" type="line"/>
      <point x="889" y="727" type="line"/>
      <point x="877" y="0" type="line"/>
      <point x="774" y="0" type="line"/>
      <point x="792" y="572" type="line"/>
      <point x="794" y="617" type="line"/>
      <point x="777" y="572" type="line"/>
      <point x="522" y="10" type="line"/>
      <point x="416" y="10" type="line"/>
      <point x="298" y="573" type="line"/>
      <point x="290" y="617" type="line"/>
      <point x="161" y="0" type="line"/>
    </contour>
  </outline>
</glyph>
<glyph name="N" format="1">
  <advance width="736"/>
  <unicode hex="004E"/>
  <outline>
    <contour>
      <point x="548" y="0" type="line" name="hr00"/>
      <point x="453" y="187"/>
      <point x="359" y="372"/>
      <point x="265" y="560" type="curve"/>
      <point x="255" y="595" type="line"/>
      <point x="252" y="561" type="line"/>
      <point x="184" y="0" type="line"/>
      <point x="91" y="0" type="line"/>
      <point x="180" y="727" type="line"/>
      <point x="288" y="727" type="line"/>
      <point x="531" y="242" type="line" smooth="yes"/>
      <point x="541" y="223"/>
      <point x="551" y="204"/>
      <point x="560" y="185" type="curve"/>
      <point x="569" y="150" type="line"/>
      <point x="571" y="186" type="line"/>
      <point x="638" y="727" type="line"/>
      <point x="734" y="727" type="line"/>
      <point x="645" y="0" type="line"/>
    </contour>
  </outline>
</glyph>
<glyph name="O" format="1">
  <advance width="780"/>
  <unicode hex="004F"/>
  <outline>
    <contour>
      <point x="207" y="364" type="curve" smooth="yes" name="hr00"/>
      <point x="186" y="195"/>
      <point x="263" y="67"/>
      <point x="399" y="67" type="curve" smooth="yes"/>
      <point x="531" y="67"/>
      <point x="641" y="192"/>
      <point x="662" y="364" type="curve" smooth="yes"/>
      <point x="684" y="543"/>
      <point x="602" y="660"/>
      <point x="472" y="660" type="curve" smooth="yes"/>
      <point x="340" y="660"/>
      <point x="229" y="540"/>
    </contour>
    <contour>
      <point x="90" y="364" type="curve" smooth="yes"/>
      <point x="120" y="606"/>
      <point x="304" y="742"/>
      <point x="482" y="742" type="curve" smooth="yes"/>
      <point x="711" y="742"/>
      <point x="804" y="562"/>
      <point x="779" y="364" type="curve" smooth="yes"/>
      <point x="752" y="143"/>
      <point x="584" y="-14"/>
      <point x="389" y="-14" type="curve" smooth="yes"/>
      <point x="189" y="-14"/>
      <point x="62" y="134"/>
    </contour>
  </outline>
</glyph>
<glyph name="P" format="1">
  <advance width="593"/>
  <unicode hex="0050"/>
  <outline>
    <contour>
      <point x="635" y="518" type="curve" smooth="yes" name="hr00"/>
      <point x="619" y="389"/>
      <point x="497" y="311"/>
      <point x="375" y="300" type="curve" smooth="yes"/>
      <point x="346" y="297"/>
      <point x="312" y="298"/>
      <point x="276" y="309" type="curve"/>
      <point x="296" y="344"/>
      <point x="329" y="377"/>
      <point x="372" y="378" type="curve" smooth="yes"/>
      <point x="437" y="380"/>
      <point x="511" y="439"/>
      <point x="521" y="518" type="curve" smooth="yes"/>
      <point x="531" y="598"/>
      <point x="470" y="659"/>
      <point x="382" y="659" type="curve" smooth="yes"/>
      <point x="345" y="659"/>
      <point x="315" y="657"/>
      <point x="279" y="653" type="curve"/>
      <point x="199" y="0" type="line"/>
      <point x="90" y="1" type="line"/>
      <point x="178" y="719" type="line"/>
      <point x="265" y="735"/>
      <point x="319" y="740"/>
      <point x="392" y="740" type="curve" smooth="yes"/>
      <point x="553" y="740"/>
      <point x="651" y="645"/>
    </contour>
  </outline>
</glyph>
<glyph name="Q" format="1">
  <advance width="784"/>
  <unicode hex="0051"/>
  <outline>
    <contour>
      <point x="658" y="115" type="curve"/>
      <point x="721" y="42" type="line"/>
      <point x="653" y="-17" type="line"/>
      <point x="437" y="235" type="line"/>
      <point x="505" y="294" type="line"/>
      <point x="587" y="197" type="line"/>
      <point x="597" y="177" type="line"/>
      <point x="607" y="202" type="line"/>
      <point x="639" y="252"/>
      <point x="655" y="310"/>
      <point x="661" y="364" type="curve" smooth="yes"/>
      <point x="683" y="540"/>
      <point x="603" y="660"/>
      <point x="471" y="660" type="curve" smooth="yes"/>
      <point x="340" y="660"/>
      <point x="228" y="540"/>
      <point x="206" y="364" type="curve" smooth="yes"/>
      <point x="185" y="192"/>
      <point x="263" y="68"/>
      <point x="393" y="68" type="curve" smooth="yes" name="hr01"/>
      <point x="413" y="68"/>
      <point x="429" y="70"/>
      <point x="448" y="74" type="curve" smooth="yes"/>
      <point x="485" y="80"/>
      <point x="527" y="64"/>
      <point x="546" y="40" type="curve"/>
      <point x="489" y="3"/>
      <point x="435" y="-14"/>
      <point x="383" y="-14" type="curve" smooth="yes"/>
      <point x="186" y="-14"/>
      <point x="62" y="137"/>
      <point x="90" y="364" type="curve" smooth="yes"/>
      <point x="118" y="591"/>
      <point x="289" y="742"/>
      <point x="481" y="742" type="curve" smooth="yes"/>
      <point x="681" y="742"/>
      <point x="807" y="595"/>
      <point x="778" y="364" type="curve" smooth="yes"/>
      <point x="767" y="273"/>
      <point x="728" y="198"/>
    </contour>
  </outline>
</glyph>
<glyph name="R" format="1">
  <advance width="630"/>
  <unicode hex="0052"/>
  <outline>
    <contour>
      <point x="636" y="524" type="curve" smooth="yes" name="hr00"/>
      <point x="626" y="444"/>
      <point x="572" y="382"/>
      <point x="501" y="347" type="curve"/>
      <point x="475" y="338" type="line"/>
      <point x="583" y="283"/>
      <point x="555" y="139"/>
      <point x="601" y="0" type="curve"/>
      <point x="488" y="0" type="line"/>
      <point x="449" y="111"/>
      <point x="472" y="266"/>
      <point x="381" y="311" type="curve"/>
      <point x="375" y="310"/>
      <point x="369" y="310"/>
      <point x="362" y="310" type="curve" smooth="yes"/>
      <point x="336" y="309"/>
      <point x="308" y="311"/>
      <point x="278" y="319" type="curve"/>
      <point x="297" y="354"/>
      <point x="330" y="387"/>
      <point x="373" y="389" type="curve" smooth="yes"/>
      <point x="439" y="392"/>
      <point x="512" y="447"/>
      <point x="522" y="524" type="curve" smooth="yes"/>
      <point x="531" y="600"/>
      <point x="468" y="659"/>
      <point x="382" y="659" type="curve" smooth="yes"/>
      <point x="345" y="659"/>
      <point x="324" y="659"/>
      <point x="278" y="651" type="curve"/>
      <point x="199" y="0" type="line"/>
      <point x="90" y="0" type="line"/>
      <point x="178" y="718" type="line"/>
      <point x="265" y="734"/>
      <point x="319" y="741"/>
      <point x="392" y="741" type="curve" smooth="yes"/>
      <point x="552" y="741"/>
      <point x="651" y="648"/>
    </contour>
  </outline>
</glyph>
<glyph name="S" format="1">
  <advance width="525"/>
  <unicode hex="0053"/>
  <outline>
    <contour>
      <point x="346" y="659" type="curve" smooth="yes" name="hr00"/>
      <point x="276" y="659"/>
      <point x="230" y="614"/>
      <point x="223" y="560" type="curve" smooth="yes"/>
      <point x="205" y="409"/>
      <point x="545" y="411"/>
      <point x="517" y="183" type="curve" smooth="yes"/>
      <point x="504" y="75"/>
      <point x="403" y="-12"/>
      <point x="251" y="-12" type="curve" smooth="yes"/>
      <point x="194" y="-12"/>
      <point x="114" y="0"/>
      <point x="44" y="36" type="curve"/>
      <point x="82" y="109" type="line"/>
      <point x="142" y="80"/>
      <point x="205" y="69"/>
      <point x="253" y="69" type="curve" smooth="yes"/>
      <point x="340" y="69"/>
      <point x="400" y="120"/>
      <point x="408" y="184" type="curve" smooth="yes"/>
      <point x="428" y="347"/>
      <point x="89" y="333"/>
      <point x="117" y="556" type="curve" smooth="yes"/>
      <point x="130" y="665"/>
      <point x="227" y="740"/>
      <point x="347" y="740" type="curve" smooth="yes"/>
      <point x="405" y="740"/>
      <point x="458" y="732"/>
      <point x="529" y="709" type="curve"/>
      <point x="490" y="637" type="line"/>
      <point x="434" y="654"/>
      <point x="385" y="659"/>
    </contour>
  </outline>
</glyph>
<glyph name="T" format="1">
  <advance width="565"/>
  <unicode hex="0054"/>
  <outline>
    <contour>
      <point x="306" y="646" type="line" name="hr00"/>
      <point x="101" y="646" type="line"/>
      <point x="111" y="727" type="line"/>
      <point x="632" y="727" type="line"/>
      <point x="622" y="646" type="line"/>
      <point x="416" y="646" type="line"/>
      <point x="337" y="0" type="line"/>
      <point x="227" y="0" type="line"/>
    </contour>
  </outline>
</glyph>
<glyph name="V" format="1">
  <advance width="625"/>
  <unicode hex="0056"/>
  <outline>
    <contour>
      <point x="370" y="0" type="line" name="hr00"/>
      <point x="257" y="0" type="line"/>
      <point x="91" y="727" type="line"/>
      <point x="208" y="727" type="line"/>
      <point x="325" y="143" type="line"/>
      <point x="328" y="109" type="line"/>
      <point x="339" y="142" type="line"/>
      <point x="599" y="727" type="line"/>
      <point x="712" y="727" type="line"/>
    </contour>
  </outline>
</glyph>
<glyph name="W" format="1">
  <advance width="990"/>
  <unicode hex="0057"/>
  <outline>
    <contour>
      <point x="527" y="717" type="line" name="hr00"/>
      <point x="645" y="717" type="line"/>
      <point x="720" y="153" type="line"/>
      <point x="724" y="102" type="line"/>
      <point x="738" y="151" type="line"/>
      <point x="953" y="727" type="line"/>
      <point x="1059" y="727" type="line"/>
      <point x="772" y="0" type="line"/>
      <point x="652" y="0" type="line"/>
      <point x="573" y="557" type="line"/>
      <point x="569" y="599" type="line"/>
      <point x="556" y="559" type="line"/>
      <point x="342" y="0" type="line"/>
      <point x="218" y="0" type="line"/>
      <point x="109" y="727" type="line"/>
      <point x="217" y="727" type="line"/>
      <point x="291" y="153" type="line"/>
      <point x="293" y="102" type="line"/>
      <point x="310" y="153" type="line"/>
    </contour>
  </outline>
</glyph>
<glyph name="X" format="1">
  <advance width="595"/>
  <unicode hex="0058"/>
  <outline>
    <contour>
      <point x="259" y="191" type="curve" name="hr00"/>
      <point x="130" y="0" type="line"/>
      <point x="13" y="0" type="line"/>
      <point x="252" y="329" type="line"/>
      <point x="272" y="297"/>
      <point x="292" y="238"/>
    </contour>
    <contour>
      <point x="460" y="0" type="line"/>
      <point x="114" y="727" type="line"/>
      <point x="239" y="727" type="line"/>
      <point x="347" y="470" type="line"/>
      <point x="353" y="443" type="line"/>
      <point x="364" y="470" type="line"/>
      <point x="537" y="727" type="line"/>
      <point x="658" y="727" type="line"/>
      <point x="401" y="374" type="line"/>
      <point x="582" y="0" type="line"/>
    </contour>
  </outline>
</glyph>
<glyph name="Y" format="1">
  <advance width="590"/>
  <unicode hex="0059"/>
  <outline>
    <contour>
      <point x="421" y="518" type="curve" name="hr00"/>
      <point x="564" y="727" type="line"/>
      <point x="683" y="727" type="line"/>
      <point x="426" y="376" type="line"/>
      <point x="406" y="408"/>
      <point x="386" y="466"/>
    </contour>
    <contour>
      <point x="207" y="727" type="line"/>
      <point x="393" y="338" type="line"/>
      <point x="352" y="0" type="line"/>
      <point x="246" y="0" type="line"/>
      <point x="284" y="313" type="line"/>
      <point x="85" y="727" type="line"/>
    </contour>
  </outline>
</glyph>
<glyph name="Z" format="1">
  <advance width="585"/>
  <unicode hex="005A"/>
  <outline>
    <contour>
      <point x="140" y="647" type="line" name="hr00"/>
      <point x="150" y="727" type="line"/>
      <point x="630" y="727" type="line"/>
      <point x="624" y="683" type="line"/>
      <point x="174" y="93" type="line"/>
      <point x="157" y="78" type="line"/>
      <point x="179" y="81" type="line"/>
      <point x="560" y="81" type="line"/>
      <point x="551" y="0" type="line"/>
      <point x="21" y="0" type="line"/>
      <point x="26" y="44" type="line"/>
      <point x="475" y="633" type="line"/>
      <point x="493" y="650" type="line"/>
      <point x="469" y="647" type="line"/>
    </contour>
  </outline>
</glyph>
<glyph name="bracketleft" format="1">
  <advance width="347"/>
  <unicode hex="005B"/>
  <outline>
    <contour>
      <point x="55" y="-199" type="line" name="hr00"/>
      <point x="174" y="771" type="line"/>
      <point x="445" y="771" type="line"/>
      <point x="435" y="690" type="line"/>
      <point x="264" y="690" type="line"/>
      <point x="165" y="-118" type="line"/>
      <point x="336" y="-118" type="line"/>
      <point x="333" y="-145"/>
      <point x="329" y="-172"/>
      <point x="326" y="-199" type="curve"/>
    </contour>
  </outline>
</glyph>
<glyph name="backslash" format="1">
  <advance width="414"/>
  <unicode hex="005C"/>
  <outline>
    <contour>
      <point x="371" y="-62" type="line" name="hr00"/>
      <point x="273" y="-62" type="line"/>
      <point x="127" y="727" type="line"/>
      <point x="225" y="727" type="line"/>
    </contour>
  </outline>
</glyph>
<glyph name="bracketright" format="1">
  <advance width="346"/>
  <unicode hex="005D"/>
  <outline>
    <contour>
      <point x="360" y="771" type="line" name="hr00"/>
      <point x="241" y="-199" type="line"/>
      <point x="-28" y="-199" type="line"/>
      <point x="-25" y="-172"/>
      <point x="-22" y="-145"/>
      <point x="-19" y="-118" type="curve"/>
      <point x="152" y="-118" type="line"/>
      <point x="251" y="690" type="line"/>
      <point x="80" y="690" type="line"/>
      <point x="90" y="771" type="line"/>
    </contour>
  </outline>
</glyph>
<glyph name="asciicircum" format="1">
  <advance width="628"/>
  <unicode hex="005E"/>
  <outline>
    <contour>
      <point x="379" y="569" type="line" name="hr00"/>
      <point x="194" y="210" type="line"/>
      <point x="100" y="210" type="line"/>
      <point x="372" y="727" type="line"/>
      <point x="437" y="727" type="line"/>
      <point x="581" y="210" type="line"/>
      <point x="489" y="210" type="line"/>
      <point x="404" y="525" type="line" smooth="yes"/>
      <point x="400" y="540"/>
      <point x="396" y="554"/>
      <point x="391" y="569" type="curve"/>
      <point x="389" y="597" type="line"/>
    </contour>
  </outline>
</glyph>
<glyph name="grave" format="1">
  <advance width="196"/>
  <unicode hex="0060"/>
  <outline>
    <contour>
      <point x="169" y="631" type="curve" name="hr00"/>
      <point x="109" y="727" type="line"/>
      <point x="216" y="727" type="line"/>
      <point x="266" y="602" type="line"/>
      <point x="225" y="591"/>
      <point x="190" y="599"/>
    </contour>
  </outline>
</glyph>
<glyph name="b" format="1">
  <advance width="572"/>
  <unicode hex="0062"/>
  <outline>
    <contour>
      <point x="272" y="491" type="curve" name="hr00"/>
      <point x="309" y="509"/>
      <point x="352" y="521"/>
      <point x="383" y="523" type="curve" smooth="yes"/>
      <point x="497" y="529"/>
      <point x="582" y="424"/>
      <point x="562" y="266" type="curve" smooth="yes"/>
      <point x="542" y="105"/>
      <point x="425" y="-11"/>
      <point x="270" y="-11" type="curve" smooth="yes"/>
      <point x="197" y="-11"/>
      <point x="134" y="5"/>
      <point x="75" y="41" type="curve"/>
      <point x="163" y="758" type="line"/>
      <point x="268" y="751" type="line"/>
      <point x="186" y="84" type="line"/>
      <point x="216" y="73"/>
      <point x="251" y="70"/>
      <point x="280" y="70" type="curve" smooth="yes"/>
      <point x="370" y="70"/>
      <point x="436" y="150"/>
      <point x="450" y="266" type="curve" smooth="yes"/>
      <point x="464" y="378"/>
      <point x="427" y="449"/>
      <point x="345" y="440" type="curve" smooth="yes"/>
      <point x="312" y="436"/>
      <point x="289" y="458"/>
    </contour>
  </outline>
</glyph>
<glyph name="c" format="1">
  <advance width="451"/>
  <unicode hex="0063"/>
  <outline>
    <contour>
      <point x="289" y="-11" type="curve" smooth="yes" name="hr00"/>
      <point x="153" y="-11"/>
      <point x="51" y="80"/>
      <point x="73" y="259" type="curve" smooth="yes"/>
      <point x="95" y="434"/>
      <point x="223" y="528"/>
      <point x="355" y="528" type="curve" smooth="yes"/>
      <point x="391" y="528"/>
      <point x="436" y="522"/>
      <point x="474" y="507" type="curve"/>
      <point x="439" y="433" type="line"/>
      <point x="404" y="443"/>
      <point x="372" y="447"/>
      <point x="345" y="447" type="curve" smooth="yes"/>
      <point x="270" y="447"/>
      <point x="202" y="384"/>
      <point x="186" y="259" type="curve" smooth="yes"/>
      <point x="171" y="133"/>
      <point x="223" y="70"/>
      <point x="299" y="70" type="curve" smooth="yes"/>
      <point x="327" y="70"/>
      <point x="362" y="78"/>
      <point x="410" y="98" type="curve"/>
      <point x="428" y="24" type="line"/>
      <point x="371" y="-2"/>
      <point x="321" y="-11"/>
    </contour>
  </outline>
</glyph>
<glyph name="d" format="1">
  <advance width="592"/>
  <unicode hex="0064"/>
  <outline>
    <contour>
      <point x="74" y="261" type="curve" smooth="yes"/>
      <point x="93" y="416"/>
      <point x="217" y="524"/>
      <point x="335" y="524" type="curve" smooth="yes"/>
      <point x="366" y="524"/>
      <point x="397" y="520"/>
      <point x="437" y="507" type="curve"/>
      <point x="414" y="470"/>
      <point x="384" y="444"/>
      <point x="341" y="444" type="curve" smooth="yes"/>
      <point x="268" y="444"/>
      <point x="203" y="385"/>
      <point x="188" y="261" type="curve" smooth="yes"/>
      <point x="174" y="152"/>
      <point x="209" y="70"/>
      <point x="291" y="70" type="curve" smooth="yes"/>
      <point x="335" y="70"/>
      <point x="379" y="93"/>
      <point x="427" y="142" type="curve"/>
      <point x="503" y="758" type="line"/>
      <point x="608" y="751" type="line"/>
      <point x="538" y="181" type="line" smooth="yes"/>
      <point x="529" y="106"/>
      <point x="526" y="51"/>
      <point x="532" y="5" type="curve"/>
      <point x="452" y="0" type="line" name="hr01"/>
      <point x="437" y="13"/>
      <point x="430" y="27"/>
      <point x="423" y="52" type="curve"/>
      <point x="423" y="70" type="line" name="hr02"/>
      <point x="410" y="52" type="line"/>
      <point x="360" y="5"/>
      <point x="304" y="-11"/>
      <point x="263" y="-11" type="curve" smooth="yes"/>
      <point x="122" y="-11"/>
      <point x="55" y="107"/>
    </contour>
  </outline>
</glyph>
<glyph name="e" format="1">
  <advance width="525"/>
  <unicode hex="0065"/>
  <outline>
    <contour>
      <point x="304" y="317" type="curve" name="hr00"/>
      <point x="420" y="317" type="line"/>
      <point x="438" y="389"/>
      <point x="400" y="449"/>
      <point x="337" y="449" type="curve" smooth="yes"/>
      <point x="261" y="449"/>
      <point x="194" y="385"/>
      <point x="179" y="265" type="curve" smooth="yes"/>
      <point x="165" y="147"/>
      <point x="220" y="70"/>
      <point x="309" y="70" type="curve" smooth="yes"/>
      <point x="355" y="70"/>
      <point x="393" y="78"/>
      <point x="455" y="106" type="curve"/>
      <point x="474" y="33" type="line"/>
      <point x="402" y="-1"/>
      <point x="339" y="-11"/>
      <point x="287" y="-11" type="curve" smooth="yes"/>
      <point x="130" y="-11"/>
      <point x="54" y="114"/>
      <point x="73" y="264" type="curve" smooth="yes"/>
      <point x="93" y="427"/>
      <point x="205" y="528"/>
      <point x="355" y="528" type="curve" smooth="yes"/>
      <point x="495" y="528"/>
      <point x="567" y="397"/>
      <point x="501" y="246" type="curve"/>
      <point x="213" y="246" type="line"/>
      <point x="232" y="286"/>
      <point x="260" y="317"/>
    </contour>
  </outline>
</glyph>
<glyph name="f" format="1">
  <advance width="404"/>
  <unicode hex="0066"/>
  <outline>
    <contour>
      <point x="394" y="517" type="curve" name="hr00"/>
      <point x="449" y="517" type="line"/>
      <point x="439" y="439" type="line"/>
      <point x="295" y="439" type="line"/>
      <point x="313" y="479"/>
      <point x="343" y="517"/>
    </contour>
    <contour>
      <point x="159" y="439" type="line"/>
      <point x="74" y="439" type="line"/>
      <point x="81" y="496" type="line"/>
      <point x="169" y="517" type="line"/>
      <point x="172" y="545" type="line" smooth="yes"/>
      <point x="189" y="677"/>
      <point x="273" y="763"/>
      <point x="399" y="763" type="curve" smooth="yes"/>
      <point x="432" y="763"/>
      <point x="475" y="757"/>
      <point x="520" y="736" type="curve"/>
      <point x="487" y="667" type="line"/>
      <point x="448" y="681"/>
      <point x="424" y="685"/>
      <point x="402" y="685" type="curve" smooth="yes"/>
      <point x="343" y="685"/>
      <point x="284" y="643"/>
      <point x="273" y="552" type="curve" smooth="yes"/>
      <point x="206" y="0" type="line"/>
      <point x="106" y="0" type="line"/>
    </contour>
  </outline>
</glyph>
<glyph name="g" format="1">
  <advance width="569"/>
  <unicode hex="0067"/>
  <outline>
    <contour>
      <point x="71" y="251" type="curve" smooth="yes" name="hr00"/>
      <point x="91" y="413"/>
      <point x="213" y="528"/>
      <point x="375" y="528" type="curve" smooth="yes"/>
      <point x="431" y="528"/>
      <point x="482" y="520"/>
      <point x="557" y="496" type="curve"/>
      <point x="497" y="0" type="line" smooth="yes"/>
      <point x="477" y="-159"/>
      <point x="366" y="-250"/>
      <point x="220" y="-250" type="curve" smooth="yes"/>
      <point x="168" y="-250"/>
      <point x="105" y="-242"/>
      <point x="40" y="-208" type="curve"/>
      <point x="77" y="-133" type="line"/>
      <point x="134" y="-160"/>
      <point x="180" y="-170"/>
      <point x="222" y="-170" type="curve" smooth="yes"/>
      <point x="304" y="-170"/>
      <point x="378" y="-119"/>
      <point x="391" y="-11" type="curve" smooth="yes"/>
      <point x="446" y="436" type="line"/>
      <point x="417" y="444"/>
      <point x="392" y="447"/>
      <point x="367" y="447" type="curve" smooth="yes"/>
      <point x="270" y="447"/>
      <point x="199" y="374"/>
      <point x="184" y="251" type="curve" smooth="yes"/>
      <point x="172" y="153"/>
      <point x="198" y="65"/>
      <point x="284" y="78" type="curve" smooth="yes"/>
      <point x="316" y="81"/>
      <point x="340" y="66"/>
      <point x="361" y="35" type="curve"/>
      <point x="325" y="12"/>
      <point x="286" y="-3"/>
      <point x="255" y="-7" type="curve"/>
      <point x="134" y="-21"/>
      <point x="53" y="101"/>
    </contour>
  </outline>
</glyph>
<glyph name="h" format="1">
  <advance width="575"/>
  <unicode hex="0068"/>
  <outline>
    <contour>
      <point x="397" y="0" type="line" name="hr00"/>
      <point x="442" y="373" type="line" smooth="yes"/>
      <point x="448" y="416"/>
      <point x="435" y="446"/>
      <point x="399" y="446" type="curve" smooth="yes"/>
      <point x="376" y="446"/>
      <point x="347" y="432"/>
      <point x="321" y="438" type="curve" smooth="yes"/>
      <point x="302" y="440"/>
      <point x="286" y="456"/>
      <point x="274" y="477" type="curve"/>
      <point x="348" y="518"/>
      <point x="393" y="528"/>
      <point x="430" y="528" type="curve" smooth="yes"/>
      <point x="505" y="528"/>
      <point x="565" y="487"/>
      <point x="551" y="367" type="curve" smooth="yes"/>
      <point x="506" y="0" type="line"/>
    </contour>
    <contour>
      <point x="180" y="0" type="line"/>
      <point x="74" y="0" type="line"/>
      <point x="167" y="758" type="line"/>
      <point x="273" y="751" type="line"/>
    </contour>
  </outline>
</glyph>
<glyph name="i" format="1">
  <advance width="257"/>
  <unicode hex="0069"/>
  <outline>
    <contour>
      <point x="143" y="667" type="curve" smooth="yes" name="hr00"/>
      <point x="148" y="705"/>
      <point x="181" y="735"/>
      <point x="218" y="735" type="curve" smooth="yes"/>
      <point x="257" y="735"/>
      <point x="281" y="705"/>
      <point x="276" y="667" type="curve" smooth="yes"/>
      <point x="272" y="630"/>
      <point x="240" y="601"/>
      <point x="201" y="601" type="curve" smooth="yes"/>
      <point x="164" y="601"/>
      <point x="139" y="630"/>
    </contour>
    <contour>
      <point x="183" y="0" type="line"/>
      <point x="74" y="0" type="line"/>
      <point x="137" y="517" type="line"/>
      <point x="246" y="517" type="line"/>
    </contour>
  </outline>
</glyph>
<glyph name="j" format="1">
  <advance width="257"/>
  <unicode hex="006A"/>
  <outline>
    <contour>
      <point x="246" y="517" type="line"/>
      <point x="188" y="42" type="line" smooth="yes"/>
      <point x="174" y="-70"/>
      <point x="131" y="-144"/>
      <point x="-31" y="-248" type="curve"/>
      <point x="-72" y="-189" type="line"/>
      <point x="44" y="-98"/>
      <point x="68" y="-54"/>
      <point x="80" y="42" type="curve" smooth="yes"/>
      <point x="138" y="517" type="line"/>
    </contour>
    <contour>
      <point x="144" y="667" type="curve" smooth="yes"/>
      <point x="149" y="706"/>
      <point x="180" y="735"/>
      <point x="218" y="735" type="curve" smooth="yes" name="hr01"/>
      <point x="258" y="735"/>
      <point x="283" y="706"/>
      <point x="278" y="667" type="curve" smooth="yes"/>
      <point x="274" y="629"/>
      <point x="241" y="601"/>
      <point x="201" y="601" type="curve" smooth="yes"/>
      <point x="163" y="601"/>
      <point x="140" y="629"/>
    </contour>
  </outline>
</glyph>
<glyph name="k" format="1">
  <advance width="574"/>
  <unicode hex="006B"/>
  <outline>
    <contour>
      <point x="591" y="510" type="line" name="hr00"/>
      <point x="410" y="336" type="line"/>
      <point x="565" y="0" type="line"/>
      <point x="445" y="0" type="line"/>
      <point x="354" y="221" type="line"/>
      <point x="336" y="266" type="line"/>
      <point x="252" y="182" type="line"/>
      <point x="244" y="230"/>
      <point x="259" y="291"/>
      <point x="300" y="337" type="curve" smooth="yes"/>
      <point x="314" y="354"/>
      <point x="329" y="369"/>
      <point x="344" y="385" type="curve" smooth="yes"/>
      <point x="473" y="517" type="line"/>
    </contour>
    <contour>
      <point x="272" y="751" type="line"/>
      <point x="180" y="0" type="line"/>
      <point x="74" y="0" type="line"/>
      <point x="167" y="758" type="line"/>
    </contour>
  </outline>
</glyph>
<glyph name="l" format="1">
  <advance width="253"/>
  <unicode hex="006C"/>
  <outline>
    <contour>
      <point x="271" y="751" type="line" name="hr00"/>
      <point x="179" y="0" type="line"/>
      <point x="74" y="0" type="line"/>
      <point x="167" y="758" type="line"/>
    </contour>
  </outline>
</glyph>
<glyph name="m" format="1">
  <advance width="895"/>
  <unicode hex="006D"/>
  <outline>
    <contour>
      <point x="718" y="0" type="line"/>
      <point x="763" y="373" type="line" smooth="yes"/>
      <point x="769" y="416"/>
      <point x="754" y="446"/>
      <point x="713" y="446" type="curve" smooth="yes"/>
      <point x="688" y="446"/>
      <point x="656" y="432"/>
      <point x="629" y="438" type="curve" smooth="yes"/>
      <point x="608" y="440"/>
      <point x="592" y="457"/>
      <point x="579" y="478" type="curve"/>
      <point x="656" y="516"/>
      <point x="705" y="528"/>
      <point x="744" y="528" type="curve" smooth="yes"/>
      <point x="820" y="528"/>
      <point x="885" y="487"/>
      <point x="871" y="367" type="curve" smooth="yes"/>
      <point x="826" y="0" type="line"/>
    </contour>
    <contour>
      <point x="397" y="0" type="line"/>
      <point x="442" y="373" type="line" smooth="yes"/>
      <point x="448" y="416"/>
      <point x="435" y="446"/>
      <point x="397" y="446" type="curve" smooth="yes"/>
      <point x="371" y="446"/>
      <point x="342" y="433"/>
      <point x="317" y="439" type="curve" smooth="yes"/>
      <point x="297" y="441"/>
      <point x="282" y="458"/>
      <point x="268" y="479" type="curve"/>
      <point x="345" y="517"/>
      <point x="390" y="528"/>
      <point x="429" y="528" type="curve" smooth="yes"/>
      <point x="505" y="528"/>
      <point x="565" y="487"/>
      <point x="551" y="367" type="curve" smooth="yes"/>
      <point x="506" y="0" type="line"/>
    </contour>
    <contour>
      <point x="123" y="512" type="curve"/>
      <point x="209" y="517" type="line" name="hr01"/>
      <point x="237" y="481"/>
      <point x="239" y="447"/>
      <point x="234" y="407" type="curve" smooth="yes"/>
      <point x="185" y="0" type="line"/>
      <point x="76" y="0" type="line"/>
      <point x="123" y="386" type="line" smooth="yes"/>
      <point x="127" y="423"/>
      <point x="128" y="465"/>
    </contour>
  </outline>
</glyph>
<glyph name="n" format="1">
  <advance width="580"/>
  <unicode hex="006E"/>
  <outline>
    <contour>
      <point x="402" y="0" type="line"/>
      <point x="447" y="373" type="line" smooth="yes"/>
      <point x="453" y="416"/>
      <point x="438" y="446"/>
      <point x="399" y="446" type="curve" smooth="yes"/>
      <point x="373" y="446"/>
      <point x="344" y="432"/>
      <point x="317" y="438" type="curve" smooth="yes"/>
      <point x="297" y="440"/>
      <point x="282" y="457"/>
      <point x="269" y="477" type="curve"/>
      <point x="343" y="517"/>
      <point x="390" y="528"/>
      <point x="429" y="528" type="curve" smooth="yes"/>
      <point x="505" y="528"/>
      <point x="570" y="487"/>
      <point x="556" y="367" type="curve" smooth="yes"/>
      <point x="511" y="0" type="line"/>
    </contour>
    <contour>
      <point x="122" y="512" type="curve"/>
      <point x="208" y="517" type="line" name="hr01"/>
      <point x="236" y="481"/>
      <point x="238" y="447"/>
      <point x="233" y="407" type="curve" smooth="yes"/>
      <point x="184" y="0" type="line"/>
      <point x="76" y="0" type="line"/>
      <point x="123" y="386" type="line" smooth="yes"/>
      <point x="127" y="423"/>
      <point x="127" y="465"/>
    </contour>
  </outline>
</glyph>
<glyph name="o" format="1">
  <advance width="580"/>
  <unicode hex="006F"/>
  <outline>
    <contour>
      <point x="185" y="259" type="curve" smooth="yes" name="hr00"/>
      <point x="172" y="148"/>
      <point x="212" y="70"/>
      <point x="298" y="70" type="curve" smooth="yes"/>
      <point x="390" y="70"/>
      <point x="444" y="156"/>
      <point x="456" y="259" type="curve" smooth="yes"/>
      <point x="471" y="381"/>
      <point x="421" y="447"/>
      <point x="344" y="447" type="curve" smooth="yes"/>
      <point x="268" y="447"/>
      <point x="200" y="381"/>
    </contour>
    <contour>
      <point x="72" y="259" type="curve" smooth="yes"/>
      <point x="95" y="443"/>
      <point x="237" y="528"/>
      <point x="354" y="528" type="curve" smooth="yes"/>
      <point x="509" y="528"/>
      <point x="589" y="412"/>
      <point x="570" y="259" type="curve" smooth="yes"/>
      <point x="549" y="86"/>
      <point x="418" y="-11"/>
      <point x="288" y="-11" type="curve" smooth="yes"/>
      <point x="152" y="-11"/>
      <point x="51" y="85"/>
    </contour>
  </outline>
</glyph>
<glyph name="p" format="1">
  <advance width="591"/>
  <unicode hex="0070"/>
  <outline>
    <contour>
      <point x="580" y="256" type="curve" smooth="yes"/>
      <point x="561" y="101"/>
      <point x="438" y="-7"/>
      <point x="320" y="-7" type="curve" smooth="yes"/>
      <point x="288" y="-7"/>
      <point x="256" y="-3"/>
      <point x="218" y="10" type="curve"/>
      <point x="240" y="47"/>
      <point x="271" y="73"/>
      <point x="313" y="73" type="curve" smooth="yes"/>
      <point x="386" y="73"/>
      <point x="452" y="133"/>
      <point x="467" y="256" type="curve" smooth="yes"/>
      <point x="480" y="365"/>
      <point x="445" y="447"/>
      <point x="363" y="447" type="curve" smooth="yes"/>
      <point x="319" y="447"/>
      <point x="275" y="424"/>
      <point x="228" y="375" type="curve"/>
      <point x="152" y="-241" type="line"/>
      <point x="47" y="-234" type="line"/>
      <point x="116" y="336" type="line" smooth="yes"/>
      <point x="125" y="412"/>
      <point x="127" y="466"/>
      <point x="123" y="512" type="curve"/>
      <point x="202" y="517" type="line" name="hr01"/>
      <point x="217" y="504"/>
      <point x="226" y="489"/>
      <point x="231" y="464" type="curve"/>
      <point x="231" y="447" type="line" name="hr02"/>
      <point x="244" y="465" type="line"/>
      <point x="294" y="512"/>
      <point x="350" y="528"/>
      <point x="391" y="528" type="curve" smooth="yes"/>
      <point x="532" y="528"/>
      <point x="599" y="410"/>
    </contour>
  </outline>
</glyph>
<glyph name="q" format="1">
  <advance width="569"/>
  <unicode hex="0071"/>
  <outline>
    <contour>
      <point x="361" y="36" type="curve" name="hr00"/>
      <point x="325" y="12"/>
      <point x="286" y="-3"/>
      <point x="255" y="-6" type="curve"/>
      <point x="134" y="-20"/>
      <point x="53" y="101"/>
      <point x="71" y="251" type="curve" smooth="yes"/>
      <point x="91" y="413"/>
      <point x="214" y="528"/>
      <point x="376" y="528" type="curve" smooth="yes"/>
      <point x="432" y="528"/>
      <point x="482" y="520"/>
      <point x="557" y="496" type="curve"/>
      <point x="467" y="-241" type="line"/>
      <point x="364" y="-234" type="line"/>
      <point x="446" y="436" type="line"/>
      <point x="417" y="444"/>
      <point x="392" y="447"/>
      <point x="367" y="447" type="curve" smooth="yes"/>
      <point x="270" y="447"/>
      <point x="199" y="374"/>
      <point x="184" y="251" type="curve" smooth="yes"/>
      <point x="172" y="153"/>
      <point x="198" y="66"/>
      <point x="284" y="78" type="curve" smooth="yes"/>
      <point x="316" y="82"/>
      <point x="340" y="67"/>
    </contour>
  </outline>
</glyph>
<glyph name="r" format="1">
  <advance width="375"/>
  <unicode hex="0072"/>
  <outline>
    <contour>
      <point x="122" y="512" type="curve"/>
      <point x="203" y="517" type="line"/>
      <point x="219" y="499"/>
      <point x="224" y="471"/>
      <point x="226" y="439" type="curve"/>
      <point x="224" y="419" type="line"/>
      <point x="235" y="439" type="line"/>
      <point x="268" y="490"/>
      <point x="323" y="525"/>
      <point x="374" y="525" type="curve" smooth="yes" name="hr01"/>
      <point x="391" y="525"/>
      <point x="408" y="522"/>
      <point x="427" y="516" type="curve"/>
      <point x="403" y="428" type="line"/>
      <point x="381" y="433"/>
      <point x="366" y="435"/>
      <point x="353" y="435" type="curve" smooth="yes"/>
      <point x="289" y="435"/>
      <point x="223" y="380"/>
      <point x="209" y="266" type="curve" smooth="yes"/>
      <point x="177" y="0" type="line"/>
      <point x="76" y="0" type="line"/>
      <point x="117" y="340" type="line" smooth="yes"/>
      <point x="124" y="397"/>
      <point x="128" y="460"/>
    </contour>
  </outline>
</glyph>
<glyph name="s" format="1">
  <advance width="427"/>
  <unicode hex="0073"/>
  <outline>
    <contour>
      <point x="37" y="32" type="curve" name="hr00"/>
      <point x="74" y="106" type="line"/>
      <point x="124" y="81"/>
      <point x="175" y="71"/>
      <point x="217" y="71" type="curve" smooth="yes"/>
      <point x="274" y="71"/>
      <point x="305" y="100"/>
      <point x="310" y="139" type="curve" smooth="yes"/>
      <point x="322" y="242"/>
      <point x="78" y="223"/>
      <point x="98" y="388" type="curve" smooth="yes"/>
      <point x="106" y="452"/>
      <point x="168" y="526"/>
      <point x="282" y="526" type="curve" smooth="yes"/>
      <point x="322" y="526"/>
      <point x="366" y="520"/>
      <point x="422" y="500" type="curve"/>
      <point x="387" y="428" type="line"/>
      <point x="344" y="442"/>
      <point x="311" y="447"/>
      <point x="281" y="447" type="curve" smooth="yes"/>
      <point x="238" y="447"/>
      <point x="205" y="427"/>
      <point x="200" y="389" type="curve" smooth="yes"/>
      <point x="188" y="289"/>
      <point x="432" y="304"/>
      <point x="411" y="137" type="curve" smooth="yes"/>
      <point x="401" y="55"/>
      <point x="311" y="-10"/>
      <point x="222" y="-10" type="curve" smooth="yes"/>
      <point x="171" y="-10"/>
      <point x="114" y="-6"/>
    </contour>
  </outline>
</glyph>
<glyph name="t" format="1">
  <advance width="413"/>
  <unicode hex="0074"/>
  <outline>
    <contour>
      <point x="442" y="439" type="line" name="hr00"/>
      <point x="388" y="439" type="line" smooth="yes"/>
      <point x="338" y="439"/>
      <point x="318" y="477"/>
      <point x="310" y="517" type="curve"/>
      <point x="452" y="517" type="line"/>
    </contour>
    <contour>
      <point x="134" y="193" type="curve"/>
      <point x="164" y="439" type="line"/>
      <point x="74" y="439" type="line"/>
      <point x="81" y="494" type="line"/>
      <point x="174" y="517" type="line"/>
      <point x="190" y="646" type="line"/>
      <point x="294" y="679" type="line"/>
      <point x="233" y="185" type="line" smooth="yes"/>
      <point x="225" y="117"/>
      <point x="251" y="68"/>
      <point x="299" y="68" type="curve" smooth="yes"/>
      <point x="323" y="68"/>
      <point x="345" y="72"/>
      <point x="382" y="83" type="curve"/>
      <point x="397" y="12" type="line"/>
      <point x="344" y="-5"/>
      <point x="318" y="-12"/>
      <point x="285" y="-12" type="curve" smooth="yes"/>
      <point x="171" y="-12"/>
      <point x="118" y="63"/>
    </contour>
  </outline>
</glyph>
<glyph name="u" format="1">
  <advance width="575"/>
  <unicode hex="0075"/>
  <outline>
    <contour>
      <point x="239" y="517" type="line"/>
      <point x="193" y="144" type="line" smooth="yes"/>
      <point x="188" y="101"/>
      <point x="201" y="71"/>
      <point x="240" y="71" type="curve" smooth="yes"/>
      <point x="260" y="71"/>
      <point x="285" y="81"/>
      <point x="310" y="81" type="curve" smooth="yes"/>
      <point x="336" y="80"/>
      <point x="355" y="63"/>
      <point x="371" y="40" type="curve"/>
      <point x="297" y="0"/>
      <point x="249" y="-11"/>
      <point x="210" y="-11" type="curve" smooth="yes"/>
      <point x="134" y="-11"/>
      <point x="72" y="30"/>
      <point x="87" y="150" type="curve" smooth="yes"/>
      <point x="132" y="517" type="line"/>
    </contour>
    <contour>
      <point x="516" y="5" type="curve"/>
      <point x="432" y="0" type="line" name="hr01"/>
      <point x="404" y="36"/>
      <point x="401" y="70"/>
      <point x="406" y="110" type="curve" smooth="yes"/>
      <point x="456" y="517" type="line"/>
      <point x="562" y="517" type="line"/>
      <point x="515" y="131" type="line" smooth="yes"/>
      <point x="510" y="94"/>
      <point x="510" y="52"/>
    </contour>
  </outline>
</glyph>
<glyph name="v" format="1">
  <advance width="517"/>
  <unicode hex="0076"/>
  <outline>
    <contour>
      <point x="315" y="0" type="line" name="hr00"/>
      <point x="202" y="0" type="line"/>
      <point x="71" y="517" type="line"/>
      <point x="185" y="517" type="line"/>
      <point x="273" y="98" type="line"/>
      <point x="283" y="125" type="line"/>
      <point x="462" y="517" type="line"/>
      <point x="569" y="510" type="line"/>
    </contour>
  </outline>
</glyph>
<glyph name="w" format="1">
  <advance width="831"/>
  <unicode hex="0077"/>
  <outline>
    <contour>
      <point x="639" y="0" type="line" name="hr00"/>
      <point x="524" y="0" type="line"/>
      <point x="405" y="517" type="line"/>
      <point x="519" y="517" type="line"/>
      <point x="596" y="98" type="line"/>
      <point x="774" y="517" type="line"/>
      <point x="880" y="510" type="line"/>
    </contour>
    <contour>
      <point x="389" y="160" type="curve"/>
      <point x="303" y="0" type="line"/>
      <point x="193" y="0" type="line"/>
      <point x="73" y="517" type="line"/>
      <point x="187" y="517" type="line"/>
      <point x="264" y="98" type="line"/>
      <point x="274" y="125" type="line"/>
      <point x="388" y="355" type="line"/>
      <point x="414" y="315"/>
      <point x="424" y="230"/>
    </contour>
  </outline>
</glyph>
<glyph name="x" format="1">
  <advance width="499"/>
  <unicode hex="0078"/>
  <outline>
    <contour>
      <point x="200" y="94" type="curve" name="hr00"/>
      <point x="130" y="0" type="line"/>
      <point x="17" y="0" type="line"/>
      <point x="198" y="224" type="line"/>
      <point x="221" y="192"/>
      <point x="234" y="140"/>
    </contour>
    <contour>
      <point x="483" y="0" type="line"/>
      <point x="364" y="0" type="line"/>
      <point x="320" y="86"/>
      <point x="275" y="171"/>
      <point x="229" y="256" type="curve" smooth="yes"/>
      <point x="89" y="517" type="line"/>
      <point x="210" y="517" type="line"/>
      <point x="287" y="348" type="line"/>
      <point x="291" y="327" type="line"/>
      <point x="301" y="348" type="line"/>
      <point x="422" y="517" type="line"/>
      <point x="530" y="510" type="line"/>
      <point x="334" y="261" type="line"/>
    </contour>
  </outline>
</glyph>
<glyph name="y" format="1">
  <advance width="527"/>
  <unicode hex="0079"/>
  <outline>
    <contour>
      <point x="95" y="-166" type="curve" smooth="yes" name="hr00"/>
      <point x="170" y="-166"/>
      <point x="203" y="-82"/>
      <point x="259" y="37" type="curve"/>
      <point x="471" y="517" type="line"/>
      <point x="578" y="510" type="line"/>
      <point x="336" y="11" type="line"/>
      <point x="261" y="-138"/>
      <point x="213" y="-247"/>
      <point x="85" y="-247" type="curve" smooth="yes"/>
      <point x="58" y="-246"/>
      <point x="27" y="-240"/>
      <point x="0" y="-230" type="curve"/>
      <point x="35" y="-157" type="line"/>
      <point x="56" y="-163"/>
      <point x="76" y="-166"/>
    </contour>
    <contour>
      <point x="185" y="517" type="line"/>
      <point x="206" y="408"/>
      <point x="233" y="295"/>
      <point x="246" y="188" type="curve"/>
      <point x="254" y="121"/>
      <point x="229" y="47"/>
      <point x="196" y="11" type="curve"/>
      <point x="72" y="517" type="line"/>
    </contour>
  </outline>
</glyph>
<glyph name="z" format="1">
  <advance width="459"/>
  <unicode hex="007A"/>
  <outline>
    <contour>
      <point x="112" y="442" type="line" name="hr00"/>
      <point x="121" y="517" type="line"/>
      <point x="478" y="517" type="line"/>
      <point x="473" y="473" type="line"/>
      <point x="204" y="126" type="line" smooth="yes"/>
      <point x="194" y="114"/>
      <point x="186" y="102"/>
      <point x="177" y="91" type="curve"/>
      <point x="160" y="74" type="line"/>
      <point x="182" y="77" type="line"/>
      <point x="429" y="77" type="line"/>
      <point x="420" y="0" type="line"/>
      <point x="27" y="0" type="line"/>
      <point x="32" y="44" type="line"/>
      <point x="330" y="428" type="line"/>
      <point x="347" y="445" type="line"/>
      <point x="326" y="442" type="line"/>
    </contour>
  </outline>
</glyph>
<glyph name="braceleft" format="1">
  <advance width="342"/>
  <unicode hex="007B"/>
  <outline>
    <contour>
      <point x="126" y="191" type="curve" smooth="yes" name="hr00"/>
      <point x="129" y="238"/>
      <point x="89" y="265"/>
      <point x="39" y="274" type="curve"/>
      <point x="47" y="335" type="line"/>
      <point x="99" y="344"/>
      <point x="146" y="371"/>
      <point x="156" y="418" type="curve" smooth="yes"/>
      <point x="188" y="582"/>
      <point x="244" y="684"/>
      <point x="378" y="767" type="curve"/>
      <point x="418" y="713" type="line"/>
      <point x="316" y="636"/>
      <point x="275" y="559"/>
      <point x="251" y="439" type="curve" smooth="yes"/>
      <point x="241" y="384"/>
      <point x="206" y="342"/>
      <point x="161" y="314" type="curve"/>
      <point x="135" y="303" type="line"/>
      <point x="158" y="292" type="line"/>
      <point x="193" y="266"/>
      <point x="216" y="230"/>
      <point x="216" y="183" type="curve" smooth="yes"/>
      <point x="217" y="166"/>
      <point x="218" y="148"/>
      <point x="216" y="130" type="curve" smooth="yes"/>
      <point x="215" y="21"/>
      <point x="238" y="-51"/>
      <point x="316" y="-121" type="curve"/>
      <point x="262" y="-176" type="line"/>
      <point x="144" y="-90"/>
      <point x="115" y="13"/>
    </contour>
  </outline>
</glyph>
<glyph name="braceright" format="1">
  <advance width="342"/>
  <unicode hex="007D"/>
  <outline>
    <contour>
      <point x="262" y="191" type="curve" smooth="yes" name="hr00"/>
      <point x="230" y="13"/>
      <point x="174" y="-90"/>
      <point x="37" y="-176" type="curve"/>
      <point x="-3" y="-121" type="line"/>
      <point x="90" y="-51"/>
      <point x="133" y="21"/>
      <point x="156" y="130" type="curve" smooth="yes"/>
      <point x="174" y="205"/>
      <point x="188" y="252"/>
      <point x="256" y="293" type="curve"/>
      <point x="282" y="303" type="line"/>
      <point x="258" y="314" type="line"/>
      <point x="219" y="342"/>
      <point x="196" y="384"/>
      <point x="198" y="439" type="curve" smooth="yes"/>
      <point x="204" y="559"/>
      <point x="183" y="636"/>
      <point x="98" y="713" type="curve"/>
      <point x="153" y="767" type="line"/>
      <point x="264" y="684"/>
      <point x="296" y="582"/>
      <point x="288" y="418" type="curve"/>
      <point x="286" y="371"/>
      <point x="327" y="344"/>
      <point x="377" y="335" type="curve"/>
      <point x="369" y="274" type="line"/>
      <point x="317" y="265"/>
      <point x="272" y="238"/>
    </contour>
  </outline>
</glyph>
<glyph name="asciitilde" format="1">
  <advance width="617"/>
  <unicode hex="007E"/>
  <outline>
    <contour>
      <point x="175" y="228" type="curve" name="hr00"/>
      <point x="85" y="236" type="line"/>
      <point x="102" y="336"/>
      <point x="173" y="386"/>
      <point x="256" y="386" type="curve" smooth="yes"/>
      <point x="348" y="386"/>
      <point x="379" y="306"/>
      <point x="457" y="306" type="curve" smooth="yes"/>
      <point x="487" y="306"/>
      <point x="509" y="338"/>
      <point x="519" y="384" type="curve"/>
      <point x="609" y="376" type="line"/>
      <point x="588" y="263"/>
      <point x="518" y="227"/>
      <point x="443" y="226" type="curve" smooth="yes"/>
      <point x="345" y="225"/>
      <point x="315" y="307"/>
      <point x="244" y="307" type="curve" smooth="yes"/>
      <point x="215" y="307"/>
      <point x="186" y="280"/>
    </contour>
  </outline>
</glyph>
<glyph name="exclamdown" format="1">
  <advance width="258"/>
  <unicode hex="00A1"/>
  <outline>
    <contour>
      <point x="119" y="466" type="curve" smooth="yes" name="hr00"/>
      <point x="123" y="504"/>
      <point x="155" y="532"/>
      <point x="193" y="532" type="curve" smooth="yes"/>
      <point x="231" y="532"/>
      <point x="256" y="504"/>
      <point x="252" y="466" type="curve" smooth="yes"/>
      <point x="247" y="428"/>
      <point x="214" y="398"/>
      <point x="176" y="398" type="curve" smooth="yes"/>
      <point x="138" y="398"/>
      <point x="114" y="428"/>
    </contour>
    <contour>
      <point x="158" y="-210" type="line"/>
      <point x="50" y="-210" type="line"/>
      <point x="129" y="319" type="line"/>
      <point x="207" y="319" type="line"/>
    </contour>
  </outline>
</glyph>
<glyph name="cent" format="1">
  <advance width="462"/>
  <unicode hex="00A2"/>
  <outline>
    <contour>
      <point x="436" y="119" type="line" name="hr00"/>
      <point x="395" y="100"/>
      <point x="358" y="91"/>
      <point x="328" y="86" type="curve"/>
      <point x="316" y="-14" type="line"/>
      <point x="236" y="-14" type="line"/>
      <point x="248" y="88" type="line"/>
      <point x="137" y="107"/>
      <point x="62" y="197"/>
      <point x="81" y="354" type="curve" smooth="yes"/>
      <point x="100" y="507"/>
      <point x="200" y="598"/>
      <point x="313" y="618" type="curve"/>
      <point x="325" y="716" type="line"/>
      <point x="405" y="716" type="line"/>
      <point x="394" y="622" type="line"/>
      <point x="423" y="619"/>
      <point x="454" y="613"/>
      <point x="481" y="602" type="curve"/>
      <point x="445" y="528" type="line"/>
      <point x="412" y="538"/>
      <point x="380" y="542"/>
      <point x="353" y="542" type="curve" smooth="yes"/>
      <point x="278" y="542"/>
      <point x="209" y="480"/>
      <point x="194" y="354" type="curve" smooth="yes"/>
      <point x="178" y="228"/>
      <point x="231" y="165"/>
      <point x="307" y="165" type="curve" smooth="yes"/>
      <point x="335" y="165"/>
      <point x="370" y="173"/>
      <point x="417" y="193" type="curve"/>
    </contour>
  </outline>
</glyph>
<glyph name="sterling" format="1">
  <advance width="537"/>
  <unicode hex="00A3"/>
  <outline>
    <contour>
      <point x="477" y="316" type="line" name="hr00"/>
      <point x="405" y="316" type="line" smooth="yes"/>
      <point x="354" y="316"/>
      <point x="336" y="351"/>
      <point x="327" y="391" type="curve"/>
      <point x="487" y="391" type="line"/>
    </contour>
    <contour>
      <point x="274" y="197" type="curve"/>
      <point x="259" y="160"/>
      <point x="240" y="135"/>
      <point x="213" y="106" type="curve"/>
      <point x="190" y="87" type="line"/>
      <point x="215" y="89" type="line"/>
      <point x="480" y="89" type="line"/>
      <point x="470" y="0" type="line"/>
      <point x="37" y="0" type="line"/>
      <point x="44" y="65" type="line"/>
      <point x="121" y="101"/>
      <point x="180" y="164"/>
      <point x="189" y="242" type="curve" smooth="yes"/>
      <point x="192" y="266"/>
      <point x="194" y="289"/>
      <point x="192" y="316" type="curve"/>
      <point x="96" y="316" type="line"/>
      <point x="106" y="391" type="line"/>
      <point x="191" y="391" type="line"/>
      <point x="188" y="422"/>
      <point x="189" y="470"/>
      <point x="194" y="512" type="curve" smooth="yes"/>
      <point x="210" y="641"/>
      <point x="311" y="712"/>
      <point x="429" y="712" type="curve" smooth="yes"/>
      <point x="476" y="712"/>
      <point x="523" y="702"/>
      <point x="578" y="675" type="curve"/>
      <point x="541" y="600" type="line"/>
      <point x="494" y="623"/>
      <point x="447" y="631"/>
      <point x="419" y="631" type="curve" smooth="yes"/>
      <point x="348" y="631"/>
      <point x="304" y="584"/>
      <point x="295" y="511" type="curve" smooth="yes"/>
      <point x="280" y="390"/>
      <point x="306" y="296"/>
    </contour>
  </outline>
</glyph>
<glyph name="currency" format="1">
  <advance width="590"/>
  <unicode hex="00A4"/>
  <outline>
    <contour>
      <point x="352" y="481" type="curve" smooth="yes" name="hr00"/>
      <point x="284" y="481"/>
      <point x="230" y="418"/>
      <point x="220" y="340" type="curve" smooth="yes"/>
      <point x="209" y="249"/>
      <point x="264" y="201"/>
      <point x="316" y="201" type="curve" smooth="yes"/>
      <point x="373" y="201"/>
      <point x="437" y="250"/>
      <point x="449" y="343" type="curve" smooth="yes"/>
      <point x="457" y="412"/>
      <point x="423" y="481"/>
    </contour>
    <contour>
      <point x="360" y="544" type="curve" smooth="yes"/>
      <point x="407" y="544"/>
      <point x="446" y="528"/>
      <point x="470" y="505" type="curve"/>
      <point x="555" y="576" type="line"/>
      <point x="592" y="531" type="line"/>
      <point x="504" y="460" type="line"/>
      <point x="520" y="434"/>
      <point x="530" y="392"/>
      <point x="524" y="344" type="curve" smooth="yes"/>
      <point x="517" y="291"/>
      <point x="496" y="248"/>
      <point x="475" y="223" type="curve"/>
      <point x="543" y="149" type="line"/>
      <point x="495" y="106" type="line"/>
      <point x="429" y="178" type="line"/>
      <point x="398" y="152"/>
      <point x="351" y="137"/>
      <point x="309" y="137" type="curve" smooth="yes"/>
      <point x="267" y="137"/>
      <point x="225" y="152"/>
      <point x="202" y="176" type="curve"/>
      <point x="121" y="105" type="line"/>
      <point x="83" y="150" type="line"/>
      <point x="166" y="221" type="line"/>
      <point x="150" y="246"/>
      <point x="138" y="290"/>
      <point x="144" y="340" type="curve" smooth="yes"/>
      <point x="151" y="391"/>
      <point x="174" y="433"/>
      <point x="197" y="460" type="curve"/>
      <point x="130" y="531" type="line"/>
      <point x="178" y="576" type="line"/>
      <point x="244" y="505" type="line"/>
      <point x="273" y="528"/>
      <point x="316" y="544"/>
    </contour>
  </outline>
</glyph>
<glyph name="yen" format="1">
  <advance width="658"/>
  <unicode hex="00A5"/>
  <outline>
    <contour>
      <point x="454" y="518" type="curve" name="hr00"/>
      <point x="596" y="727" type="line"/>
      <point x="716" y="727" type="line"/>
      <point x="459" y="376" type="line"/>
      <point x="439" y="408"/>
      <point x="419" y="466"/>
    </contour>
    <contour>
      <point x="150" y="259" type="line"/>
      <point x="157" y="312" type="line"/>
      <point x="317" y="312" type="line"/>
      <point x="317" y="312"/>
      <point x="317" y="312"/>
      <point x="317" y="313" type="curve"/>
      <point x="118" y="727" type="line"/>
      <point x="240" y="727" type="line"/>
      <point x="426" y="338" type="line"/>
      <point x="423" y="312" type="line"/>
      <point x="582" y="312" type="line"/>
      <point x="575" y="259" type="line"/>
      <point x="416" y="259" type="line"/>
      <point x="408" y="188" type="line"/>
      <point x="567" y="188" type="line"/>
      <point x="560" y="135" type="line"/>
      <point x="401" y="135" type="line"/>
      <point x="385" y="0" type="line"/>
      <point x="279" y="0" type="line"/>
      <point x="295" y="135" type="line"/>
      <point x="135" y="135" type="line"/>
      <point x="142" y="188" type="line"/>
      <point x="302" y="188" type="line"/>
      <point x="310" y="259" type="line"/>
    </contour>
  </outline>
</glyph>
<glyph name="brokenbar" format="1">
  <advance width="232"/>
  <unicode hex="00A6"/>
  <outline>
    <contour>
      <point x="127" y="-293" type="line" name="hr00"/>
      <point x="33" y="-293" type="line"/>
      <point x="86" y="141" type="line"/>
      <point x="180" y="141" type="line"/>
    </contour>
    <contour>
      <point x="210" y="387" type="line"/>
      <point x="116" y="387" type="line"/>
      <point x="168" y="811" type="line"/>
      <point x="262" y="811" type="line"/>
    </contour>
  </outline>
</glyph>
<glyph name="section" format="1">
  <advance width="507"/>
  <unicode hex="00A7"/>
  <outline>
    <contour>
      <point x="410" y="330" type="curve" smooth="yes" name="hr00"/>
      <point x="416" y="381"/>
      <point x="343" y="402"/>
      <point x="272" y="432" type="curve"/>
      <point x="225" y="412"/>
      <point x="197" y="386"/>
      <point x="193" y="354" type="curve" smooth="yes"/>
      <point x="186" y="300"/>
      <point x="266" y="279"/>
      <point x="341" y="246" type="curve"/>
      <point x="385" y="271"/>
      <point x="406" y="300"/>
    </contour>
    <contour>
      <point x="37" y="-9" type="curve"/>
      <point x="77" y="62" type="line"/>
      <point x="134" y="38"/>
      <point x="197" y="27"/>
      <point x="247" y="27" type="curve" smooth="yes"/>
      <point x="321" y="27"/>
      <point x="362" y="53"/>
      <point x="367" y="96" type="curve" smooth="yes"/>
      <point x="381" y="205"/>
      <point x="78" y="183"/>
      <point x="99" y="352" type="curve" smooth="yes"/>
      <point x="103" y="389"/>
      <point x="133" y="429"/>
      <point x="182" y="456" type="curve"/>
      <point x="209" y="466" type="line"/>
      <point x="189" y="475" type="line"/>
      <point x="153" y="501"/>
      <point x="131" y="534"/>
      <point x="137" y="585" type="curve" smooth="yes"/>
      <point x="146" y="653"/>
      <point x="226" y="720"/>
      <point x="341" y="720" type="curve" smooth="yes"/>
      <point x="386" y="720"/>
      <point x="439" y="714"/>
      <point x="504" y="694" type="curve"/>
      <point x="466" y="623" type="line"/>
      <point x="417" y="637"/>
      <point x="376" y="643"/>
      <point x="343" y="643" type="curve" smooth="yes"/>
      <point x="280" y="643"/>
      <point x="240" y="623"/>
      <point x="235" y="586" type="curve" smooth="yes"/>
      <point x="222" y="478"/>
      <point x="525" y="498"/>
      <point x="503" y="325" type="curve" smooth="yes"/>
      <point x="498" y="281"/>
      <point x="466" y="244"/>
      <point x="424" y="220" type="curve"/>
      <point x="399" y="211" type="line"/>
      <point x="419" y="202" type="line"/>
      <point x="451" y="176"/>
      <point x="472" y="142"/>
      <point x="466" y="93" type="curve" smooth="yes"/>
      <point x="455" y="7"/>
      <point x="359" y="-51"/>
      <point x="251" y="-51" type="curve" smooth="yes"/>
      <point x="194" y="-51"/>
      <point x="121" y="-46"/>
    </contour>
  </outline>
</glyph>
<glyph name="dieresis" format="1">
  <advance width="442"/>
  <unicode hex="00A8"/>
  <outline>
    <contour>
      <point x="334" y="670" type="curve" smooth="yes" name="hr00"/>
      <point x="338" y="701"/>
      <point x="367" y="725"/>
      <point x="397" y="725" type="curve" smooth="yes"/>
      <point x="427" y="725"/>
      <point x="450" y="701"/>
      <point x="446" y="670" type="curve" smooth="yes"/>
      <point x="442" y="639"/>
      <point x="413" y="615"/>
      <point x="383" y="615" type="curve" smooth="yes"/>
      <point x="353" y="615"/>
      <point x="330" y="639"/>
    </contour>
    <contour>
      <point x="140" y="670" type="curve" smooth="yes"/>
      <point x="144" y="701"/>
      <point x="172" y="725"/>
      <point x="202" y="725" type="curve" smooth="yes"/>
      <point x="233" y="725"/>
      <point x="255" y="701"/>
      <point x="251" y="670" type="curve" smooth="yes"/>
      <point x="247" y="639"/>
      <point x="219" y="615"/>
      <point x="188" y="615" type="curve" smooth="yes"/>
      <point x="158" y="615"/>
      <point x="136" y="639"/>
    </contour>
  </outline>
</glyph>
<glyph name="copyright" format="1">
  <advance width="752"/>
  <unicode hex="00A9"/>
  <outline>
    <contour>
      <point x="418" y="176" type="curve" smooth="yes" name="hr00"/>
      <point x="327" y="176"/>
      <point x="261" y="240"/>
      <point x="275" y="357" type="curve" smooth="yes"/>
      <point x="290" y="473"/>
      <point x="373" y="537"/>
      <point x="462" y="537" type="curve" smooth="yes"/>
      <point x="487" y="537"/>
      <point x="517" y="532"/>
      <point x="544" y="523" type="curve"/>
      <point x="519" y="470" type="line"/>
      <point x="496" y="478"/>
      <point x="476" y="481"/>
      <point x="456" y="481" type="curve" smooth="yes"/>
      <point x="406" y="481"/>
      <point x="358" y="437"/>
      <point x="348" y="357" type="curve" smooth="yes"/>
      <point x="338" y="276"/>
      <point x="374" y="231"/>
      <point x="425" y="231" type="curve" smooth="yes"/>
      <point x="444" y="231"/>
      <point x="468" y="236"/>
      <point x="501" y="250" type="curve"/>
      <point x="513" y="199" type="line"/>
      <point x="474" y="181"/>
      <point x="439" y="176"/>
    </contour>
    <contour>
      <point x="453" y="620" type="curve" smooth="yes"/>
      <point x="306" y="619"/>
      <point x="189" y="513"/>
      <point x="170" y="354" type="curve" smooth="yes"/>
      <point x="151" y="196"/>
      <point x="241" y="93"/>
      <point x="388" y="92" type="curve"/>
      <point x="532" y="90"/>
      <point x="648" y="196"/>
      <point x="667" y="357" type="curve" smooth="yes"/>
      <point x="686" y="513"/>
      <point x="597" y="620"/>
    </contour>
    <contour>
      <point x="460" y="683" type="curve" smooth="yes"/>
      <point x="653" y="683"/>
      <point x="768" y="539"/>
      <point x="745" y="357" type="curve" smooth="yes"/>
      <point x="723" y="176"/>
      <point x="572" y="28"/>
      <point x="380" y="28" type="curve" smooth="yes"/>
      <point x="185" y="28"/>
      <point x="70" y="172"/>
      <point x="92" y="357" type="curve" smooth="yes"/>
      <point x="114" y="535"/>
      <point x="266" y="683"/>
    </contour>
  </outline>
</glyph>
<glyph name="ordfeminine" format="1">
  <advance width="403"/>
  <unicode hex="00AA"/>
  <outline>
    <contour>
      <point x="402" y="522" type="curve" name="hr00"/>
      <point x="389" y="422" type="line" smooth="yes"/>
      <point x="382" y="366"/>
      <point x="383" y="327"/>
      <point x="386" y="302" type="curve"/>
      <point x="330" y="302" type="line"/>
      <point x="316" y="312"/>
      <point x="308" y="330"/>
      <point x="310" y="350" type="curve"/>
      <point x="301" y="338" type="line"/>
      <point x="264" y="305"/>
      <point x="233" y="295"/>
      <point x="197" y="295" type="curve" smooth="yes"/>
      <point x="127" y="295"/>
      <point x="84" y="336"/>
      <point x="91" y="394" type="curve" smooth="yes"/>
      <point x="99" y="464"/>
      <point x="155" y="499"/>
      <point x="301" y="515" type="curve"/>
      <point x="296" y="498"/>
      <point x="281" y="461"/>
      <point x="243" y="456" type="curve"/>
      <point x="187" y="447"/>
      <point x="173" y="424"/>
      <point x="169" y="399" type="curve" smooth="yes"/>
      <point x="166" y="372"/>
      <point x="183" y="351"/>
      <point x="216" y="351" type="curve" smooth="yes"/>
      <point x="247" y="351"/>
      <point x="281" y="365"/>
      <point x="312" y="400" type="curve"/>
      <point x="327" y="527" type="line" smooth="yes"/>
      <point x="334" y="582"/>
      <point x="311" y="614"/>
      <point x="252" y="614" type="curve" smooth="yes"/>
      <point x="227" y="614"/>
      <point x="201" y="609"/>
      <point x="168" y="597" type="curve"/>
      <point x="157" y="647" type="line"/>
      <point x="204" y="667"/>
      <point x="241" y="671"/>
      <point x="272" y="671" type="curve" smooth="yes"/>
      <point x="365" y="671"/>
      <point x="413" y="616"/>
    </contour>
  </outline>
</glyph>
<glyph name="logicalnot" format="1">
  <advance width="627"/>
  <unicode hex="00AC"/>
  <outline>
    <contour>
      <point x="116" y="443" type="line" name="hr00"/>
      <point x="607" y="443" type="line"/>
      <point x="572" y="156" type="line"/>
      <point x="489" y="156" type="line"/>
      <point x="515" y="369" type="line"/>
      <point x="107" y="369" type="line"/>
    </contour>
  </outline>
</glyph>
<glyph name="registered" format="1">
  <advance width="752"/>
  <unicode hex="00AE"/>
  <outline>
    <contour>
      <point x="563" y="431" type="curve" smooth="yes" name="hr00"/>
      <point x="558" y="390"/>
      <point x="530" y="358"/>
      <point x="488" y="344" type="curve"/>
      <point x="536" y="315"/>
      <point x="522" y="255"/>
      <point x="545" y="189" type="curve"/>
      <point x="473" y="189" type="line"/>
      <point x="454" y="243"/>
      <point x="468" y="312"/>
      <point x="421" y="331" type="curve"/>
      <point x="408" y="331"/>
      <point x="410" y="331"/>
      <point x="396" y="331" type="curve"/>
      <point x="405" y="350"/>
      <point x="418" y="374"/>
      <point x="448" y="379" type="curve" smooth="yes"/>
      <point x="472" y="383"/>
      <point x="489" y="406"/>
      <point x="492" y="431" type="curve" smooth="yes"/>
      <point x="496" y="460"/>
      <point x="473" y="483"/>
      <point x="433" y="483" type="curve" smooth="yes"/>
      <point x="421" y="483"/>
      <point x="413" y="482"/>
      <point x="394" y="480" type="curve"/>
      <point x="359" y="189" type="line"/>
      <point x="291" y="189" type="line"/>
      <point x="332" y="522" type="line"/>
      <point x="371" y="531"/>
      <point x="404" y="536"/>
      <point x="439" y="536" type="curve" smooth="yes"/>
      <point x="518" y="536"/>
      <point x="571" y="496"/>
    </contour>
    <contour>
      <point x="453" y="620" type="curve" smooth="yes"/>
      <point x="306" y="619"/>
      <point x="189" y="513"/>
      <point x="170" y="354" type="curve" smooth="yes"/>
      <point x="151" y="196"/>
      <point x="241" y="93"/>
      <point x="388" y="92" type="curve"/>
      <point x="532" y="90"/>
      <point x="648" y="196"/>
      <point x="667" y="357" type="curve" smooth="yes"/>
      <point x="686" y="513"/>
      <point x="597" y="620"/>
    </contour>
    <contour>
      <point x="460" y="683" type="curve" smooth="yes"/>
      <point x="653" y="683"/>
      <point x="768" y="539"/>
      <point x="745" y="357" type="curve" smooth="yes"/>
      <point x="723" y="176"/>
      <point x="572" y="28"/>
      <point x="380" y="28" type="curve" smooth="yes"/>
      <point x="185" y="28"/>
      <point x="70" y="172"/>
      <point x="92" y="357" type="curve" smooth="yes"/>
      <point x="114" y="535"/>
      <point x="266" y="683"/>
    </contour>
  </outline>
</glyph>
<glyph name="degree" format="1">
  <advance width="370"/>
  <unicode hex="00B0"/>
  <outline>
    <contour>
      <point x="112" y="623" type="curve" smooth="yes" name="hr00"/>
      <point x="122" y="701"/>
      <point x="197" y="766"/>
      <point x="279" y="766" type="curve" smooth="yes"/>
      <point x="351" y="766"/>
      <point x="421" y="714"/>
      <point x="410" y="623" type="curve" smooth="yes"/>
      <point x="399" y="534"/>
      <point x="315" y="480"/>
      <point x="243" y="480" type="curve" smooth="yes"/>
      <point x="164" y="480"/>
      <point x="102" y="539"/>
    </contour>
    <contour>
      <point x="272" y="710" type="curve" smooth="yes"/>
      <point x="221" y="710"/>
      <point x="186" y="667"/>
      <point x="181" y="623" type="curve" smooth="yes"/>
      <point x="175" y="577"/>
      <point x="199" y="537"/>
      <point x="250" y="537" type="curve" smooth="yes"/>
      <point x="303" y="537"/>
      <point x="337" y="583"/>
      <point x="342" y="623" type="curve" smooth="yes"/>
      <point x="349" y="677"/>
      <point x="314" y="710"/>
    </contour>
  </outline>
</glyph>
<glyph name="plusminus" format="1">
  <advance width="586"/>
  <unicode hex="00B1"/>
  <outline>
    <contour>
      <point x="527" y="0" type="line" name="hr00"/>
      <point x="59" y="0" type="line"/>
      <point x="67" y="73" type="line"/>
      <point x="535" y="73" type="line"/>
    </contour>
    <contour>
      <point x="95" y="298" type="line"/>
      <point x="104" y="372" type="line"/>
      <point x="296" y="372" type="line"/>
      <point x="317" y="540" type="line"/>
      <point x="400" y="540" type="line"/>
      <point x="379" y="372" type="line"/>
      <point x="572" y="372" type="line"/>
      <point x="563" y="298" type="line"/>
      <point x="370" y="298" type="line"/>
      <point x="349" y="128" type="line"/>
      <point x="266" y="128" type="line"/>
      <point x="287" y="298" type="line"/>
    </contour>
  </outline>
</glyph>
<glyph name="twosuperior" format="1">
  <advance width="350"/>
  <unicode hex="00B2"/>
  <outline>
    <contour>
      <point x="375" y="628" type="curve" smooth="yes" name="hr00"/>
      <point x="363" y="531"/>
      <point x="243" y="460"/>
      <point x="185" y="381" type="curve"/>
      <point x="175" y="371" type="line"/>
      <point x="188" y="373" type="line"/>
      <point x="347" y="373" type="line"/>
      <point x="340" y="310" type="line"/>
      <point x="78" y="310" type="line"/>
      <point x="82" y="349" type="line"/>
      <point x="174" y="476"/>
      <point x="289" y="543"/>
      <point x="299" y="621" type="curve" smooth="yes"/>
      <point x="304" y="661"/>
      <point x="277" y="678"/>
      <point x="236" y="678" type="curve" smooth="yes"/>
      <point x="213" y="678"/>
      <point x="189" y="672"/>
      <point x="163" y="661" type="curve"/>
      <point x="145" y="711" type="line"/>
      <point x="183" y="731"/>
      <point x="220" y="736"/>
      <point x="252" y="736" type="curve" smooth="yes"/>
      <point x="326" y="736"/>
      <point x="383" y="697"/>
    </contour>
  </outline>
</glyph>
<glyph name="threesuperior" format="1">
  <advance width="328"/>
  <unicode hex="00B3"/>
  <outline>
    <contour>
      <point x="356" y="639" type="curve" smooth="yes"/>
      <point x="351" y="597"/>
      <point x="315" y="560"/>
      <point x="267" y="539" type="curve"/>
      <point x="311" y="528"/>
      <point x="352" y="491"/>
      <point x="344" y="431" type="curve" smooth="yes"/>
      <point x="336" y="359"/>
      <point x="264" y="301"/>
      <point x="172" y="301" type="curve" smooth="yes"/>
      <point x="127" y="301"/>
      <point x="91" y="317"/>
      <point x="73" y="329" type="curve"/>
      <point x="98" y="380" type="line"/>
      <point x="121" y="370"/>
      <point x="144" y="360"/>
      <point x="179" y="360" type="curve" smooth="yes"/>
      <point x="231" y="360"/>
      <point x="264" y="396"/>
      <point x="269" y="433" type="curve" smooth="yes"/>
      <point x="275" y="481"/>
      <point x="238" y="503"/>
      <point x="170" y="503" type="curve"/>
      <point x="170" y="550" type="line"/>
      <point x="204" y="563" type="line" smooth="yes"/>
      <point x="238" y="577"/>
      <point x="269" y="594"/>
      <point x="276" y="623" type="curve" smooth="yes"/>
      <point x="278" y="633"/>
      <point x="278" y="642"/>
      <point x="276" y="649" type="curve" smooth="yes"/>
      <point x="272" y="665"/>
      <point x="256" y="676"/>
      <point x="231" y="676" type="curve" smooth="yes" name="hr01"/>
      <point x="208" y="676"/>
      <point x="182" y="670"/>
      <point x="154" y="660" type="curve"/>
      <point x="136" y="710" type="line"/>
      <point x="175" y="730"/>
      <point x="211" y="735"/>
      <point x="244" y="735" type="curve" smooth="yes"/>
      <point x="317" y="735"/>
      <point x="363" y="698"/>
    </contour>
  </outline>
</glyph>
<glyph name="acute" format="1">
  <advance width="322"/>
  <unicode hex="00B4"/>
  <outline>
    <contour>
      <point x="352" y="740" type="line" name="hr00"/>
      <point x="254" y="635" type="line" smooth="yes"/>
      <point x="220" y="598"/>
      <point x="170" y="593"/>
      <point x="138" y="602" type="curve"/>
      <point x="243" y="740" type="line"/>
    </contour>
  </outline>
</glyph>
<glyph name="mu" format="1">
  <advance width="614"/>
  <unicode hex="00B5"/>
  <unicode hex="03BC"/>
  <outline>
    <contour>
      <point x="425" y="81" type="line"/>
      <point x="412" y="58" type="line"/>
      <point x="381" y="22"/>
      <point x="338" y="-10"/>
      <point x="274" y="-10" type="curve" smooth="yes"/>
      <point x="241" y="-10"/>
      <point x="210" y="2"/>
      <point x="191" y="22" type="curve"/>
      <point x="180" y="42" type="line"/>
      <point x="178" y="32"/>
      <point x="178" y="23"/>
      <point x="177" y="13" type="curve"/>
      <point x="150" y="-211" type="line"/>
      <point x="54" y="-211" type="line"/>
      <point x="143" y="517" type="line"/>
      <point x="245" y="517" type="line"/>
      <point x="207" y="210" type="line" smooth="yes"/>
      <point x="198" y="131"/>
      <point x="225" y="72"/>
      <point x="293" y="72" type="curve" smooth="yes" name="hr01"/>
      <point x="355" y="72"/>
      <point x="418" y="129"/>
      <point x="427" y="199" type="curve" smooth="yes"/>
      <point x="466" y="517" type="line"/>
      <point x="569" y="517" type="line"/>
      <point x="524" y="148" type="line" smooth="yes"/>
      <point x="517" y="92"/>
      <point x="528" y="72"/>
      <point x="570" y="74" type="curve"/>
      <point x="571" y="4" type="line"/>
      <point x="548" y="-5"/>
      <point x="526" y="-8"/>
      <point x="511" y="-8" type="curve" smooth="yes"/>
      <point x="472" y="-8"/>
      <point x="437" y="10"/>
      <point x="428" y="59" type="curve"/>
    </contour>
  </outline>
</glyph>
<glyph name="paragraph" format="1">
  <advance width="577"/>
  <unicode hex="00B6"/>
  <outline>
    <contour>
      <point x="251" y="-30" type="line" name="hr00"/>
      <point x="292" y="304" type="line"/>
      <point x="291" y="304"/>
      <point x="290" y="305"/>
      <point x="290" y="305" type="curve"/>
      <point x="171" y="315"/>
      <point x="82" y="397"/>
      <point x="97" y="520" type="curve" smooth="yes"/>
      <point x="112" y="636"/>
      <point x="212" y="740"/>
      <point x="373" y="740" type="curve" smooth="yes"/>
      <point x="446" y="740"/>
      <point x="496" y="735"/>
      <point x="569" y="720" type="curve"/>
      <point x="477" y="-30" type="line"/>
      <point x="404" y="-30" type="line"/>
      <point x="488" y="658" type="line"/>
      <point x="459" y="663"/>
      <point x="433" y="665"/>
      <point x="409" y="666" type="curve"/>
      <point x="324" y="-30" type="line"/>
    </contour>
  </outline>
</glyph>
<glyph name="periodcentered" format="1">
  <advance width="253"/>
  <unicode hex="00B7"/>
  <outline>
    <contour>
      <point x="97" y="304" type="curve" smooth="yes" name="hr00"/>
      <point x="101" y="342"/>
      <point x="133" y="372"/>
      <point x="171" y="372" type="curve" smooth="yes"/>
      <point x="209" y="372"/>
      <point x="234" y="342"/>
      <point x="230" y="304" type="curve" smooth="yes"/>
      <point x="225" y="267"/>
      <point x="193" y="238"/>
      <point x="155" y="238" type="curve" smooth="yes"/>
      <point x="117" y="238"/>
      <point x="92" y="267"/>
    </contour>
  </outline>
</glyph>
<glyph name="cedilla" format="1">
  <advance width="500"/>
  <unicode hex="00B8"/>
  <outline>
    <contour>
      <point x="230" y="-2" type="line" name="hr00"/>
      <point x="284" y="2" type="line"/>
      <point x="265" y="-48" type="line"/>
      <point x="303" y="-53"/>
      <point x="342" y="-81"/>
      <point x="336" y="-123" type="curve" smooth="yes"/>
      <point x="329" y="-183"/>
      <point x="264" y="-208"/>
      <point x="208" y="-208" type="curve" smooth="yes"/>
      <point x="185" y="-208"/>
      <point x="161" y="-203"/>
      <point x="130" y="-189" type="curve"/>
      <point x="152" y="-142" type="line"/>
      <point x="176" y="-152"/>
      <point x="194" y="-155"/>
      <point x="214" y="-155" type="curve" smooth="yes"/>
      <point x="237" y="-155"/>
      <point x="264" y="-147"/>
      <point x="267" y="-126" type="curve" smooth="yes"/>
      <point x="270" y="-102"/>
      <point x="244" y="-91"/>
      <point x="198" y="-86" type="curve"/>
    </contour>
  </outline>
</glyph>
<glyph name="onesuperior" format="1">
  <advance width="235"/>
  <unicode hex="00B9"/>
  <outline>
    <contour>
      <point x="213" y="309" type="line" name="hr00"/>
      <point x="136" y="309" type="line"/>
      <point x="177" y="636" type="line"/>
      <point x="112" y="605" type="line"/>
      <point x="89" y="657" type="line"/>
      <point x="228" y="727" type="line"/>
      <point x="265" y="727" type="line"/>
    </contour>
  </outline>
</glyph>
<glyph name="ordmasculine" format="1">
  <advance width="424"/>
  <unicode hex="00BA"/>
  <outline>
    <contour>
      <point x="178" y="483" type="curve" smooth="yes" name="hr00"/>
      <point x="168" y="401"/>
      <point x="198" y="353"/>
      <point x="255" y="353" type="curve" smooth="yes"/>
      <point x="317" y="353"/>
      <point x="356" y="413"/>
      <point x="365" y="483" type="curve" smooth="yes"/>
      <point x="373" y="549"/>
      <point x="355" y="613"/>
      <point x="287" y="613" type="curve" smooth="yes"/>
      <point x="225" y="613"/>
      <point x="186" y="552"/>
    </contour>
    <contour>
      <point x="248" y="294" type="curve" smooth="yes"/>
      <point x="145" y="294"/>
      <point x="84" y="366"/>
      <point x="99" y="483" type="curve" smooth="yes"/>
      <point x="112" y="587"/>
      <point x="186" y="671"/>
      <point x="294" y="671" type="curve" smooth="yes"/>
      <point x="392" y="671"/>
      <point x="458" y="604"/>
      <point x="443" y="483" type="curve" smooth="yes"/>
      <point x="429" y="372"/>
      <point x="353" y="294"/>
    </contour>
  </outline>
</glyph>
<glyph name="onequarter" format="1">
  <advance width="709"/>
  <unicode hex="00BC"/>
  <outline>
    <contour>
      <point x="368" y="144" type="line" name="hr00"/>
      <point x="589" y="423" type="line"/>
      <point x="668" y="423" type="line"/>
      <point x="634" y="145" type="line"/>
      <point x="682" y="145" type="line"/>
      <point x="675" y="87" type="line"/>
      <point x="627" y="87" type="line"/>
      <point x="617" y="0" type="line"/>
      <point x="547" y="0" type="line"/>
      <point x="583" y="299" type="line"/>
      <point x="589" y="327" type="line"/>
      <point x="570" y="302" type="line"/>
      <point x="455" y="162" type="line"/>
      <point x="440" y="145" type="line"/>
      <point x="468" y="146" type="line"/>
      <point x="506" y="146"/>
      <point x="522" y="111"/>
      <point x="529" y="87" type="curve"/>
      <point x="361" y="87" type="line"/>
    </contour>
    <contour>
      <point x="238" y="309" type="line"/>
      <point x="161" y="309" type="line"/>
      <point x="202" y="636" type="line"/>
      <point x="137" y="605" type="line"/>
      <point x="114" y="657" type="line"/>
      <point x="253" y="727" type="line"/>
      <point x="290" y="727" type="line"/>
    </contour>
    <contour>
      <point x="164" y="0" type="line"/>
      <point x="88" y="0" type="line"/>
      <point x="613" y="727" type="line"/>
      <point x="689" y="727" type="line"/>
    </contour>
  </outline>
</glyph>
<glyph name="onehalf" format="1">
  <advance width="740"/>
  <unicode hex="00BD"/>
  <outline>
    <contour>
      <point x="728" y="318" type="curve" smooth="yes" name="hr00"/>
      <point x="716" y="221"/>
      <point x="597" y="151"/>
      <point x="538" y="72" type="curve"/>
      <point x="528" y="61" type="line"/>
      <point x="542" y="63" type="line"/>
      <point x="700" y="63" type="line"/>
      <point x="693" y="0" type="line"/>
      <point x="431" y="0" type="line"/>
      <point x="435" y="39" type="line"/>
      <point x="527" y="166"/>
      <point x="642" y="233"/>
      <point x="652" y="311" type="curve" smooth="yes"/>
      <point x="657" y="351"/>
      <point x="630" y="368"/>
      <point x="589" y="368" type="curve" smooth="yes"/>
      <point x="566" y="368"/>
      <point x="542" y="362"/>
      <point x="516" y="351" type="curve"/>
      <point x="498" y="401" type="line"/>
      <point x="536" y="421"/>
      <point x="573" y="426"/>
      <point x="605" y="426" type="curve" smooth="yes"/>
      <point x="679" y="426"/>
      <point x="736" y="387"/>
    </contour>
    <contour>
      <point x="238" y="309" type="line"/>
      <point x="161" y="309" type="line"/>
      <point x="202" y="636" type="line"/>
      <point x="137" y="605" type="line"/>
      <point x="114" y="657" type="line"/>
      <point x="253" y="727" type="line"/>
      <point x="290" y="727" type="line"/>
    </contour>
    <contour>
      <point x="164" y="0" type="line"/>
      <point x="88" y="0" type="line"/>
      <point x="613" y="727" type="line"/>
      <point x="689" y="727" type="line"/>
    </contour>
  </outline>
</glyph>
<glyph name="threequarters" format="1">
  <advance width="747"/>
  <unicode hex="00BE"/>
  <outline>
    <contour>
      <point x="359" y="639" type="curve" smooth="yes"/>
      <point x="354" y="597"/>
      <point x="318" y="560"/>
      <point x="270" y="539" type="curve"/>
      <point x="314" y="528"/>
      <point x="355" y="491"/>
      <point x="347" y="431" type="curve" smooth="yes"/>
      <point x="339" y="359"/>
      <point x="267" y="301"/>
      <point x="175" y="301" type="curve" smooth="yes"/>
      <point x="131" y="301"/>
      <point x="94" y="317"/>
      <point x="76" y="329" type="curve"/>
      <point x="101" y="380" type="line"/>
      <point x="124" y="370"/>
      <point x="147" y="360"/>
      <point x="182" y="360" type="curve" smooth="yes"/>
      <point x="234" y="360"/>
      <point x="267" y="396"/>
      <point x="272" y="433" type="curve" smooth="yes"/>
      <point x="278" y="481"/>
      <point x="242" y="503"/>
      <point x="174" y="503" type="curve"/>
      <point x="173" y="550" type="line"/>
      <point x="207" y="563" type="line" smooth="yes"/>
      <point x="241" y="577"/>
      <point x="272" y="594"/>
      <point x="279" y="623" type="curve" smooth="yes"/>
      <point x="282" y="633"/>
      <point x="281" y="642"/>
      <point x="279" y="649" type="curve" smooth="yes"/>
      <point x="275" y="665"/>
      <point x="260" y="676"/>
      <point x="234" y="676" type="curve" smooth="yes" name="hr01"/>
      <point x="211" y="676"/>
      <point x="185" y="670"/>
      <point x="157" y="660" type="curve"/>
      <point x="139" y="710" type="line"/>
      <point x="179" y="730"/>
      <point x="214" y="735"/>
      <point x="247" y="735" type="curve" smooth="yes"/>
      <point x="320" y="735"/>
      <point x="366" y="698"/>
    </contour>
    <contour>
      <point x="412" y="144" type="line"/>
      <point x="633" y="423" type="line"/>
      <point x="711" y="423" type="line"/>
      <point x="677" y="145" type="line"/>
      <point x="725" y="145" type="line"/>
      <point x="718" y="87" type="line"/>
      <point x="670" y="87" type="line"/>
      <point x="660" y="0" type="line"/>
      <point x="591" y="0" type="line"/>
      <point x="630" y="322" type="line"/>
      <point x="486" y="146" type="line"/>
      <point x="511" y="146" type="line" smooth="yes"/>
      <point x="549" y="146"/>
      <point x="566" y="111"/>
      <point x="573" y="87" type="curve"/>
      <point x="405" y="87" type="line"/>
    </contour>
    <contour>
      <point x="207" y="0" type="line"/>
      <point x="132" y="0" type="line"/>
      <point x="657" y="727" type="line" name="hr02"/>
      <point x="732" y="727" type="line"/>
    </contour>
  </outline>
</glyph>
<glyph name="questiondown" format="1">
  <advance width="447"/>
  <unicode hex="00BF"/>
  <outline>
    <contour>
      <point x="406" y="466" type="curve" smooth="yes" name="hr00"/>
      <point x="401" y="428"/>
      <point x="368" y="398"/>
      <point x="330" y="398" type="curve" smooth="yes"/>
      <point x="292" y="398"/>
      <point x="267" y="428"/>
      <point x="272" y="466" type="curve" smooth="yes"/>
      <point x="276" y="503"/>
      <point x="309" y="531"/>
      <point x="347" y="531" type="curve" smooth="yes"/>
      <point x="385" y="531"/>
      <point x="410" y="503"/>
    </contour>
    <contour>
      <point x="221" y="-220" type="curve" smooth="yes"/>
      <point x="101" y="-220"/>
      <point x="25" y="-156"/>
      <point x="36" y="-67" type="curve" smooth="yes"/>
      <point x="56" y="93"/>
      <point x="257" y="150"/>
      <point x="278" y="319" type="curve"/>
      <point x="363" y="319" type="line"/>
      <point x="337" y="112"/>
      <point x="164" y="72"/>
      <point x="149" y="-52" type="curve" smooth="yes"/>
      <point x="143" y="-102"/>
      <point x="180" y="-139"/>
      <point x="241" y="-139" type="curve" smooth="yes"/>
      <point x="279" y="-139"/>
      <point x="320" y="-133"/>
      <point x="380" y="-104" type="curve"/>
      <point x="399" y="-179" type="line"/>
      <point x="329" y="-212"/>
      <point x="276" y="-220"/>
    </contour>
  </outline>
</glyph>
<glyph name="Agrave" format="1">
  <advance width="634"/>
  <unicode hex="00C0"/>
  <outline>
    <contour>
      <point x="363" y="797" type="curve" name="hr00"/>
      <point x="305" y="890" type="line"/>
      <point x="411" y="890" type="line"/>
      <point x="470" y="766" type="line"/>
      <point x="434" y="757"/>
      <point x="384" y="763"/>
    </contour>
    <contour>
      <point x="353" y="727" type="line"/>
      <point x="459" y="727" type="line"/>
      <point x="632" y="0" type="line"/>
      <point x="517" y="0" type="line"/>
      <point x="386" y="597" type="line"/>
      <point x="234" y="269" type="line"/>
      <point x="220" y="249" type="line"/>
      <point x="233" y="251" type="line"/>
      <point x="351" y="251" type="line" smooth="yes"/>
      <point x="402" y="251"/>
      <point x="421" y="209"/>
      <point x="430" y="170" type="curve"/>
      <point x="188" y="170" type="line"/>
      <point x="110" y="0" type="line"/>
      <point x="2" y="0" type="line"/>
    </contour>
  </outline>
</glyph>
<glyph name="Aacute" format="1">
  <advance width="634"/>
  <unicode hex="00C1"/>
  <outline>
    <contour>
      <point x="568" y="890" type="line" name="hr00"/>
      <point x="473" y="797" type="line" smooth="yes"/>
      <point x="438" y="762"/>
      <point x="389" y="757"/>
      <point x="358" y="766" type="curve"/>
      <point x="461" y="890" type="line"/>
    </contour>
    <contour>
      <point x="353" y="727" type="line"/>
      <point x="460" y="727" type="line"/>
      <point x="632" y="0" type="line"/>
      <point x="517" y="0" type="line"/>
      <point x="386" y="597" type="line"/>
      <point x="235" y="269" type="line"/>
      <point x="220" y="249" type="line"/>
      <point x="233" y="251" type="line"/>
      <point x="351" y="251" type="line" smooth="yes"/>
      <point x="402" y="251"/>
      <point x="421" y="209"/>
      <point x="430" y="170" type="curve"/>
      <point x="189" y="170" type="line"/>
      <point x="111" y="0" type="line"/>
      <point x="2" y="0" type="line"/>
    </contour>
  </outline>
</glyph>
<glyph name="Acircumflex" format="1">
  <advance width="634"/>
  <unicode hex="00C2"/>
  <outline>
    <contour>
      <point x="387" y="890" type="line" name="hr00"/>
      <point x="458" y="890" type="line"/>
      <point x="553" y="771" type="line"/>
      <point x="491" y="760" type="line"/>
      <point x="413" y="818" type="line"/>
      <point x="321" y="760" type="line"/>
      <point x="264" y="771" type="line"/>
    </contour>
    <contour>
      <point x="353" y="727" type="line"/>
      <point x="459" y="727" type="line"/>
      <point x="632" y="0" type="line"/>
      <point x="517" y="0" type="line"/>
      <point x="386" y="597" type="line"/>
      <point x="234" y="269" type="line"/>
      <point x="220" y="249" type="line"/>
      <point x="233" y="251" type="line"/>
      <point x="351" y="251" type="line" smooth="yes"/>
      <point x="402" y="251"/>
      <point x="421" y="209"/>
      <point x="430" y="170" type="curve"/>
      <point x="188" y="170" type="line"/>
      <point x="110" y="0" type="line"/>
      <point x="2" y="0" type="line"/>
    </contour>
  </outline>
</glyph>
<glyph name="Atilde" format="1">
  <advance width="634"/>
  <unicode hex="00C3"/>
  <outline>
    <contour>
      <point x="327" y="777" type="curve"/>
      <point x="267" y="783" type="line"/>
      <point x="278" y="857"/>
      <point x="324" y="894"/>
      <point x="372" y="894" type="curve" smooth="yes"/>
      <point x="430" y="894"/>
      <point x="445" y="839"/>
      <point x="484" y="839" type="curve" smooth="yes" name="hr01"/>
      <point x="502" y="839"/>
      <point x="514" y="859"/>
      <point x="521" y="893" type="curve"/>
      <point x="579" y="887" type="line"/>
      <point x="565" y="803"/>
      <point x="517" y="776"/>
      <point x="479" y="776" type="curve" smooth="yes"/>
      <point x="415" y="776"/>
      <point x="404" y="831"/>
      <point x="369" y="831" type="curve" smooth="yes" name="hr02"/>
      <point x="353" y="831"/>
      <point x="335" y="817"/>
    </contour>
    <contour>
      <point x="353" y="727" type="line"/>
      <point x="459" y="727" type="line"/>
      <point x="632" y="0" type="line"/>
      <point x="517" y="0" type="line"/>
      <point x="386" y="597" type="line"/>
      <point x="234" y="269" type="line"/>
      <point x="220" y="249" type="line"/>
      <point x="233" y="251" type="line"/>
      <point x="351" y="251" type="line" smooth="yes"/>
      <point x="402" y="251"/>
      <point x="421" y="209"/>
      <point x="430" y="170" type="curve"/>
      <point x="188" y="170" type="line"/>
      <point x="110" y="0" type="line"/>
      <point x="2" y="0" type="line"/>
    </contour>
  </outline>
</glyph>
<glyph name="Adieresis" format="1">
  <advance width="634"/>
  <unicode hex="00C4"/>
  <outline>
    <contour>
      <point x="461" y="840" type="curve" smooth="yes" name="hr00"/>
      <point x="464" y="871"/>
      <point x="492" y="895"/>
      <point x="523" y="895" type="curve" smooth="yes"/>
      <point x="553" y="895"/>
      <point x="575" y="871"/>
      <point x="572" y="840" type="curve" smooth="yes"/>
      <point x="568" y="809"/>
      <point x="540" y="785"/>
      <point x="510" y="785" type="curve" smooth="yes"/>
      <point x="479" y="785"/>
      <point x="457" y="809"/>
    </contour>
    <contour>
      <point x="267" y="840" type="curve" smooth="yes"/>
      <point x="270" y="871"/>
      <point x="298" y="895"/>
      <point x="328" y="895" type="curve" smooth="yes"/>
      <point x="358" y="895"/>
      <point x="381" y="871"/>
      <point x="378" y="840" type="curve" smooth="yes"/>
      <point x="374" y="809"/>
      <point x="345" y="785"/>
      <point x="315" y="785" type="curve" smooth="yes"/>
      <point x="285" y="785"/>
      <point x="263" y="809"/>
    </contour>
    <contour>
      <point x="353" y="727" type="line"/>
      <point x="459" y="727" type="line"/>
      <point x="632" y="0" type="line"/>
      <point x="517" y="0" type="line"/>
      <point x="386" y="597" type="line"/>
      <point x="234" y="269" type="line"/>
      <point x="220" y="249" type="line"/>
      <point x="233" y="251" type="line"/>
      <point x="351" y="251" type="line" smooth="yes"/>
      <point x="402" y="251"/>
      <point x="421" y="209"/>
      <point x="430" y="170" type="curve"/>
      <point x="188" y="170" type="line"/>
      <point x="110" y="0" type="line"/>
      <point x="2" y="0" type="line"/>
    </contour>
  </outline>
</glyph>
<glyph name="Aring" format="1">
  <advance width="630"/>
  <unicode hex="00C5"/>
  <outline>
    <contour>
      <point x="405" y="754" type="curve" smooth="yes" name="hr00"/>
      <point x="434" y="754"/>
      <point x="454" y="775"/>
      <point x="457" y="802" type="curve" smooth="yes"/>
      <point x="460" y="829"/>
      <point x="446" y="850"/>
      <point x="417" y="850" type="curve" smooth="yes"/>
      <point x="391" y="850"/>
      <point x="370" y="829"/>
      <point x="367" y="800" type="curve" smooth="yes"/>
      <point x="364" y="777"/>
      <point x="378" y="754"/>
    </contour>
    <contour>
      <point x="109" y="0" type="line"/>
      <point x="0" y="0" type="line"/>
      <point x="348" y="724" type="line"/>
      <point x="320" y="738"/>
      <point x="306" y="766"/>
      <point x="310" y="800" type="curve" smooth="yes"/>
      <point x="316" y="853"/>
      <point x="364" y="892"/>
      <point x="423" y="892" type="curve" smooth="yes"/>
      <point x="483" y="892"/>
      <point x="518" y="855"/>
      <point x="512" y="801" type="curve" smooth="yes"/>
      <point x="508" y="768"/>
      <point x="486" y="740"/>
      <point x="458" y="725" type="curve"/>
      <point x="630" y="0" type="line"/>
      <point x="515" y="0" type="line"/>
      <point x="475" y="181"/>
      <point x="435" y="360"/>
      <point x="396" y="540" type="curve" smooth="yes"/>
      <point x="384" y="596" type="line"/>
      <point x="358" y="539" type="line" smooth="yes"/>
      <point x="316" y="449"/>
      <point x="275" y="359"/>
      <point x="233" y="269" type="curve"/>
      <point x="218" y="249" type="line"/>
      <point x="231" y="251" type="line"/>
      <point x="349" y="251" type="line" smooth="yes"/>
      <point x="400" y="251"/>
      <point x="419" y="209"/>
      <point x="428" y="170" type="curve"/>
      <point x="187" y="170" type="line"/>
    </contour>
  </outline>
</glyph>
<glyph name="AE" format="1">
  <advance width="909"/>
  <unicode hex="00C6"/>
  <outline>
    <contour>
      <point x="717" y="421" type="curve" name="hr00"/>
      <point x="871" y="421" type="line"/>
      <point x="861" y="342" type="line"/>
      <point x="616" y="342" type="line"/>
      <point x="635" y="383"/>
      <point x="663" y="421"/>
    </contour>
    <contour>
      <point x="491" y="0" type="line"/>
      <point x="473" y="536" type="line" smooth="yes"/>
      <point x="472" y="553"/>
      <point x="472" y="572"/>
      <point x="472" y="590" type="curve"/>
      <point x="474" y="629" type="line"/>
      <point x="455" y="590" type="line"/>
      <point x="257" y="269" type="line"/>
      <point x="239" y="249" type="line"/>
      <point x="258" y="251" type="line"/>
      <point x="368" y="251" type="line" smooth="yes"/>
      <point x="419" y="251"/>
      <point x="439" y="209"/>
      <point x="448" y="170" type="curve"/>
      <point x="196" y="170" type="line"/>
      <point x="92" y="0" type="line"/>
      <point x="-19" y="0" type="line"/>
      <point x="440" y="727" type="line"/>
      <point x="899" y="727" type="line"/>
      <point x="889" y="646" type="line"/>
      <point x="573" y="646" type="line"/>
      <point x="589" y="81" type="line"/>
      <point x="889" y="81" type="line"/>
      <point x="880" y="0" type="line"/>
    </contour>
  </outline>
</glyph>
<glyph name="Ccedilla" format="1">
  <advance width="623"/>
  <unicode hex="00C7"/>
  <outline>
    <contour>
      <point x="413" y="-12" type="curve" smooth="yes" name="hr00"/>
      <point x="401" y="-12"/>
      <point x="389" y="-11"/>
      <point x="378" y="-10" type="curve"/>
      <point x="364" y="-48" type="line"/>
      <point x="402" y="-53"/>
      <point x="441" y="-81"/>
      <point x="435" y="-123" type="curve" smooth="yes"/>
      <point x="428" y="-183"/>
      <point x="363" y="-208"/>
      <point x="307" y="-208" type="curve" smooth="yes"/>
      <point x="284" y="-208"/>
      <point x="260" y="-203"/>
      <point x="229" y="-189" type="curve"/>
      <point x="251" y="-142" type="line"/>
      <point x="275" y="-152"/>
      <point x="293" y="-155"/>
      <point x="313" y="-155" type="curve" smooth="yes"/>
      <point x="336" y="-155"/>
      <point x="363" y="-147"/>
      <point x="366" y="-126" type="curve" smooth="yes"/>
      <point x="369" y="-102"/>
      <point x="343" y="-91"/>
      <point x="297" y="-86" type="curve"/>
      <point x="328" y="-4" type="line"/>
      <point x="162" y="30"/>
      <point x="66" y="170"/>
      <point x="90" y="363" type="curve" smooth="yes"/>
      <point x="117" y="582"/>
      <point x="290" y="740"/>
      <point x="505" y="740" type="curve" smooth="yes"/>
      <point x="561" y="740"/>
      <point x="619" y="729"/>
      <point x="678" y="706" type="curve"/>
      <point x="640" y="633" type="line"/>
      <point x="585" y="652"/>
      <point x="541" y="658"/>
      <point x="495" y="658" type="curve" smooth="yes"/>
      <point x="351" y="658"/>
      <point x="230" y="547"/>
      <point x="207" y="363" type="curve" smooth="yes"/>
      <point x="185" y="183"/>
      <point x="279" y="69"/>
      <point x="423" y="69" type="curve" smooth="yes"/>
      <point x="469" y="69"/>
      <point x="519" y="80"/>
      <point x="576" y="107" type="curve"/>
      <point x="596" y="34" type="line"/>
      <point x="531" y="2"/>
      <point x="469" y="-12"/>
    </contour>
  </outline>
</glyph>
<glyph name="Egrave" format="1">
  <advance width="571"/>
  <unicode hex="00C8"/>
  <outline>
    <contour>
      <point x="357" y="797" type="curve"/>
      <point x="299" y="890" type="line"/>
      <point x="405" y="890" type="line"/>
      <point x="464" y="766" type="line"/>
      <point x="428" y="757"/>
      <point x="378" y="763"/>
    </contour>
    <contour>
      <point x="379" y="421" type="curve"/>
      <point x="528" y="421" type="line"/>
      <point x="518" y="342" type="line"/>
      <point x="279" y="342" type="line"/>
      <point x="297" y="381"/>
      <point x="328" y="421"/>
    </contour>
    <contour>
      <point x="91" y="0" type="line"/>
      <point x="180" y="727" type="line" name="hr01"/>
      <point x="600" y="727" type="line"/>
      <point x="590" y="646" type="line"/>
      <point x="279" y="646" type="line"/>
      <point x="209" y="81" type="line"/>
      <point x="535" y="81" type="line"/>
      <point x="526" y="0" type="line"/>
    </contour>
  </outline>
</glyph>
<glyph name="Eacute" format="1">
  <advance width="571"/>
  <unicode hex="00C9"/>
  <outline>
    <contour>
      <point x="557" y="890" type="line"/>
      <point x="462" y="797" type="line" smooth="yes"/>
      <point x="427" y="762"/>
      <point x="378" y="757"/>
      <point x="347" y="766" type="curve"/>
      <point x="450" y="890" type="line"/>
    </contour>
    <contour>
      <point x="379" y="421" type="curve"/>
      <point x="528" y="421" type="line"/>
      <point x="518" y="342" type="line"/>
      <point x="279" y="342" type="line"/>
      <point x="297" y="381"/>
      <point x="328" y="421"/>
    </contour>
    <contour>
      <point x="91" y="0" type="line"/>
      <point x="180" y="727" type="line" name="hr01"/>
      <point x="600" y="727" type="line"/>
      <point x="590" y="646" type="line"/>
      <point x="279" y="646" type="line"/>
      <point x="209" y="81" type="line"/>
      <point x="535" y="81" type="line"/>
      <point x="526" y="0" type="line"/>
    </contour>
  </outline>
</glyph>
<glyph name="Ecircumflex" format="1">
  <advance width="571"/>
  <unicode hex="00CA"/>
  <outline>
    <contour>
      <point x="384" y="890" type="line"/>
      <point x="455" y="890" type="line"/>
      <point x="550" y="771" type="line"/>
      <point x="488" y="760" type="line"/>
      <point x="410" y="818" type="line"/>
      <point x="318" y="760" type="line"/>
      <point x="261" y="771" type="line"/>
    </contour>
    <contour>
      <point x="379" y="421" type="curve"/>
      <point x="528" y="421" type="line"/>
      <point x="518" y="342" type="line"/>
      <point x="279" y="342" type="line"/>
      <point x="297" y="381"/>
      <point x="328" y="421"/>
    </contour>
    <contour>
      <point x="91" y="0" type="line"/>
      <point x="180" y="727" type="line" name="hr01"/>
      <point x="600" y="727" type="line"/>
      <point x="590" y="646" type="line"/>
      <point x="279" y="646" type="line"/>
      <point x="209" y="81" type="line"/>
      <point x="535" y="81" type="line"/>
      <point x="526" y="0" type="line"/>
    </contour>
  </outline>
</glyph>
<glyph name="Edieresis" format="1">
  <advance width="571"/>
  <unicode hex="00CB"/>
  <outline>
    <contour>
      <point x="453" y="840" type="curve" smooth="yes" name="hr00"/>
      <point x="456" y="871"/>
      <point x="484" y="895"/>
      <point x="515" y="895" type="curve" smooth="yes"/>
      <point x="545" y="895"/>
      <point x="567" y="871"/>
      <point x="564" y="840" type="curve" smooth="yes"/>
      <point x="560" y="809"/>
      <point x="532" y="785"/>
      <point x="502" y="785" type="curve" smooth="yes"/>
      <point x="471" y="785"/>
      <point x="449" y="809"/>
    </contour>
    <contour>
      <point x="259" y="840" type="curve" smooth="yes"/>
      <point x="262" y="871"/>
      <point x="290" y="895"/>
      <point x="320" y="895" type="curve" smooth="yes"/>
      <point x="350" y="895"/>
      <point x="373" y="871"/>
      <point x="370" y="840" type="curve" smooth="yes"/>
      <point x="366" y="809"/>
      <point x="337" y="785"/>
      <point x="307" y="785" type="curve" smooth="yes"/>
      <point x="277" y="785"/>
      <point x="255" y="809"/>
    </contour>
    <contour>
      <point x="379" y="421" type="curve"/>
      <point x="528" y="421" type="line"/>
      <point x="518" y="342" type="line"/>
      <point x="279" y="342" type="line"/>
      <point x="297" y="381"/>
      <point x="328" y="421"/>
    </contour>
    <contour>
      <point x="91" y="0" type="line"/>
      <point x="180" y="727" type="line"/>
      <point x="600" y="727" type="line"/>
      <point x="590" y="646" type="line"/>
      <point x="279" y="646" type="line"/>
      <point x="209" y="81" type="line"/>
      <point x="535" y="81" type="line"/>
      <point x="526" y="0" type="line"/>
    </contour>
  </outline>
</glyph>
<glyph name="Igrave" format="1">
  <advance width="287"/>
  <unicode hex="00CC"/>
  <outline>
    <contour>
      <point x="187" y="797" type="curve" name="hr00"/>
      <point x="130" y="890" type="line"/>
      <point x="235" y="890" type="line"/>
      <point x="294" y="766" type="line"/>
      <point x="258" y="757"/>
      <point x="209" y="763"/>
    </contour>
    <contour>
      <point x="285" y="727" type="line"/>
      <point x="196" y="0" type="line"/>
      <point x="91" y="0" type="line"/>
      <point x="180" y="727" type="line"/>
    </contour>
  </outline>
</glyph>
<glyph name="Iacute" format="1">
  <advance width="288"/>
  <unicode hex="00CD"/>
  <outline>
    <contour>
      <point x="393" y="890" type="line" name="hr00"/>
      <point x="298" y="797" type="line" smooth="yes"/>
      <point x="263" y="762"/>
      <point x="214" y="757"/>
      <point x="182" y="766" type="curve"/>
      <point x="285" y="890" type="line"/>
    </contour>
    <contour>
      <point x="286" y="727" type="line"/>
      <point x="197" y="0" type="line"/>
      <point x="91" y="0" type="line"/>
      <point x="180" y="727" type="line"/>
    </contour>
  </outline>
</glyph>
<glyph name="Icircumflex" format="1">
  <advance width="288"/>
  <unicode hex="00CE"/>
  <outline>
    <contour>
      <point x="218" y="890" type="line" name="hr00"/>
      <point x="289" y="890" type="line"/>
      <point x="384" y="771" type="line"/>
      <point x="322" y="760" type="line"/>
      <point x="244" y="818" type="line"/>
      <point x="152" y="760" type="line"/>
      <point x="95" y="771" type="line"/>
    </contour>
    <contour>
      <point x="286" y="727" type="line"/>
      <point x="197" y="0" type="line"/>
      <point x="91" y="0" type="line"/>
      <point x="180" y="727" type="line"/>
    </contour>
  </outline>
</glyph>
<glyph name="Idieresis" format="1">
  <advance width="287"/>
  <unicode hex="00CF"/>
  <outline>
    <contour>
      <point x="288" y="840" type="curve" smooth="yes" name="hr00"/>
      <point x="291" y="871"/>
      <point x="320" y="895"/>
      <point x="350" y="895" type="curve" smooth="yes"/>
      <point x="380" y="895"/>
      <point x="402" y="871"/>
      <point x="399" y="840" type="curve" smooth="yes"/>
      <point x="395" y="809"/>
      <point x="367" y="785"/>
      <point x="337" y="785" type="curve" smooth="yes"/>
      <point x="307" y="785"/>
      <point x="284" y="809"/>
    </contour>
    <contour>
      <point x="94" y="840" type="curve" smooth="yes"/>
      <point x="97" y="871"/>
      <point x="125" y="895"/>
      <point x="155" y="895" type="curve" smooth="yes"/>
      <point x="186" y="895"/>
      <point x="208" y="871"/>
      <point x="205" y="840" type="curve" smooth="yes"/>
      <point x="201" y="809"/>
      <point x="173" y="785"/>
      <point x="142" y="785" type="curve" smooth="yes"/>
      <point x="112" y="785"/>
      <point x="90" y="809"/>
    </contour>
    <contour>
      <point x="285" y="727" type="line"/>
      <point x="196" y="0" type="line"/>
      <point x="91" y="0" type="line"/>
      <point x="180" y="727" type="line"/>
    </contour>
  </outline>
</glyph>
<glyph name="Eth" format="1">
  <advance width="756"/>
  <unicode hex="00D0"/>
  <outline>
    <contour>
      <point x="52" y="319" type="line"/>
      <point x="61" y="392" type="line"/>
      <point x="143" y="392" type="line"/>
      <point x="182" y="715" type="line"/>
      <point x="254" y="732"/>
      <point x="339" y="740"/>
      <point x="397" y="740" type="curve" smooth="yes"/>
      <point x="655" y="740"/>
      <point x="784" y="593"/>
      <point x="756" y="365" type="curve" smooth="yes"/>
      <point x="730" y="149"/>
      <point x="559" y="-12"/>
      <point x="373" y="-12" type="curve" smooth="yes"/>
      <point x="331" y="-12"/>
      <point x="298" y="-9"/>
      <point x="242" y="5" type="curve"/>
      <point x="265" y="40"/>
      <point x="299" y="73"/>
      <point x="346" y="70" type="curve" smooth="yes"/>
      <point x="361" y="69"/>
      <point x="367" y="69"/>
      <point x="378" y="69" type="curve" smooth="yes"/>
      <point x="514" y="69"/>
      <point x="621" y="208"/>
      <point x="640" y="365" type="curve" smooth="yes"/>
      <point x="663" y="548"/>
      <point x="583" y="658"/>
      <point x="387" y="658" type="curve" smooth="yes"/>
      <point x="351" y="658"/>
      <point x="315" y="655"/>
      <point x="282" y="651" type="curve"/>
      <point x="251" y="392" type="line"/>
      <point x="471" y="392" type="line"/>
      <point x="462" y="319" type="line"/>
      <point x="242" y="319" type="line"/>
      <point x="203" y="0" type="line" name="hr01"/>
      <point x="95" y="0" type="line"/>
      <point x="134" y="319" type="line"/>
    </contour>
  </outline>
</glyph>
<glyph name="Ntilde" format="1">
  <advance width="736"/>
  <unicode hex="00D1"/>
  <outline>
    <contour>
      <point x="377" y="777" type="curve"/>
      <point x="317" y="783" type="line"/>
      <point x="328" y="857"/>
      <point x="374" y="894"/>
      <point x="422" y="894" type="curve" smooth="yes"/>
      <point x="480" y="894"/>
      <point x="495" y="839"/>
      <point x="534" y="839" type="curve" smooth="yes" name="hr01"/>
      <point x="552" y="839"/>
      <point x="564" y="859"/>
      <point x="571" y="893" type="curve"/>
      <point x="629" y="887" type="line"/>
      <point x="615" y="803"/>
      <point x="567" y="776"/>
      <point x="529" y="776" type="curve" smooth="yes"/>
      <point x="465" y="776"/>
      <point x="454" y="831"/>
      <point x="419" y="831" type="curve" smooth="yes" name="hr02"/>
      <point x="403" y="831"/>
      <point x="385" y="817"/>
    </contour>
    <contour>
      <point x="548" y="0" type="line"/>
      <point x="453" y="187"/>
      <point x="358" y="373"/>
      <point x="264" y="561" type="curve"/>
      <point x="255" y="595" type="line"/>
      <point x="252" y="561" type="line"/>
      <point x="184" y="0" type="line"/>
      <point x="91" y="0" type="line"/>
      <point x="180" y="727" type="line"/>
      <point x="288" y="727" type="line"/>
      <point x="532" y="242" type="line" smooth="yes"/>
      <point x="542" y="223"/>
      <point x="551" y="203"/>
      <point x="561" y="184" type="curve"/>
      <point x="569" y="151" type="line"/>
      <point x="571" y="186" type="line"/>
      <point x="638" y="727" type="line"/>
      <point x="734" y="727" type="line"/>
      <point x="645" y="0" type="line"/>
    </contour>
  </outline>
</glyph>
<glyph name="Ograve" format="1">
  <advance width="780"/>
  <unicode hex="00D2"/>
  <outline>
    <contour>
      <point x="406" y="797" type="curve"/>
      <point x="348" y="890" type="line"/>
      <point x="454" y="890" type="line"/>
      <point x="513" y="766" type="line"/>
      <point x="477" y="757"/>
      <point x="426" y="762"/>
    </contour>
    <contour>
      <point x="662" y="364" type="curve" smooth="yes"/>
      <point x="684" y="540"/>
      <point x="603" y="660"/>
      <point x="471" y="660" type="curve" smooth="yes"/>
      <point x="340" y="660"/>
      <point x="229" y="540"/>
      <point x="207" y="364" type="curve" smooth="yes"/>
      <point x="186" y="189"/>
      <point x="267" y="67"/>
      <point x="398" y="67" type="curve" smooth="yes"/>
      <point x="530" y="67"/>
      <point x="641" y="189"/>
    </contour>
    <contour>
      <point x="778" y="364" type="curve" smooth="yes"/>
      <point x="750" y="136"/>
      <point x="578" y="-14"/>
      <point x="388" y="-14" type="curve" smooth="yes"/>
      <point x="190" y="-14"/>
      <point x="62" y="132"/>
      <point x="90" y="364" type="curve" smooth="yes"/>
      <point x="118" y="591"/>
      <point x="289" y="742"/>
      <point x="481" y="742" type="curve" smooth="yes" name="hr01"/>
      <point x="681" y="742"/>
      <point x="807" y="595"/>
    </contour>
  </outline>
</glyph>
<glyph name="Oacute" format="1">
  <advance width="780"/>
  <unicode hex="00D3"/>
  <outline>
    <contour>
      <point x="653" y="890" type="line"/>
      <point x="558" y="797" type="line" smooth="yes"/>
      <point x="523" y="762"/>
      <point x="474" y="757"/>
      <point x="443" y="766" type="curve"/>
      <point x="546" y="890" type="line"/>
    </contour>
    <contour>
      <point x="661" y="364" type="curve" smooth="yes"/>
      <point x="683" y="540"/>
      <point x="602" y="660"/>
      <point x="471" y="660" type="curve" smooth="yes"/>
      <point x="339" y="660"/>
      <point x="228" y="540"/>
      <point x="206" y="364" type="curve" smooth="yes"/>
      <point x="185" y="189"/>
      <point x="267" y="67"/>
      <point x="398" y="67" type="curve" smooth="yes"/>
      <point x="529" y="67"/>
      <point x="640" y="189"/>
    </contour>
    <contour>
      <point x="778" y="364" type="curve" smooth="yes"/>
      <point x="750" y="136"/>
      <point x="577" y="-14"/>
      <point x="388" y="-14" type="curve" smooth="yes"/>
      <point x="189" y="-14"/>
      <point x="61" y="132"/>
      <point x="89" y="364" type="curve" smooth="yes"/>
      <point x="117" y="591"/>
      <point x="289" y="742"/>
      <point x="481" y="742" type="curve" smooth="yes" name="hr01"/>
      <point x="680" y="742"/>
      <point x="807" y="595"/>
    </contour>
  </outline>
</glyph>
<glyph name="Otilde" format="1">
  <advance width="780"/>
  <unicode hex="00D5"/>
  <outline>
    <contour>
      <point x="401" y="777" type="curve"/>
      <point x="341" y="783" type="line"/>
      <point x="352" y="857"/>
      <point x="398" y="894"/>
      <point x="446" y="894" type="curve" smooth="yes"/>
      <point x="504" y="894"/>
      <point x="519" y="839"/>
      <point x="558" y="839" type="curve" smooth="yes" name="hr01"/>
      <point x="576" y="839"/>
      <point x="588" y="859"/>
      <point x="595" y="893" type="curve"/>
      <point x="653" y="887" type="line"/>
      <point x="639" y="803"/>
      <point x="591" y="776"/>
      <point x="553" y="776" type="curve" smooth="yes"/>
      <point x="489" y="776"/>
      <point x="478" y="831"/>
      <point x="443" y="831" type="curve" smooth="yes" name="hr02"/>
      <point x="427" y="831"/>
      <point x="409" y="817"/>
    </contour>
    <contour>
      <point x="662" y="364" type="curve" smooth="yes"/>
      <point x="684" y="540"/>
      <point x="603" y="660"/>
      <point x="471" y="660" type="curve" smooth="yes"/>
      <point x="339" y="660"/>
      <point x="228" y="540"/>
      <point x="206" y="364" type="curve" smooth="yes"/>
      <point x="185" y="189"/>
      <point x="267" y="67"/>
      <point x="398" y="67" type="curve" smooth="yes"/>
      <point x="530" y="67"/>
      <point x="641" y="189"/>
    </contour>
    <contour>
      <point x="778" y="364" type="curve" smooth="yes"/>
      <point x="750" y="136"/>
      <point x="577" y="-14"/>
      <point x="388" y="-14" type="curve" smooth="yes"/>
      <point x="190" y="-14"/>
      <point x="62" y="132"/>
      <point x="90" y="364" type="curve" smooth="yes"/>
      <point x="118" y="591"/>
      <point x="289" y="742"/>
      <point x="481" y="742" type="curve" smooth="yes"/>
      <point x="680" y="742"/>
      <point x="807" y="595"/>
    </contour>
  </outline>
</glyph>
<glyph name="Odieresis" format="1">
  <advance width="780"/>
  <unicode hex="00D6"/>
  <outline>
    <contour>
      <point x="536" y="840" type="curve" smooth="yes" name="hr00"/>
      <point x="539" y="871"/>
      <point x="568" y="895"/>
      <point x="598" y="895" type="curve" smooth="yes"/>
      <point x="628" y="895"/>
      <point x="650" y="871"/>
      <point x="647" y="840" type="curve" smooth="yes"/>
      <point x="643" y="809"/>
      <point x="615" y="785"/>
      <point x="585" y="785" type="curve" smooth="yes"/>
      <point x="555" y="785"/>
      <point x="532" y="809"/>
    </contour>
    <contour>
      <point x="342" y="840" type="curve" smooth="yes"/>
      <point x="345" y="871"/>
      <point x="373" y="895"/>
      <point x="403" y="895" type="curve" smooth="yes"/>
      <point x="434" y="895"/>
      <point x="456" y="871"/>
      <point x="453" y="840" type="curve" smooth="yes"/>
      <point x="449" y="809"/>
      <point x="421" y="785"/>
      <point x="390" y="785" type="curve" smooth="yes"/>
      <point x="360" y="785"/>
      <point x="338" y="809"/>
    </contour>
    <contour>
      <point x="662" y="364" type="curve" smooth="yes"/>
      <point x="684" y="540"/>
      <point x="603" y="660"/>
      <point x="471" y="660" type="curve" smooth="yes"/>
      <point x="339" y="660"/>
      <point x="228" y="540"/>
      <point x="206" y="364" type="curve" smooth="yes"/>
      <point x="185" y="189"/>
      <point x="267" y="67"/>
      <point x="398" y="67" type="curve" smooth="yes"/>
      <point x="530" y="67"/>
      <point x="641" y="189"/>
    </contour>
    <contour>
      <point x="778" y="364" type="curve" smooth="yes"/>
      <point x="750" y="136"/>
      <point x="577" y="-14"/>
      <point x="388" y="-14" type="curve" smooth="yes"/>
      <point x="190" y="-14"/>
      <point x="62" y="132"/>
      <point x="90" y="364" type="curve" smooth="yes"/>
      <point x="118" y="591"/>
      <point x="289" y="742"/>
      <point x="481" y="742" type="curve" smooth="yes"/>
      <point x="680" y="742"/>
      <point x="807" y="595"/>
    </contour>
  </outline>
</glyph>
<glyph name="multiply" format="1">
  <advance width="559"/>
  <unicode hex="00D7"/>
  <outline>
    <contour>
      <point x="112" y="75" type="line" name="hr00"/>
      <point x="65" y="128" type="line"/>
      <point x="263" y="306" type="line"/>
      <point x="109" y="482" type="line"/>
      <point x="169" y="535" type="line"/>
      <point x="325" y="360" type="line"/>
      <point x="521" y="535" type="line"/>
      <point x="568" y="482" type="line"/>
      <point x="372" y="306" type="line"/>
      <point x="526" y="128" type="line"/>
      <point x="467" y="75" type="line"/>
      <point x="311" y="251" type="line"/>
    </contour>
  </outline>
</glyph>
<glyph name="Oslash" format="1">
  <advance width="780"/>
  <unicode hex="00D8"/>
  <outline>
    <contour>
      <point x="665" y="364" type="curve" smooth="yes"/>
      <point x="676" y="450"/>
      <point x="660" y="523"/>
      <point x="627" y="574" type="curve"/>
      <point x="314" y="136" type="line"/>
      <point x="293" y="166"/>
      <point x="278" y="212"/>
      <point x="306" y="256" type="curve"/>
      <point x="576" y="630" type="line"/>
      <point x="547" y="650"/>
      <point x="511" y="662"/>
      <point x="472" y="662" type="curve" smooth="yes"/>
      <point x="340" y="662"/>
      <point x="227" y="540"/>
      <point x="205" y="364" type="curve" smooth="yes"/>
      <point x="184" y="189"/>
      <point x="268" y="66"/>
      <point x="399" y="66" type="curve" smooth="yes"/>
      <point x="531" y="66"/>
      <point x="644" y="189"/>
    </contour>
    <contour>
      <point x="780" y="789" type="line"/>
      <point x="692" y="665" type="line"/>
      <point x="761" y="599"/>
      <point x="795" y="495"/>
      <point x="779" y="364" type="curve" smooth="yes"/>
      <point x="751" y="136"/>
      <point x="578" y="-14"/>
      <point x="389" y="-14" type="curve" smooth="yes"/>
      <point x="333" y="-14"/>
      <point x="282" y="-2"/>
      <point x="239" y="20" type="curve"/>
      <point x="183" y="-60" type="line" name="hr01"/>
      <point x="92" y="-60" type="line"/>
      <point x="179" y="62" type="line"/>
      <point x="109" y="127"/>
      <point x="75" y="231"/>
      <point x="91" y="364" type="curve" smooth="yes"/>
      <point x="119" y="591"/>
      <point x="290" y="742"/>
      <point x="482" y="742" type="curve" smooth="yes"/>
      <point x="538" y="742"/>
      <point x="588" y="730"/>
      <point x="630" y="707" type="curve"/>
      <point x="689" y="789" type="line"/>
    </contour>
  </outline>
</glyph>
<glyph name="Ugrave" format="1">
  <advance width="715"/>
  <unicode hex="00D9"/>
  <outline>
    <contour>
      <point x="393" y="797" type="curve" name="hr00"/>
      <point x="336" y="890" type="line"/>
      <point x="441" y="890" type="line"/>
      <point x="500" y="766" type="line"/>
      <point x="464" y="757"/>
      <point x="415" y="763"/>
    </contour>
    <contour>
      <point x="356" y="-14" type="curve" smooth="yes"/>
      <point x="184" y="-14"/>
      <point x="94" y="96"/>
      <point x="116" y="271" type="curve" smooth="yes"/>
      <point x="172" y="727" type="line"/>
      <point x="280" y="727" type="line"/>
      <point x="222" y="255" type="line" smooth="yes"/>
      <point x="208" y="140"/>
      <point x="266" y="67"/>
      <point x="366" y="67" type="curve" smooth="yes"/>
      <point x="466" y="67"/>
      <point x="543" y="140"/>
      <point x="557" y="255" type="curve" smooth="yes"/>
      <point x="615" y="727" type="line"/>
      <point x="722" y="727" type="line"/>
      <point x="666" y="271" type="line" smooth="yes"/>
      <point x="645" y="100"/>
      <point x="521" y="-14"/>
    </contour>
  </outline>
</glyph>
<glyph name="Uacute" format="1">
  <advance width="715"/>
  <unicode hex="00DA"/>
  <outline>
    <contour>
      <point x="616" y="890" type="line" name="hr00"/>
      <point x="521" y="797" type="line" smooth="yes"/>
      <point x="486" y="762"/>
      <point x="437" y="757"/>
      <point x="406" y="766" type="curve"/>
      <point x="509" y="890" type="line"/>
    </contour>
    <contour>
      <point x="356" y="-14" type="curve" smooth="yes"/>
      <point x="183" y="-14"/>
      <point x="94" y="96"/>
      <point x="116" y="271" type="curve" smooth="yes"/>
      <point x="172" y="727" type="line"/>
      <point x="279" y="727" type="line"/>
      <point x="221" y="255" type="line" smooth="yes"/>
      <point x="207" y="140"/>
      <point x="266" y="67"/>
      <point x="366" y="67" type="curve" smooth="yes"/>
      <point x="466" y="67"/>
      <point x="543" y="140"/>
      <point x="557" y="255" type="curve" smooth="yes"/>
      <point x="615" y="727" type="line"/>
      <point x="722" y="727" type="line"/>
      <point x="666" y="271" type="line" smooth="yes"/>
      <point x="645" y="100"/>
      <point x="521" y="-14"/>
    </contour>
  </outline>
</glyph>
<glyph name="Udieresis" format="1">
  <advance width="716"/>
  <unicode hex="00DC"/>
  <outline>
    <contour>
      <point x="504" y="840" type="curve" smooth="yes" name="hr00"/>
      <point x="507" y="871"/>
      <point x="536" y="895"/>
      <point x="566" y="895" type="curve" smooth="yes"/>
      <point x="596" y="895"/>
      <point x="618" y="871"/>
      <point x="615" y="840" type="curve" smooth="yes"/>
      <point x="611" y="809"/>
      <point x="583" y="785"/>
      <point x="553" y="785" type="curve" smooth="yes"/>
      <point x="523" y="785"/>
      <point x="500" y="809"/>
    </contour>
    <contour>
      <point x="310" y="840" type="curve" smooth="yes"/>
      <point x="313" y="871"/>
      <point x="341" y="895"/>
      <point x="371" y="895" type="curve" smooth="yes"/>
      <point x="402" y="895"/>
      <point x="424" y="871"/>
      <point x="421" y="840" type="curve" smooth="yes"/>
      <point x="417" y="809"/>
      <point x="389" y="785"/>
      <point x="358" y="785" type="curve" smooth="yes"/>
      <point x="328" y="785"/>
      <point x="306" y="809"/>
    </contour>
    <contour>
      <point x="357" y="-14" type="curve" smooth="yes"/>
      <point x="184" y="-14"/>
      <point x="94" y="96"/>
      <point x="116" y="271" type="curve" smooth="yes"/>
      <point x="172" y="727" type="line"/>
      <point x="280" y="727" type="line"/>
      <point x="222" y="255" type="line" smooth="yes"/>
      <point x="208" y="140"/>
      <point x="267" y="67"/>
      <point x="367" y="67" type="curve" smooth="yes"/>
      <point x="467" y="67"/>
      <point x="543" y="140"/>
      <point x="557" y="255" type="curve" smooth="yes"/>
      <point x="615" y="727" type="line"/>
      <point x="723" y="727" type="line"/>
      <point x="667" y="271" type="line" smooth="yes"/>
      <point x="646" y="100"/>
      <point x="522" y="-14"/>
    </contour>
  </outline>
</glyph>
<glyph name="Yacute" format="1">
  <advance width="590"/>
  <unicode hex="00DD"/>
  <outline>
    <contour>
      <point x="576" y="890" type="line" name="hr00"/>
      <point x="481" y="797" type="line" smooth="yes"/>
      <point x="446" y="762"/>
      <point x="397" y="757"/>
      <point x="366" y="766" type="curve"/>
      <point x="469" y="890" type="line"/>
    </contour>
    <contour>
      <point x="421" y="518" type="curve"/>
      <point x="564" y="727" type="line"/>
      <point x="683" y="727" type="line"/>
      <point x="427" y="376" type="line"/>
      <point x="406" y="408"/>
      <point x="386" y="466"/>
    </contour>
    <contour>
      <point x="207" y="727" type="line"/>
      <point x="393" y="338" type="line"/>
      <point x="352" y="0" type="line"/>
      <point x="246" y="0" type="line"/>
      <point x="284" y="313" type="line"/>
      <point x="85" y="727" type="line"/>
    </contour>
  </outline>
</glyph>
<glyph name="Thorn" format="1">
  <advance width="591"/>
  <unicode hex="00DE"/>
  <outline>
    <contour>
      <point x="613" y="363" type="curve" smooth="yes" name="hr00"/>
      <point x="597" y="232"/>
      <point x="474" y="155"/>
      <point x="352" y="144" type="curve" smooth="yes"/>
      <point x="323" y="141"/>
      <point x="289" y="142"/>
      <point x="253" y="153" type="curve"/>
      <point x="273" y="188"/>
      <point x="306" y="221"/>
      <point x="349" y="222" type="curve" smooth="yes"/>
      <point x="414" y="224"/>
      <point x="488" y="283"/>
      <point x="498" y="363" type="curve" smooth="yes"/>
      <point x="508" y="444"/>
      <point x="448" y="505"/>
      <point x="360" y="505" type="curve" smooth="yes"/>
      <point x="323" y="505"/>
      <point x="293" y="503"/>
      <point x="257" y="499" type="curve"/>
      <point x="196" y="0" type="line"/>
      <point x="91" y="0" type="line"/>
      <point x="180" y="727" type="line"/>
      <point x="285" y="727" type="line"/>
      <point x="267" y="582" type="line"/>
      <point x="300" y="585"/>
      <point x="333" y="587"/>
      <point x="370" y="587" type="curve" smooth="yes"/>
      <point x="531" y="587"/>
      <point x="629" y="492"/>
    </contour>
  </outline>
</glyph>
<glyph name="germandbls" format="1">
  <advance width="569"/>
  <unicode hex="00DF"/>
  <outline>
    <contour>
      <point x="242" y="25" type="curve"/>
      <point x="277" y="95" type="line"/>
      <point x="319" y="76"/>
      <point x="355" y="69"/>
      <point x="381" y="69" type="curve" smooth="yes"/>
      <point x="420" y="69"/>
      <point x="453" y="97"/>
      <point x="458" y="138" type="curve" smooth="yes"/>
      <point x="471" y="240"/>
      <point x="298" y="247"/>
      <point x="317" y="401" type="curve" smooth="yes"/>
      <point x="324" y="459"/>
      <point x="371" y="513"/>
      <point x="447" y="542" type="curve"/>
      <point x="453" y="557"/>
      <point x="457" y="572"/>
      <point x="459" y="588" type="curve" smooth="yes"/>
      <point x="466" y="645"/>
      <point x="425" y="686"/>
      <point x="374" y="686" type="curve" smooth="yes"/>
      <point x="317" y="686"/>
      <point x="254" y="646"/>
      <point x="243" y="555" type="curve" smooth="yes"/>
      <point x="175" y="0" type="line" name="hr01"/>
      <point x="141" y="0"/>
      <point x="108" y="0"/>
      <point x="74" y="0" type="curve"/>
      <point x="140" y="545" type="line" smooth="yes"/>
      <point x="157" y="682"/>
      <point x="251" y="763"/>
      <point x="373" y="763" type="curve" smooth="yes"/>
      <point x="497" y="763"/>
      <point x="557" y="684"/>
      <point x="546" y="588" type="curve" smooth="yes"/>
      <point x="541" y="553"/>
      <point x="527" y="522"/>
      <point x="497" y="482" type="curve"/>
      <point x="449" y="461"/>
      <point x="421" y="439"/>
      <point x="417" y="401" type="curve" smooth="yes"/>
      <point x="404" y="300"/>
      <point x="578" y="294"/>
      <point x="558" y="134" type="curve" smooth="yes"/>
      <point x="548" y="51"/>
      <point x="467" y="-12"/>
      <point x="382" y="-12" type="curve" smooth="yes" name="hr02"/>
      <point x="342" y="-12"/>
      <point x="301" y="-7"/>
    </contour>
  </outline>
</glyph>
<glyph name="aacute" format="1">
  <advance width="572"/>
  <unicode hex="00E1"/>
  <outline>
    <contour>
      <point x="446" y="436" type="line" name="hr00"/>
      <point x="417" y="444"/>
      <point x="392" y="447"/>
      <point x="367" y="447" type="curve" smooth="yes"/>
      <point x="270" y="447"/>
      <point x="199" y="374"/>
      <point x="184" y="251" type="curve" smooth="yes"/>
      <point x="172" y="153"/>
      <point x="197" y="67"/>
      <point x="283" y="79" type="curve" smooth="yes"/>
      <point x="314" y="83"/>
      <point x="339" y="68"/>
      <point x="360" y="37" type="curve"/>
      <point x="324" y="13"/>
      <point x="285" y="-2"/>
      <point x="254" y="-5" type="curve"/>
      <point x="133" y="-20"/>
      <point x="53" y="101"/>
      <point x="71" y="251" type="curve" smooth="yes"/>
      <point x="91" y="413"/>
      <point x="214" y="528"/>
      <point x="376" y="528" type="curve" smooth="yes"/>
      <point x="432" y="528"/>
      <point x="482" y="520"/>
      <point x="557" y="496" type="curve"/>
      <point x="517" y="181" type="line"/>
      <point x="508" y="106"/>
      <point x="505" y="51"/>
      <point x="511" y="5" type="curve"/>
      <point x="432" y="0" type="line"/>
      <point x="417" y="13"/>
      <point x="399" y="53"/>
      <point x="405" y="103" type="curve" smooth="yes"/>
    </contour>
    <contour>
      <point x="533" y="740" type="line"/>
      <point x="435" y="635" type="line" smooth="yes"/>
      <point x="401" y="598"/>
      <point x="351" y="593"/>
      <point x="319" y="602" type="curve"/>
      <point x="424" y="740" type="line"/>
    </contour>
  </outline>
</glyph>
<glyph name="atilde" format="1">
  <advance width="572"/>
  <unicode hex="00E3"/>
  <outline>
    <contour>
      <point x="446" y="436" type="line" name="hr00"/>
      <point x="417" y="444"/>
      <point x="392" y="447"/>
      <point x="367" y="447" type="curve" smooth="yes"/>
      <point x="270" y="447"/>
      <point x="199" y="374"/>
      <point x="184" y="251" type="curve" smooth="yes"/>
      <point x="172" y="153"/>
      <point x="197" y="67"/>
      <point x="283" y="79" type="curve" smooth="yes"/>
      <point x="314" y="83"/>
      <point x="339" y="68"/>
      <point x="360" y="37" type="curve"/>
      <point x="324" y="13"/>
      <point x="285" y="-2"/>
      <point x="254" y="-5" type="curve"/>
      <point x="133" y="-20"/>
      <point x="53" y="101"/>
      <point x="71" y="251" type="curve" smooth="yes"/>
      <point x="91" y="413"/>
      <point x="214" y="528"/>
      <point x="376" y="528" type="curve" smooth="yes"/>
      <point x="432" y="528"/>
      <point x="482" y="520"/>
      <point x="557" y="496" type="curve"/>
      <point x="517" y="181" type="line"/>
      <point x="508" y="106"/>
      <point x="505" y="51"/>
      <point x="511" y="5" type="curve"/>
      <point x="432" y="0" type="line"/>
      <point x="417" y="13"/>
      <point x="399" y="53"/>
      <point x="405" y="103" type="curve" smooth="yes"/>
    </contour>
    <contour>
      <point x="283" y="618" type="curve"/>
      <point x="223" y="624" type="line"/>
      <point x="234" y="698"/>
      <point x="281" y="735"/>
      <point x="329" y="735" type="curve" smooth="yes"/>
      <point x="387" y="735"/>
      <point x="401" y="680"/>
      <point x="440" y="680" type="curve" smooth="yes"/>
      <point x="458" y="680"/>
      <point x="470" y="700"/>
      <point x="478" y="734" type="curve"/>
      <point x="536" y="728" type="line"/>
      <point x="522" y="644"/>
      <point x="473" y="617"/>
      <point x="435" y="617" type="curve" smooth="yes"/>
      <point x="371" y="617"/>
      <point x="360" y="672"/>
      <point x="325" y="672" type="curve" smooth="yes"/>
      <point x="309" y="672"/>
      <point x="291" y="658"/>
    </contour>
  </outline>
</glyph>
<glyph name="adieresis" format="1">
  <advance width="572"/>
  <unicode hex="00E4"/>
  <outline>
    <contour>
      <point x="446" y="436" type="line" name="hr00"/>
      <point x="417" y="444"/>
      <point x="392" y="447"/>
      <point x="367" y="447" type="curve" smooth="yes"/>
      <point x="270" y="447"/>
      <point x="199" y="374"/>
      <point x="184" y="251" type="curve" smooth="yes"/>
      <point x="172" y="153"/>
      <point x="197" y="67"/>
      <point x="283" y="79" type="curve" smooth="yes"/>
      <point x="314" y="83"/>
      <point x="339" y="68"/>
      <point x="360" y="37" type="curve"/>
      <point x="324" y="13"/>
      <point x="285" y="-2"/>
      <point x="254" y="-5" type="curve"/>
      <point x="133" y="-20"/>
      <point x="53" y="101"/>
      <point x="71" y="251" type="curve" smooth="yes"/>
      <point x="91" y="413"/>
      <point x="214" y="528"/>
      <point x="376" y="528" type="curve" smooth="yes"/>
      <point x="432" y="528"/>
      <point x="482" y="520"/>
      <point x="557" y="496" type="curve"/>
      <point x="517" y="181" type="line"/>
      <point x="508" y="106"/>
      <point x="505" y="51"/>
      <point x="511" y="5" type="curve"/>
      <point x="432" y="0" type="line"/>
      <point x="417" y="13"/>
      <point x="399" y="53"/>
      <point x="405" y="103" type="curve" smooth="yes"/>
    </contour>
    <contour>
      <point x="422" y="670" type="curve" smooth="yes"/>
      <point x="426" y="701"/>
      <point x="454" y="725"/>
      <point x="485" y="725" type="curve" smooth="yes"/>
      <point x="515" y="725"/>
      <point x="537" y="701"/>
      <point x="533" y="670" type="curve" smooth="yes"/>
      <point x="529" y="639"/>
      <point x="501" y="615"/>
      <point x="471" y="615" type="curve" smooth="yes"/>
      <point x="440" y="615"/>
      <point x="418" y="639"/>
    </contour>
    <contour>
      <point x="228" y="670" type="curve" smooth="yes"/>
      <point x="232" y="701"/>
      <point x="260" y="725"/>
      <point x="290" y="725" type="curve" smooth="yes"/>
      <point x="320" y="725"/>
      <point x="343" y="701"/>
      <point x="339" y="670" type="curve" smooth="yes"/>
      <point x="335" y="639"/>
      <point x="306" y="615"/>
      <point x="276" y="615" type="curve" smooth="yes"/>
      <point x="246" y="615"/>
      <point x="224" y="639"/>
    </contour>
  </outline>
</glyph>
<glyph name="aring" format="1">
  <advance width="572"/>
  <unicode hex="00E5"/>
  <outline>
    <contour>
      <point x="446" y="436" type="line" name="hr00"/>
      <point x="417" y="444"/>
      <point x="392" y="447"/>
      <point x="367" y="447" type="curve" smooth="yes"/>
      <point x="270" y="447"/>
      <point x="199" y="374"/>
      <point x="184" y="251" type="curve" smooth="yes"/>
      <point x="172" y="153"/>
      <point x="197" y="67"/>
      <point x="283" y="79" type="curve" smooth="yes"/>
      <point x="314" y="83"/>
      <point x="339" y="68"/>
      <point x="360" y="37" type="curve"/>
      <point x="324" y="13"/>
      <point x="285" y="-2"/>
      <point x="254" y="-5" type="curve"/>
      <point x="133" y="-20"/>
      <point x="53" y="101"/>
      <point x="71" y="251" type="curve" smooth="yes"/>
      <point x="91" y="413"/>
      <point x="214" y="528"/>
      <point x="376" y="528" type="curve" smooth="yes"/>
      <point x="432" y="528"/>
      <point x="482" y="520"/>
      <point x="557" y="496" type="curve"/>
      <point x="517" y="181" type="line"/>
      <point x="508" y="106"/>
      <point x="505" y="51"/>
      <point x="511" y="5" type="curve"/>
      <point x="432" y="0" type="line"/>
      <point x="417" y="13"/>
      <point x="399" y="53"/>
      <point x="405" y="103" type="curve" smooth="yes"/>
    </contour>
    <contour>
      <point x="390" y="610" type="curve" smooth="yes"/>
      <point x="419" y="610"/>
      <point x="439" y="631"/>
      <point x="442" y="658" type="curve" smooth="yes"/>
      <point x="446" y="685"/>
      <point x="431" y="706"/>
      <point x="402" y="706" type="curve" smooth="yes"/>
      <point x="376" y="706"/>
      <point x="356" y="685"/>
      <point x="352" y="656" type="curve" smooth="yes"/>
      <point x="349" y="633"/>
      <point x="363" y="610"/>
    </contour>
    <contour>
      <point x="385" y="568" type="curve" smooth="yes"/>
      <point x="326" y="568"/>
      <point x="289" y="606"/>
      <point x="295" y="656" type="curve" smooth="yes"/>
      <point x="302" y="709"/>
      <point x="349" y="748"/>
      <point x="408" y="748" type="curve" smooth="yes"/>
      <point x="468" y="748"/>
      <point x="504" y="711"/>
      <point x="497" y="657" type="curve" smooth="yes"/>
      <point x="491" y="605"/>
      <point x="442" y="568"/>
    </contour>
  </outline>
</glyph>
<glyph name="ae" format="1">
  <advance width="826"/>
  <unicode hex="00E6"/>
  <outline>
    <contour>
      <point x="606" y="317" type="curve"/>
      <point x="722" y="317" type="line"/>
      <point x="740" y="389"/>
      <point x="702" y="449"/>
      <point x="638" y="449" type="curve" smooth="yes"/>
      <point x="563" y="449"/>
      <point x="496" y="385"/>
      <point x="481" y="265" type="curve" smooth="yes"/>
      <point x="467" y="147"/>
      <point x="521" y="70"/>
      <point x="610" y="70" type="curve" smooth="yes"/>
      <point x="656" y="70"/>
      <point x="695" y="78"/>
      <point x="756" y="106" type="curve"/>
      <point x="775" y="33" type="line"/>
      <point x="704" y="-1"/>
      <point x="641" y="-11"/>
      <point x="589" y="-11" type="curve" smooth="yes"/>
      <point x="503" y="-11"/>
      <point x="430" y="53"/>
      <point x="413" y="128" type="curve"/>
      <point x="371" y="39"/>
      <point x="285" y="-11"/>
      <point x="200" y="-11" type="curve" smooth="yes"/>
      <point x="95" y="-11"/>
      <point x="36" y="49"/>
      <point x="46" y="134" type="curve" smooth="yes"/>
      <point x="58" y="230"/>
      <point x="134" y="284"/>
      <point x="344" y="305" type="curve"/>
      <point x="336" y="278"/>
      <point x="318" y="240"/>
      <point x="273" y="228" type="curve" smooth="yes"/>
      <point x="191" y="201"/>
      <point x="163" y="189"/>
      <point x="157" y="142" type="curve" smooth="yes"/>
      <point x="152" y="103"/>
      <point x="178" y="70"/>
      <point x="224" y="70" type="curve" smooth="yes"/>
      <point x="304" y="70"/>
      <point x="360" y="142"/>
      <point x="375" y="263" type="curve" smooth="yes"/>
      <point x="382" y="318" type="line" smooth="yes"/>
      <point x="391" y="394"/>
      <point x="360" y="446"/>
      <point x="275" y="446" type="curve" smooth="yes"/>
      <point x="240" y="446"/>
      <point x="207" y="440"/>
      <point x="156" y="423" type="curve"/>
      <point x="139" y="492" type="line"/>
      <point x="205" y="520"/>
      <point x="260" y="527"/>
      <point x="305" y="527" type="curve" smooth="yes" name="hr01"/>
      <point x="378" y="527"/>
      <point x="435" y="485"/>
      <point x="457" y="419" type="curve"/>
      <point x="500" y="483"/>
      <point x="580" y="528"/>
      <point x="657" y="528" type="curve" smooth="yes" name="hr02"/>
      <point x="797" y="528"/>
      <point x="869" y="397"/>
      <point x="802" y="246" type="curve"/>
      <point x="515" y="246" type="line"/>
      <point x="534" y="286"/>
      <point x="562" y="317"/>
    </contour>
  </outline>
</glyph>
<glyph name="ccedilla" format="1">
  <advance width="451"/>
  <unicode hex="00E7"/>
  <outline>
    <contour>
      <point x="289" y="-11" type="curve" name="hr00"/>
      <point x="288" y="-11"/>
      <point x="287" y="-11"/>
      <point x="286" y="-11" type="curve"/>
      <point x="272" y="-48" type="line"/>
      <point x="310" y="-53"/>
      <point x="349" y="-81"/>
      <point x="343" y="-123" type="curve"/>
      <point x="336" y="-183"/>
      <point x="271" y="-208"/>
      <point x="215" y="-208" type="curve" smooth="yes"/>
      <point x="192" y="-208"/>
      <point x="168" y="-203"/>
      <point x="137" y="-189" type="curve"/>
      <point x="159" y="-142" type="line"/>
      <point x="183" y="-152"/>
      <point x="201" y="-155"/>
      <point x="221" y="-155" type="curve" smooth="yes"/>
      <point x="244" y="-155"/>
      <point x="271" y="-147"/>
      <point x="274" y="-126" type="curve" smooth="yes"/>
      <point x="277" y="-102"/>
      <point x="251" y="-91"/>
      <point x="205" y="-86" type="curve"/>
      <point x="236" y="-6" type="line"/>
      <point x="127" y="15"/>
      <point x="54" y="104"/>
      <point x="73" y="259" type="curve" smooth="yes"/>
      <point x="95" y="434"/>
      <point x="223" y="528"/>
      <point x="355" y="528" type="curve" smooth="yes"/>
      <point x="391" y="528"/>
      <point x="436" y="522"/>
      <point x="474" y="507" type="curve"/>
      <point x="438" y="433" type="line"/>
      <point x="404" y="443"/>
      <point x="372" y="447"/>
      <point x="345" y="447" type="curve" smooth="yes"/>
      <point x="270" y="447"/>
      <point x="202" y="384"/>
      <point x="186" y="259" type="curve"/>
      <point x="171" y="133"/>
      <point x="223" y="70"/>
      <point x="299" y="70" type="curve" smooth="yes"/>
      <point x="327" y="70"/>
      <point x="362" y="78"/>
      <point x="410" y="98" type="curve"/>
      <point x="428" y="24" type="line"/>
      <point x="371" y="-2"/>
      <point x="322" y="-11"/>
    </contour>
  </outline>
</glyph>
<glyph name="egrave" format="1">
  <advance width="525"/>
  <unicode hex="00E8"/>
  <outline>
    <contour>
      <point x="289" y="636" type="curve" name="hr00"/>
      <point x="231" y="740" type="line"/>
      <point x="338" y="740" type="line"/>
      <point x="394" y="602" type="line"/>
      <point x="359" y="594"/>
      <point x="313" y="600"/>
    </contour>
    <contour>
      <point x="305" y="317" type="curve"/>
      <point x="421" y="317" type="line"/>
      <point x="439" y="389"/>
      <point x="401" y="449"/>
      <point x="337" y="449" type="curve" smooth="yes"/>
      <point x="262" y="449"/>
      <point x="195" y="385"/>
      <point x="180" y="265" type="curve" smooth="yes"/>
      <point x="166" y="147"/>
      <point x="220" y="70"/>
      <point x="309" y="70" type="curve" smooth="yes"/>
      <point x="355" y="70"/>
      <point x="394" y="78"/>
      <point x="455" y="106" type="curve"/>
      <point x="474" y="33" type="line"/>
      <point x="403" y="-1"/>
      <point x="340" y="-11"/>
      <point x="288" y="-11" type="curve" smooth="yes"/>
      <point x="131" y="-11"/>
      <point x="55" y="114"/>
      <point x="74" y="264" type="curve" smooth="yes"/>
      <point x="94" y="427"/>
      <point x="206" y="528"/>
      <point x="356" y="528" type="curve" smooth="yes"/>
      <point x="496" y="528"/>
      <point x="568" y="397"/>
      <point x="501" y="246" type="curve"/>
      <point x="214" y="246" type="line"/>
      <point x="233" y="286"/>
      <point x="261" y="317"/>
    </contour>
  </outline>
</glyph>
<glyph name="eacute" format="1">
  <advance width="525"/>
  <unicode hex="00E9"/>
  <outline>
    <contour>
      <point x="518" y="740" type="line" name="hr00"/>
      <point x="420" y="635" type="line" smooth="yes"/>
      <point x="386" y="598"/>
      <point x="336" y="593"/>
      <point x="304" y="602" type="curve"/>
      <point x="409" y="740" type="line"/>
    </contour>
    <contour>
      <point x="305" y="317" type="curve"/>
      <point x="421" y="317" type="line"/>
      <point x="439" y="389"/>
      <point x="401" y="449"/>
      <point x="337" y="449" type="curve" smooth="yes"/>
      <point x="262" y="449"/>
      <point x="194" y="385"/>
      <point x="179" y="265" type="curve" smooth="yes"/>
      <point x="165" y="147"/>
      <point x="220" y="70"/>
      <point x="309" y="70" type="curve" smooth="yes"/>
      <point x="355" y="70"/>
      <point x="394" y="78"/>
      <point x="455" y="106" type="curve"/>
      <point x="474" y="33" type="line"/>
      <point x="403" y="-1"/>
      <point x="340" y="-11"/>
      <point x="288" y="-11" type="curve" smooth="yes"/>
      <point x="130" y="-11"/>
      <point x="54" y="114"/>
      <point x="73" y="264" type="curve" smooth="yes"/>
      <point x="93" y="427"/>
      <point x="206" y="528"/>
      <point x="355" y="528" type="curve" smooth="yes"/>
      <point x="495" y="528"/>
      <point x="567" y="397"/>
      <point x="501" y="246" type="curve"/>
      <point x="214" y="246" type="line"/>
      <point x="233" y="286"/>
      <point x="261" y="317"/>
    </contour>
  </outline>
</glyph>
<glyph name="edieresis" format="1">
  <advance width="525"/>
  <unicode hex="00EB"/>
  <outline>
    <contour>
      <point x="401" y="670" type="curve" smooth="yes" name="hr00"/>
      <point x="405" y="701"/>
      <point x="433" y="725"/>
      <point x="464" y="725" type="curve" smooth="yes"/>
      <point x="494" y="725"/>
      <point x="516" y="701"/>
      <point x="512" y="670" type="curve" smooth="yes"/>
      <point x="508" y="639"/>
      <point x="480" y="615"/>
      <point x="450" y="615" type="curve" smooth="yes"/>
      <point x="419" y="615"/>
      <point x="397" y="639"/>
    </contour>
    <contour>
      <point x="207" y="670" type="curve" smooth="yes"/>
      <point x="211" y="701"/>
      <point x="239" y="725"/>
      <point x="269" y="725" type="curve" smooth="yes"/>
      <point x="299" y="725"/>
      <point x="322" y="701"/>
      <point x="318" y="670" type="curve" smooth="yes"/>
      <point x="314" y="639"/>
      <point x="285" y="615"/>
      <point x="255" y="615" type="curve" smooth="yes"/>
      <point x="225" y="615"/>
      <point x="203" y="639"/>
    </contour>
    <contour>
      <point x="305" y="317" type="curve"/>
      <point x="421" y="317" type="line"/>
      <point x="439" y="389"/>
      <point x="401" y="449"/>
      <point x="337" y="449" type="curve" smooth="yes"/>
      <point x="262" y="449"/>
      <point x="195" y="385"/>
      <point x="180" y="265" type="curve" smooth="yes"/>
      <point x="166" y="147"/>
      <point x="220" y="70"/>
      <point x="309" y="70" type="curve" smooth="yes"/>
      <point x="355" y="70"/>
      <point x="394" y="78"/>
      <point x="455" y="106" type="curve"/>
      <point x="474" y="33" type="line"/>
      <point x="403" y="-1"/>
      <point x="340" y="-11"/>
      <point x="288" y="-11" type="curve" smooth="yes"/>
      <point x="131" y="-11"/>
      <point x="55" y="114"/>
      <point x="74" y="264" type="curve" smooth="yes"/>
      <point x="94" y="427"/>
      <point x="206" y="528"/>
      <point x="356" y="528" type="curve" smooth="yes"/>
      <point x="496" y="528"/>
      <point x="568" y="397"/>
      <point x="501" y="246" type="curve"/>
      <point x="214" y="246" type="line"/>
      <point x="233" y="286"/>
      <point x="261" y="317"/>
    </contour>
  </outline>
</glyph>
<glyph name="igrave" format="1">
  <advance width="257"/>
  <unicode hex="00EC"/>
  <outline>
    <contour>
      <point x="131" y="636" type="curve" name="hr00"/>
      <point x="73" y="740" type="line"/>
      <point x="180" y="740" type="line"/>
      <point x="236" y="602" type="line"/>
      <point x="201" y="594"/>
      <point x="155" y="600"/>
    </contour>
    <contour>
      <point x="183" y="0" type="line"/>
      <point x="74" y="0" type="line"/>
      <point x="137" y="517" type="line"/>
      <point x="246" y="517" type="line"/>
    </contour>
  </outline>
</glyph>
<glyph name="iacute" format="1">
  <advance width="256"/>
  <unicode hex="00ED"/>
  <outline>
    <contour>
      <point x="364" y="740" type="line" name="hr00"/>
      <point x="266" y="635" type="line" smooth="yes"/>
      <point x="232" y="598"/>
      <point x="182" y="593"/>
      <point x="150" y="602" type="curve"/>
      <point x="255" y="740" type="line"/>
    </contour>
    <contour>
      <point x="182" y="0" type="line"/>
      <point x="74" y="0" type="line"/>
      <point x="137" y="517" type="line"/>
      <point x="245" y="517" type="line"/>
    </contour>
  </outline>
</glyph>
<glyph name="icircumflex" format="1">
  <advance width="256"/>
  <unicode hex="00EE"/>
  <outline>
    <contour>
      <point x="184" y="743" type="line" name="hr00"/>
      <point x="255" y="743" type="line"/>
      <point x="347" y="599" type="line"/>
      <point x="285" y="589" type="line"/>
      <point x="210" y="669" type="line"/>
      <point x="115" y="588" type="line"/>
      <point x="58" y="599" type="line"/>
    </contour>
    <contour>
      <point x="182" y="0" type="line"/>
      <point x="74" y="0" type="line"/>
      <point x="137" y="517" type="line"/>
      <point x="245" y="517" type="line"/>
    </contour>
  </outline>
</glyph>
<glyph name="idieresis" format="1">
  <advance width="257"/>
  <unicode hex="00EF"/>
  <outline>
    <contour>
      <point x="251" y="670" type="curve" smooth="yes" name="hr00"/>
      <point x="255" y="701"/>
      <point x="283" y="725"/>
      <point x="313" y="725" type="curve" smooth="yes"/>
      <point x="344" y="725"/>
      <point x="366" y="701"/>
      <point x="362" y="670" type="curve" smooth="yes"/>
      <point x="358" y="639"/>
      <point x="330" y="615"/>
      <point x="299" y="615" type="curve" smooth="yes"/>
      <point x="269" y="615"/>
      <point x="247" y="639"/>
    </contour>
    <contour>
      <point x="57" y="670" type="curve" smooth="yes"/>
      <point x="61" y="701"/>
      <point x="90" y="725"/>
      <point x="119" y="725" type="curve" smooth="yes"/>
      <point x="150" y="725"/>
      <point x="173" y="701"/>
      <point x="169" y="670" type="curve" smooth="yes"/>
      <point x="165" y="639"/>
      <point x="136" y="615"/>
      <point x="105" y="615" type="curve" smooth="yes"/>
      <point x="76" y="615"/>
      <point x="53" y="639"/>
    </contour>
    <contour>
      <point x="183" y="0" type="line"/>
      <point x="74" y="0" type="line"/>
      <point x="137" y="517" type="line"/>
      <point x="246" y="517" type="line"/>
    </contour>
  </outline>
</glyph>
<glyph name="eth" format="1">
  <advance width="586"/>
  <unicode hex="00F0"/>
  <outline>
    <contour>
      <point x="457" y="259" type="curve" smooth="yes" name="hr00"/>
      <point x="472" y="381"/>
      <point x="421" y="447"/>
      <point x="344" y="447" type="curve" smooth="yes"/>
      <point x="268" y="447"/>
      <point x="201" y="381"/>
      <point x="186" y="259" type="curve" smooth="yes"/>
      <point x="171" y="136"/>
      <point x="221" y="70"/>
      <point x="298" y="70" type="curve" smooth="yes"/>
      <point x="375" y="70"/>
      <point x="442" y="136"/>
    </contour>
    <contour>
      <point x="570" y="259" type="curve" smooth="yes"/>
      <point x="550" y="91"/>
      <point x="423" y="-11"/>
      <point x="288" y="-11" type="curve" smooth="yes"/>
      <point x="150" y="-11"/>
      <point x="51" y="87"/>
      <point x="72" y="259" type="curve" smooth="yes"/>
      <point x="93" y="426"/>
      <point x="219" y="528"/>
      <point x="354" y="528" type="curve" smooth="yes"/>
      <point x="387" y="528"/>
      <point x="414" y="518"/>
      <point x="451" y="497" type="curve"/>
      <point x="419" y="542"/>
      <point x="381" y="587"/>
      <point x="354" y="609" type="curve"/>
      <point x="225" y="551" type="line"/>
      <point x="210" y="598" type="line"/>
      <point x="309" y="644" type="line"/>
      <point x="282" y="664"/>
      <point x="253" y="681"/>
      <point x="221" y="697" type="curve"/>
      <point x="264" y="761" type="line"/>
      <point x="309" y="739"/>
      <point x="355" y="712"/>
      <point x="394" y="682" type="curve"/>
      <point x="513" y="735" type="line"/>
      <point x="530" y="687" type="line"/>
      <point x="438" y="645" type="line"/>
      <point x="498" y="589"/>
      <point x="593" y="441"/>
    </contour>
  </outline>
</glyph>
